<?xml version="1.0" encoding="utf-8"?>
<!-- Generator: Adobe Illustrator 25.0.0, SVG Export Plug-In . SVG Version: 6.00 Build 0)  -->
<svg version="1.1" id="Layer_1" xmlns="http://www.w3.org/2000/svg" xmlns:xlink="http://www.w3.org/1999/xlink" x="0px" y="0px"
	 width="80px" height="80px" viewBox="0 0 80 80" style="enable-background:new 0 0 80 80;" xml:space="preserve">
<style type="text/css">
	.st0{fill:#021D49;}
</style>
<path class="st0" d="M61.9,24.8l-6.7,6.5c8,11.3,5.2,27-6.2,34.9s-27.1,5.2-35.1-6.2s-5.2-27,6.2-34.9c8.7-6,20.2-6,28.9,0l6.7-6.5
	C40.6,7,19,9.7,7.3,24.6s-9,36.5,6.1,48.1s36.7,8.9,48.4-6C71.4,54.4,71.5,37.2,61.9,24.8"/>
<path class="st0" d="M17.8,45.6c-0.1,9.2,7.4,16.8,16.8,16.8c9.3,0.1,16.9-7.4,16.9-16.7c0-3-0.8-6-2.3-8.6l-6.7,6.6
	c1,4.3-1.7,8.6-6.1,9.6s-8.7-1.7-9.7-6s1.7-8.6,6.1-9.6c0.6-0.1,1.2-0.2,1.8-0.2c0.5,0,1.1,0.1,1.6,0.2l6.8-6.7
	c-8.1-4.6-18.4-1.8-23,6.2C18.5,39.9,17.7,42.7,17.8,45.6"/>
<path class="st0" d="M80,2.4l-1.8-1.8l-3.9,3.8c-1.2-1-5.8-5.1-9.4,0.6c-2.3,3.8-3.3,10.7-3.3,10.7l0.6,0.5L33.6,44.4l1.8,1.8
	l28.8-28.2l0.6,0.6c0,0,6.8-1.8,10.3-4.6c3.8-3,2.5-6,1-7.8L80,2.4z"/>
</svg>
