<svg id="Layer_1" data-name="Layer 1" xmlns="http://www.w3.org/2000/svg" xmlns:xlink="http://www.w3.org/1999/xlink" width="770" height="334" viewBox="0 0 770 334"><defs><style>.cls-1,.cls-15{fill:none;}.cls-2{fill:#35068c;}.cls-3,.cls-4{fill:#ff7676;}.cls-3,.cls-6{opacity:0.1;isolation:isolate;}.cls-5{fill:#4610ad;}.cls-6,.cls-7{fill:#8fffbe;}.cls-8{fill:#fff;}.cls-9{fill:#f2f2f2;}.cls-10{fill:#c4c4c4;}.cls-11{clip-path:url(#clip-path);}.cls-12{fill:url(#linear-gradient);}.cls-13{fill:#ee7577;}.cls-14{fill:#59c19c;}.cls-15{stroke:#000;stroke-miterlimit:10;stroke-width:0.54px;}</style><clipPath id="clip-path"><rect class="cls-1" x="192" y="76" width="40" height="40"/></clipPath><linearGradient id="linear-gradient" x1="212" y1="260" x2="212" y2="220" gradientTransform="matrix(1, 0, 0, -1, 0, 336)" gradientUnits="userSpaceOnUse"><stop offset="0" stop-color="#f9aa4b"/><stop offset="1" stop-color="#f7931a"/></linearGradient></defs><rect class="cls-2" x="152" width="610" height="334" rx="16"/><circle class="cls-3" cx="502" cy="96.86" r="8"/><path class="cls-4" d="M505.21,94.79h-6.42a.22.22,0,0,0-.18.35l3.21,3.71a.24.24,0,0,0,.36,0l3.21-3.71A.22.22,0,0,0,505.21,94.79Z"/><rect class="cls-5" x="80" y="144" width="610" height="79" rx="16"/><circle class="cls-3" cx="501.58" cy="271" r="8"/><path class="cls-4" d="M504.78,268.93h-6.41a.21.21,0,0,0-.18.34L501.4,273a.24.24,0,0,0,.36,0l3.2-3.72A.21.21,0,0,0,504.78,268.93Z"/><path class="cls-4" d="M523.8,269.56h-5.09v1.25h5.09Zm6.14,6.6c2.56,0,4-2.18,4-6s-1.5-6-4-6-4.05,2.2-4.05,6S527.37,276.16,529.94,276.16Zm0-1.25c-1.7,0-2.69-1.7-2.69-4.73s1-4.75,2.69-4.75,2.68,1.73,2.68,4.75S531.63,274.91,529.94,274.91Zm6.79,1.18a1,1,0,1,0-1-1A1,1,0,0,0,536.73,276.09Zm7-11.88a3.88,3.88,0,0,0-.23,7.75,3.39,3.39,0,0,0,2.86-1.55h.09c0,2.86-1.11,4.5-2.91,4.5a2.19,2.19,0,0,1-2.22-1.84h-1.39a3.49,3.49,0,0,0,3.61,3.09c2.62,0,4.23-2.32,4.23-6.45S545.64,264.23,543.74,264.21Zm0,1.25a2.58,2.58,0,0,1,2.52,2.61,2.64,2.64,0,0,1-2.57,2.64,2.51,2.51,0,0,1-2.48-2.62A2.56,2.56,0,0,1,543.74,265.46ZM556,273.82a2.26,2.26,0,1,0,4.52,0v-.61a2.17,2.17,0,0,0-2.25-2.35,2.2,2.2,0,0,0-2.27,2.35Zm-5.8-6.66a2.26,2.26,0,1,0,4.52,0v-.61a2.16,2.16,0,0,0-2.25-2.34,2.2,2.2,0,0,0-2.27,2.34Zm.43,8.84h1.3l8-11.64h-1.3Zm6.53-2.79c0-.71.31-1.37,1.11-1.37s1.09.66,1.09,1.37v.61c0,.7-.29,1.36-1.09,1.36s-1.11-.66-1.11-1.36Zm-5.8-6.66c0-.71.32-1.37,1.11-1.37s1.1.66,1.1,1.37v.61c0,.7-.3,1.36-1.1,1.36s-1.11-.66-1.11-1.36Z"/><circle class="cls-6" cx="430.1" cy="184" r="8"/><path class="cls-7" d="M433.49,185.73,430.28,182a.24.24,0,0,0-.36,0l-3.21,3.72a.21.21,0,0,0,.18.34h6.42A.21.21,0,0,0,433.49,185.73Z"/><path class="cls-7" d="M450.74,187H452v-3.11h3.11v-1.27H452v-3.12h-1.27v3.12h-3.12v1.27h3.12Zm10.84,2.21c2.32,0,3.94-1.36,3.95-3.25a3,3,0,0,0-2.25-3v-.06a2.6,2.6,0,0,0,1.82-2.59,3.55,3.55,0,0,0-7,0,2.55,2.55,0,0,0,1.81,2.59V183a2.94,2.94,0,0,0-2.25,3C457.61,187.8,459.23,189.16,461.58,189.16Zm0-1.25c-1.6,0-2.58-.82-2.57-2.07a2.33,2.33,0,0,1,2.57-2.25,2.36,2.36,0,0,1,2.57,2.25C464.14,187.09,463.15,187.91,461.58,187.91Zm0-5.52a2,2,0,0,1-2.16-2,1.93,1.93,0,0,1,2.16-2,2,2,0,0,1,2.16,2A2,2,0,0,1,461.58,182.39Zm6.77,6.7a1,1,0,1,0-1-1A1,1,0,0,0,468.35,189.09Zm3.41-.09h7.34v-1.25h-5.41v-.09l2.61-2.8c2-2.14,2.59-3.14,2.59-4.43a3.3,3.3,0,0,0-3.5-3.23,3.39,3.39,0,0,0-3.59,3.44h1.34a2.07,2.07,0,0,1,2.21-2.21,2,2,0,0,1,2.23,2c0,1.08-.64,1.87-2,3.34L471.76,188Zm15.62-2.18a2.26,2.26,0,1,0,4.52,0v-.62a2.17,2.17,0,0,0-2.25-2.34,2.2,2.2,0,0,0-2.27,2.34Zm-5.8-6.66a2.26,2.26,0,1,0,4.52,0v-.61a2.17,2.17,0,0,0-2.25-2.35,2.2,2.2,0,0,0-2.27,2.35ZM482,189h1.3l8-11.64H490Zm6.53-2.8c0-.7.31-1.36,1.11-1.36s1.09.66,1.09,1.36v.62c0,.7-.3,1.36-1.09,1.36s-1.11-.66-1.11-1.36Zm-5.8-6.65c0-.71.32-1.37,1.11-1.37s1.09.66,1.09,1.37v.61c0,.7-.29,1.36-1.09,1.36s-1.11-.66-1.11-1.36Z"/><path class="cls-8" d="M180.71,164.94v6h6.9v-6h1.86v14.25h-1.86v-6.68h-6.9v6.68h-1.84V164.94Z"/><path class="cls-8" d="M202.62,178.72a9.1,9.1,0,0,1-3.76.68c-4,0-7.05-2.54-7.05-7.21a7.1,7.1,0,0,1,7.45-7.49,7.51,7.51,0,0,1,3.38.64l-.44,1.5a6.69,6.69,0,0,0-2.88-.59c-3.34,0-5.56,2.13-5.56,5.88,0,3.49,2,5.73,5.48,5.73a7.34,7.34,0,0,0,3-.6Z"/><path class="cls-8" d="M216.66,171.91c0,4.91-3,7.51-6.62,7.51s-6.4-2.92-6.4-7.23c0-4.53,2.81-7.49,6.62-7.49S216.66,167.68,216.66,171.91Zm-11.06.24c0,3,1.65,5.77,4.55,5.77s4.57-2.69,4.57-5.92c0-2.83-1.48-5.8-4.55-5.8S205.6,169,205.6,172.15Z"/><path class="cls-8" d="M220.89,164.94v14.25h-1.84V164.94Z"/><path class="cls-8" d="M224.11,179.19V164.94h2l4.56,7.21a38.86,38.86,0,0,1,2.56,4.63l0,0c-.17-1.91-.22-3.64-.22-5.86v-6h1.74v14.25H233L228.42,172a46.92,46.92,0,0,1-2.66-4.76l-.07,0c.11,1.8.15,3.51.15,5.88v6.09Z"/><path class="cls-8" d="M374,54h1.85V50.56h1.95c2.35,0,3.61-1.41,3.61-3.37a3.23,3.23,0,0,0-3.59-3.37H374Zm1.85-5V45.36h1.69c1.38,0,2,.75,2,1.83a1.74,1.74,0,0,1-2,1.85Zm7.08,5h1.8V49.51a1.63,1.63,0,0,1,1.72-1.65,3.43,3.43,0,0,1,.84.1V46.3a4.29,4.29,0,0,0-.65,0,1.91,1.91,0,0,0-1.88,1.39h-.08V46.36h-1.75Zm5.55,0h1.81V46.36h-1.81Zm.91-8.72a1,1,0,1,0,0-2,1,1,0,1,0,0,2Zm6.08,8.87a3,3,0,0,0,3.27-2.76H397a1.5,1.5,0,0,1-1.54,1.29c-1.12,0-1.85-.94-1.85-2.5s.74-2.46,1.85-2.46A1.49,1.49,0,0,1,397,49h1.72a3,3,0,0,0-3.28-2.75c-2.24,0-3.65,1.62-3.65,4S393.18,54.15,395.47,54.15Zm8.13,0a3.1,3.1,0,0,0,3.32-2.2l-1.68-.19a1.6,1.6,0,0,1-1.62,1,1.89,1.89,0,0,1-1.95-2.08H407v-.55c0-2.68-1.61-3.86-3.49-3.86-2.19,0-3.61,1.61-3.61,4S401.3,54.15,403.6,54.15Zm-1.92-4.69a1.83,1.83,0,0,1,1.85-1.79,1.7,1.7,0,0,1,1.74,1.79Z"/><path class="cls-8" d="M503.72,47.25a4.06,4.06,0,0,0-4.31-3.57c-2.66,0-4.66,1.94-4.66,5.23s2,5.23,4.66,5.23a4.13,4.13,0,0,0,4.31-3.51h-1.86a2.31,2.31,0,0,1-2.43,1.86c-1.65,0-2.83-1.23-2.83-3.57s1.17-3.58,2.84-3.58a2.3,2.3,0,0,1,2.42,1.92Zm3.41,2.28a1.58,1.58,0,0,1,1.65-1.74,1.44,1.44,0,0,1,1.5,1.63V54h1.8V49.14c0-1.85-1-2.88-2.63-2.88a2.25,2.25,0,0,0-2.27,1.4h-.09V43.82h-1.76V54h1.8Zm9,4.62a2.34,2.34,0,0,0,2.24-1.2h.06v1h1.73V48.89c0-2-1.64-2.63-3.1-2.63a3.06,3.06,0,0,0-3.23,2.11l1.68.24a1.51,1.51,0,0,1,1.56-1c.84,0,1.29.43,1.29,1.18v0c0,.52-.54.54-1.88.69-1.49.15-2.9.6-2.9,2.32A2.27,2.27,0,0,0,516.11,54.15Zm.47-1.32c-.75,0-1.29-.34-1.29-1s.6-1,1.41-1.1a5.3,5.3,0,0,0,1.65-.37v.9A1.63,1.63,0,0,1,516.58,52.83Zm7.17-3.3a1.57,1.57,0,0,1,1.62-1.74,1.44,1.44,0,0,1,1.49,1.63V54h1.8V49.14c0-1.83-1-2.88-2.62-2.88a2.3,2.3,0,0,0-2.28,1.4h-.09v-1.3H522V54h1.8ZM533.81,57c2.06,0,3.58-.94,3.58-2.9V46.36h-1.77v1.27h-.1a2.29,2.29,0,0,0-2.2-1.37c-1.76,0-3.15,1.39-3.15,3.9s1.39,3.73,3.15,3.73a2.27,2.27,0,0,0,2.2-1.26h.09v1.44c0,1.13-.75,1.59-1.77,1.59a1.78,1.78,0,0,1-1.78-1l-1.62.39C530.76,56.16,531.86,57,533.81,57Zm0-4.54c-1.19,0-1.81-.93-1.81-2.33s.61-2.41,1.81-2.41,1.8,1,1.8,2.41S535,52.48,533.82,52.48Zm8.8,1.67a3.1,3.1,0,0,0,3.32-2.2l-1.68-.19a1.6,1.6,0,0,1-1.62,1,1.89,1.89,0,0,1-1.95-2.08H546v-.55c0-2.68-1.61-3.86-3.49-3.86-2.19,0-3.61,1.61-3.61,4S540.31,54.15,542.62,54.15Zm-1.92-4.69a1.83,1.83,0,0,1,1.85-1.79,1.7,1.7,0,0,1,1.74,1.79Z"/><path class="cls-8" d="M637.37,43.82h-2L638.93,54h2.28l3.58-10.18h-2l-2.65,8H640Zm11.2,10.33c2.23,0,3.66-1.58,3.66-3.94s-1.43-4-3.66-4-3.66,1.59-3.66,4S646.33,54.15,648.57,54.15Zm0-1.44c-1.24,0-1.85-1.11-1.85-2.5s.61-2.52,1.85-2.52,1.82,1.12,1.82,2.52S649.79,52.71,648.58,52.71Zm7-8.89h-1.8V54h1.8Zm6.72,7a1.62,1.62,0,0,1-1.62,1.74A1.42,1.42,0,0,1,659.2,51V46.36h-1.8v4.87c0,1.83,1.05,2.87,2.55,2.87a2.36,2.36,0,0,0,2.3-1.46h.08V54h1.74V46.36h-1.8ZM665.92,54h1.8V49.36a1.46,1.46,0,0,1,1.4-1.58,1.23,1.23,0,0,1,1.29,1.3V54h1.76V49.24a1.33,1.33,0,0,1,1.38-1.46,1.23,1.23,0,0,1,1.3,1.37V54h1.81V48.87A2.46,2.46,0,0,0,672,47.66h-.08a2,2,0,0,0-2.06-1.4,2.12,2.12,0,0,0-2.11,1.4h-.09v-1.3h-1.72Zm16,.15a3.1,3.1,0,0,0,3.32-2.2l-1.68-.19a1.6,1.6,0,0,1-1.62,1,1.89,1.89,0,0,1-1.95-2.08h5.32v-.55c0-2.68-1.61-3.86-3.49-3.86-2.19,0-3.61,1.61-3.61,4S679.56,54.15,681.87,54.15ZM680,49.46a1.83,1.83,0,0,1,1.85-1.79,1.7,1.7,0,0,1,1.74,1.79Zm10.75.39a10.29,10.29,0,0,0,2,6.31h1.7a12,12,0,0,1,0-12.63h-1.7A10.32,10.32,0,0,0,690.7,49.85Zm5,4.15h7V52.46h-4.44v-.07l1.76-1.79c2-1.89,2.52-2.82,2.52-4,0-1.7-1.38-3-3.43-3a3.16,3.16,0,0,0-3.45,3.19h1.75a1.57,1.57,0,0,1,1.67-1.69,1.54,1.54,0,0,1,1.69,1.55c0,.85-.51,1.45-1.52,2.47l-3.53,3.47ZM704,52.11h4.86V54h1.76V52.11H712V50.59h-1.3V43.82h-2.3L704,50.64Zm4.88-1.52h-3v-.08l2.91-4.6h.08Zm6.45-1.06A1.58,1.58,0,0,1,717,47.79a1.44,1.44,0,0,1,1.5,1.63V54h1.8V49.14c0-1.85-1-2.88-2.63-2.88a2.25,2.25,0,0,0-2.27,1.4h-.09V43.82h-1.76V54h1.8Zm10,.32a10.31,10.31,0,0,0-2-6.32h-1.7a12.05,12.05,0,0,1,0,12.64h1.7A10.31,10.31,0,0,0,725.36,49.85Z"/><path class="cls-9" d="M249.41,116h4.2c2.75,0,3.89-1.34,3.89-3.09a2.72,2.72,0,0,0-2.34-2.91v-.11a2.33,2.33,0,0,0,1.89-2.43c0-1.71-1.14-3.1-3.57-3.1h-4.07Zm1.41-1.25v-4h2.86a2.28,2.28,0,0,1,2.48,2.2c0,1-.7,1.84-2.55,1.84Zm0-5.27v-3.87h2.66c1.54,0,2.23.82,2.23,1.85a2.08,2.08,0,0,1-2.28,2Zm9,6.52h1.34v-8.73h-1.34Zm.69-10.18a.91.91,0,1,0-1-.91A.94.94,0,0,0,260.48,105.82Zm7.07,1.45h-1.87v-2.09h-1.34v2.09H263v1.14h1.32v5.45a2.23,2.23,0,0,0,2.36,2.25,3,3,0,0,0,1-.15l-.27-1.21a2.64,2.64,0,0,1-.59.07c-.59,0-1.16-.18-1.16-1.32v-5.09h1.87Zm5.62,8.91a3.24,3.24,0,0,0,3.44-2.72h-1.34a2,2,0,0,1-2.1,1.52c-1.59,0-2.61-1.32-2.61-3.34s1.05-3.28,2.61-3.28a2.06,2.06,0,0,1,2.1,1.53h1.34a3.26,3.26,0,0,0-3.46-2.73c-2.36,0-3.93,1.86-3.93,4.52S270.72,116.18,273.17,116.18Zm9.1,0c2.37,0,4-1.79,4-4.5s-1.59-4.52-4-4.52-3.95,1.8-3.95,4.52S279.91,116.18,282.27,116.18Zm0-1.2c-1.79,0-2.61-1.55-2.61-3.3s.82-3.32,2.61-3.32,2.62,1.57,2.62,3.32S284.07,115,282.27,115Zm6.16,1h1.34v-8.73h-1.34Zm.68-10.18a.91.91,0,1,0-.95-.91A.94.94,0,0,0,289.11,105.82Zm4.62,4.93a2.17,2.17,0,0,1,2.23-2.39,1.94,1.94,0,0,1,2,2.19V116h1.34v-5.54c0-2.23-1.19-3.3-2.95-3.3a2.58,2.58,0,0,0-2.55,1.48h-.11v-1.37h-1.3V116h1.34Z"/><path class="cls-8" d="M249.26,92h6.22c3.27,0,5-1.7,5-4a3.37,3.37,0,0,0-3.2-3.53v-.14a3.12,3.12,0,0,0,2.63-3.13c0-2.18-1.62-3.73-4.83-3.73h-5.83Zm3.08-2.51V85.62h2.58a2.11,2.11,0,0,1,2.39,2c0,1.1-.74,1.82-2.46,1.82Zm0-5.95v-3.6h2.34c1.36,0,2.13.7,2.13,1.75s-.93,1.85-2.19,1.85ZM261.93,80h4.46V92h3V80h4.45V77.45H261.93ZM288,82.55c-.41-3.36-3-5.29-6.32-5.29-3.84,0-6.77,2.71-6.77,7.47s2.88,7.47,6.77,7.47A6,6,0,0,0,288,87h-3.12a3,3,0,0,1-3.15,2.45c-2.21,0-3.71-1.64-3.71-4.75S279.54,80,281.79,80a2.93,2.93,0,0,1,3.13,2.57Z"/><circle class="cls-10" cx="212" cy="96" r="20"/><g class="cls-11"><path class="cls-12" d="M231.4,100.84A20,20,0,1,1,216.84,76.6,20,20,0,0,1,231.4,100.84Z"/><path class="cls-8" d="M221.52,93.51c.39-2.66-1.62-4.1-4.4-5.05l.9-3.61-2.18-.55L215,87.82l-1.77-.41.88-3.53-2.19-.54L211,86.93l-1.4-.33h0l-3-.75L206,88.18s1.62.37,1.59.39a1.16,1.16,0,0,1,1,1.28l-1,4.11a1.11,1.11,0,0,1,.24.08,2.1,2.1,0,0,1-.24-.06l-1.43,5.75a.8.8,0,0,1-1,.51s-1.6-.39-1.6-.39l-1.09,2.52,2.86.72,1.56.4-.91,3.64,2.19.55.91-3.61,1.75.45-.89,3.6,2.19.54L213,105c3.75.71,6.56.43,7.74-3,1-2.72,0-4.3-2-5.33A3.49,3.49,0,0,0,221.52,93.51Zm-5,7c-.67,2.72-5.27,1.25-6.75.87l1.2-4.82C212.44,97,217.23,97.7,216.51,100.54Zm.68-7.08c-.62,2.49-4.43,1.22-5.67.91l1.1-4.38C213.85,90.3,217.84,90.88,217.19,93.46Z"/></g><path class="cls-9" d="M377.64,103.46h.93v-1.27c2.38-.17,3.73-1.58,3.73-3.35,0-2.18-2.07-2.89-3.28-3.2l-.45-.13v-4a2.19,2.19,0,0,1,2.2,1.8h1.37c-.06-1.66-1.52-2.92-3.57-3V88.91h-.93v1.32c-1.95.2-3.41,1.44-3.41,3.22,0,1.57,1.13,2.5,2.95,3l.46.13v4.3A2.25,2.25,0,0,1,375.36,99h-1.45c.13,1.79,1.49,3,3.73,3.19Zm.93-2.55v-4h0c1.23.34,2.32.77,2.32,1.93S379.94,100.76,378.57,100.91Zm-.93-5.65c-.87-.24-2.05-.72-2.05-1.87,0-1,.8-1.74,2.05-1.9Zm10.63,6.9a3.75,3.75,0,0,0,3.89-3.91,3.71,3.71,0,0,0-3.66-3.86,3.36,3.36,0,0,0-2.86,1.54h-.1c0-2.83,1.11-4.48,2.91-4.48a2.21,2.21,0,0,1,2.23,1.82h1.39a3.52,3.52,0,0,0-3.62-3.07c-2.62,0-4.22,2.32-4.22,6.44C384.23,100.94,386.36,102.14,388.27,102.16Zm0-1.25a2.57,2.57,0,0,1-2.52-2.64,2.62,2.62,0,0,1,2.57-2.63,2.51,2.51,0,0,1,2.47,2.61A2.56,2.56,0,0,1,388.27,100.91Zm6.49,1.09h1.47l5.19-10.32V90.36H394v1.25h6v.09Zm12.25.16a3.74,3.74,0,0,0,3.84-3.86,3.69,3.69,0,0,0-3.7-3.91,3.34,3.34,0,0,0-2,.66h-.07l.41-3.44h4.86V90.36h-6l-.71,5.73,1.32.16a3.67,3.67,0,0,1,2-.59,2.55,2.55,0,0,1,2.57,2.66,2.46,2.46,0,0,1-2.48,2.59,2.14,2.14,0,0,1-2.25-1.82H403.4A3.37,3.37,0,0,0,407,102.16Zm9.9,0c2.56,0,4-2.18,4-6s-1.5-6-4-6-4.05,2.21-4.05,6S414.34,102.16,416.91,102.16Zm0-1.25c-1.7,0-2.69-1.7-2.69-4.73s1-4.75,2.69-4.75,2.68,1.73,2.68,4.75S418.6,100.91,416.91,100.91Z"/><path class="cls-13" d="M523.91,95.57h-4.39v1.27h4.39m5.85,5.16h1.47l5.18-10.32V90.36H529v1.25h6v.09Zm7.77.09a1,1,0,1,0-1-1A1,1,0,0,0,537.53,102.09Zm6.9.07c2.26,0,3.93-1.41,3.93-3.32A2.66,2.66,0,0,0,546,96.05V96a2.6,2.6,0,0,0,1.91-2.63,3.19,3.19,0,0,0-3.45-3.12c-2,0-3.68,1.24-3.75,3.07h1.36a2.15,2.15,0,0,1,2.37-1.84,1.92,1.92,0,0,1,2.11,2,2.08,2.08,0,0,1-2.34,2h-.93v1.25h.93c1.77,0,2.75.9,2.75,2.18s-1.07,2.07-2.57,2.07-2.41-.69-2.5-1.82h-1.43C540.56,100.92,542.18,102.16,544.43,102.16Zm12.19-2.34a2.26,2.26,0,1,0,4.52,0V99.2a2.17,2.17,0,0,0-2.25-2.34,2.2,2.2,0,0,0-2.27,2.34Zm-5.79-6.66a2.26,2.26,0,1,0,4.52,0v-.61a2.17,2.17,0,0,0-2.25-2.35,2.2,2.2,0,0,0-2.27,2.35Zm.43,8.84h1.29l8-11.64h-1.29Zm6.52-2.8c0-.7.32-1.36,1.11-1.36S560,98.5,560,99.2v.62c0,.7-.29,1.36-1.09,1.36s-1.11-.66-1.11-1.36ZM552,92.55c0-.71.32-1.37,1.12-1.37s1.09.66,1.09,1.37v.61c0,.7-.3,1.36-1.09,1.36S552,93.86,552,93.16Z"/><path class="cls-9" d="M639.64,103.46h.93v-1.27c2.39-.17,3.73-1.58,3.73-3.35,0-2.18-2.07-2.89-3.28-3.2l-.45-.13v-4a2.19,2.19,0,0,1,2.2,1.8h1.37c-.06-1.66-1.52-2.92-3.57-3V88.91h-.93v1.32c-1.95.2-3.41,1.44-3.41,3.22,0,1.57,1.13,2.5,2.95,3l.46.13v4.3A2.25,2.25,0,0,1,637.36,99h-1.45c.13,1.79,1.49,3,3.73,3.19Zm.93-2.55v-4h0c1.23.34,2.32.77,2.32,1.93S641.94,100.76,640.57,100.91Zm-.93-5.65c-.87-.24-2-.72-2-1.87,0-1,.8-1.74,2-1.9Zm10.7,6.9c2.25,0,3.93-1.41,3.93-3.32a2.66,2.66,0,0,0-2.34-2.79V96a2.6,2.6,0,0,0,1.91-2.63,3.19,3.19,0,0,0-3.45-3.12c-2,0-3.69,1.24-3.75,3.07H648a2.14,2.14,0,0,1,2.36-1.84,1.92,1.92,0,0,1,2.12,2,2.08,2.08,0,0,1-2.34,2h-.94v1.25h.94c1.76,0,2.75.9,2.75,2.18s-1.08,2.07-2.57,2.07-2.42-.69-2.5-1.82h-1.43C646.47,100.92,648.08,102.16,650.34,102.16Zm6-2.55h5.48V102h1.34V99.61h1.59V98.36h-1.59v-8h-1.7l-5.12,8.09Zm5.48-1.25h-4v-.09l3.87-6.11h.09Zm5.06,3.64h7.34v-1.25h-5.41v-.09l2.62-2.8c2-2.14,2.59-3.14,2.59-4.43a3.3,3.3,0,0,0-3.5-3.23,3.39,3.39,0,0,0-3.59,3.44h1.34a2.07,2.07,0,0,1,2.2-2.21,2,2,0,0,1,2.23,2c0,1.08-.63,1.87-2,3.34L666.86,101Zm13.48.16c2.57,0,4-2.18,4-6s-1.5-6-4-6-4,2.21-4,6S677.78,102.16,680.34,102.16Zm0-1.25c-1.69,0-2.68-1.7-2.68-4.73s1-4.75,2.68-4.75S683,93.16,683,96.18,682,100.91,680.34,100.91Zm6.21,1.09h7.34v-1.25h-5.41v-.09l2.61-2.8c2-2.14,2.59-3.14,2.59-4.43a3.3,3.3,0,0,0-3.5-3.23,3.4,3.4,0,0,0-3.59,3.44h1.34a2.07,2.07,0,0,1,2.21-2.21,2,2,0,0,1,2.23,2c0,1.08-.63,1.87-2,3.34L686.55,101Zm13.78-11.64h-1.41L696,92.3v1.43l2.84-1.89h.07V102h1.41Zm3.07,9.25h5.48V102h1.34V99.61h1.59V98.36h-1.59v-8h-1.71l-5.11,8.09Zm5.48-1.25h-4v-.09l3.87-6.11h.09Z"/><path class="cls-8" d="M159.89,184A19.9,19.9,0,1,1,140,164.1,19.9,19.9,0,0,1,159.89,184Z"/><path class="cls-9" d="M305.64,190.46h.93v-1.27c2.38-.17,3.73-1.58,3.73-3.35,0-2.18-2.07-2.88-3.28-3.2l-.45-.13v-4a2.19,2.19,0,0,1,2.2,1.8h1.37c-.06-1.66-1.52-2.92-3.57-3.05v-1.31h-.93v1.32c-1.95.2-3.41,1.44-3.41,3.23,0,1.56,1.13,2.5,2.95,3l.46.13v4.3a2.25,2.25,0,0,1-2.28-1.91h-1.45c.13,1.79,1.49,3,3.73,3.19Zm.93-2.55v-4h0c1.23.34,2.32.77,2.32,1.93S307.94,187.76,306.57,187.91Zm-.93-5.65c-.87-.24-2.05-.72-2.05-1.87,0-1,.8-1.74,2.05-1.9Zm10.86-4.9h-1.41l-2.91,1.94v1.43l2.84-1.89h.07V189h1.41Zm7,11.8a3.74,3.74,0,0,0,3.84-3.86,3.7,3.7,0,0,0-3.7-3.91,3.28,3.28,0,0,0-2,.66h-.07l.41-3.44h4.86v-1.25h-6.05l-.7,5.73,1.32.16a3.65,3.65,0,0,1,2-.59,2.55,2.55,0,0,1,2.57,2.66,2.46,2.46,0,0,1-2.48,2.59,2.14,2.14,0,0,1-2.25-1.82h-1.36A3.37,3.37,0,0,0,323.48,189.16Zm10,0a3.75,3.75,0,0,0,3.89-3.91,3.7,3.7,0,0,0-3.66-3.86,3.36,3.36,0,0,0-2.86,1.54h-.09c0-2.83,1.1-4.47,2.9-4.47a2.2,2.2,0,0,1,2.23,1.81h1.39a3.51,3.51,0,0,0-3.62-3.06c-2.61,0-4.22,2.31-4.22,6.43C329.4,187.94,331.53,189.14,333.44,189.16Zm0-1.25a2.58,2.58,0,0,1-2.52-2.64,2.63,2.63,0,0,1,2.57-2.63,2.51,2.51,0,0,1,2.48,2.61A2.57,2.57,0,0,1,333.44,187.91Zm6.58,1.18a1,1,0,1,0-1-1A1,1,0,0,0,340,189.09Zm6.77.07c2.32,0,3.94-1.36,4-3.25A3,3,0,0,0,348.5,183v-.07a2.6,2.6,0,0,0,1.81-2.59,3.24,3.24,0,0,0-3.52-3.09c-2,0-3.53,1.31-3.52,3.09a2.55,2.55,0,0,0,1.82,2.59V183a2.91,2.91,0,0,0-2.25,2.95C342.83,187.8,344.45,189.16,346.79,189.16Zm0-1.25c-1.59,0-2.58-.82-2.57-2.07a2.59,2.59,0,0,1,5.14,0C349.35,187.09,348.36,187.91,346.79,187.91Zm0-5.52a2,2,0,0,1-2.16-2,1.94,1.94,0,0,1,2.16-2,2,2,0,0,1,2.16,2A2,2,0,0,1,346.79,182.39Zm10.07,6.77c2.25,0,3.93-1.42,3.93-3.32a2.67,2.67,0,0,0-2.34-2.79V183a2.63,2.63,0,0,0,1.91-2.64,3.2,3.2,0,0,0-3.46-3.11c-2,0-3.68,1.23-3.75,3.06h1.36a2.15,2.15,0,0,1,2.37-1.84,1.92,1.92,0,0,1,2.11,2,2.08,2.08,0,0,1-2.34,2h-.93v1.25h.93c1.77,0,2.75.9,2.75,2.18s-1.07,2.07-2.57,2.07c-1.34,0-2.41-.69-2.5-1.82H352.9C353,187.92,354.6,189.16,356.86,189.16Z"/><path class="cls-9" d="M567.64,190.46h.93v-1.27c2.38-.17,3.72-1.58,3.72-3.35,0-2.18-2.06-2.88-3.27-3.2l-.45-.13v-4a2.19,2.19,0,0,1,2.2,1.8h1.37c-.06-1.66-1.52-2.92-3.57-3.05v-1.31h-.93v1.32c-1.95.2-3.41,1.44-3.41,3.23,0,1.56,1.13,2.5,2.95,3l.46.13v4.3a2.25,2.25,0,0,1-2.28-1.91h-1.45c.13,1.79,1.49,3,3.73,3.19Zm.93-2.55v-4h0c1.23.34,2.32.77,2.32,1.93S569.94,187.76,568.57,187.91Zm-.93-5.65c-.87-.24-2-.72-2-1.87,0-1,.8-1.74,2-1.9Zm10.86-4.9h-1.41l-2.91,1.94v1.43l2.84-1.89h.07V189h1.41Zm7.07,11.8c2.33,0,3.95-1.36,4-3.25a3,3,0,0,0-2.25-2.95v-.07a2.6,2.6,0,0,0,1.81-2.59,3.24,3.24,0,0,0-3.52-3.09c-2,0-3.53,1.31-3.52,3.09a2.55,2.55,0,0,0,1.82,2.59V183a2.91,2.91,0,0,0-2.25,2.95C581.61,187.8,583.23,189.16,585.57,189.16Zm0-1.25c-1.59,0-2.58-.82-2.57-2.07a2.59,2.59,0,0,1,5.14,0C588.13,187.09,587.15,187.91,585.57,187.91Zm0-5.52a2,2,0,0,1-2.16-2,2.17,2.17,0,0,1,4.32,0A2,2,0,0,1,585.57,182.39Zm10.22-5h-1.4l-2.91,1.94v1.43l2.84-1.89h.07V189h1.4ZM599.14,189h7.34v-1.25h-5.41v-.09l2.62-2.8c2-2.14,2.59-3.14,2.59-4.43a3.3,3.3,0,0,0-3.5-3.22,3.38,3.38,0,0,0-3.59,3.43h1.34a2.07,2.07,0,0,1,2.2-2.21,2,2,0,0,1,2.23,2c0,1.08-.63,1.87-2,3.34L599.14,188Zm13.62.16c2.26,0,3.93-1.42,3.93-3.32a2.66,2.66,0,0,0-2.34-2.79V183a2.62,2.62,0,0,0,1.91-2.64,3.19,3.19,0,0,0-3.45-3.11c-2,0-3.69,1.23-3.75,3.06h1.36a2.14,2.14,0,0,1,2.36-1.84,1.92,1.92,0,0,1,2.12,2,2.08,2.08,0,0,1-2.34,2h-.94v1.25h.94c1.76,0,2.75.9,2.75,2.18s-1.08,2.07-2.57,2.07-2.42-.69-2.5-1.82h-1.43C608.89,187.92,610.51,189.16,612.76,189.16Zm9.89,0a3.74,3.74,0,0,0,3.84-3.86,3.69,3.69,0,0,0-3.7-3.91,3.3,3.3,0,0,0-2,.66h-.07l.41-3.44H626v-1.25h-6l-.71,5.73,1.32.16a3.67,3.67,0,0,1,2-.59,2.55,2.55,0,0,1,2.57,2.66,2.46,2.46,0,0,1-2.48,2.59,2.14,2.14,0,0,1-2.25-1.82H619A3.37,3.37,0,0,0,622.65,189.16Zm9.9,0c2.56,0,4-2.18,4-6s-1.5-6-4-6-4,2.2-4,6S630,189.16,632.55,189.16Zm0-1.25c-1.7,0-2.69-1.7-2.69-4.73s1-4.75,2.69-4.75,2.68,1.73,2.68,4.75S634.24,187.91,632.55,187.91Z"/><path class="cls-9" d="M377.64,277.45h.93v-1.26c2.38-.17,3.73-1.58,3.73-3.35,0-2.18-2.07-2.89-3.28-3.2l-.45-.13v-4a2.19,2.19,0,0,1,2.2,1.8h1.37c-.06-1.66-1.52-2.92-3.57-3v-1.31h-.93v1.32c-1.95.2-3.41,1.44-3.41,3.22,0,1.57,1.13,2.5,2.95,3l.46.13v4.3a2.24,2.24,0,0,1-2.28-1.91h-1.45c.13,1.79,1.49,3,3.73,3.19Zm.93-2.54v-4h0c1.23.34,2.32.77,2.32,1.93S379.94,274.76,378.57,274.91Zm-.93-5.65c-.87-.24-2.05-.72-2.05-1.87,0-1,.8-1.74,2.05-1.9Zm10.5,6.9c2.32,0,3.94-1.36,3.95-3.25a3,3,0,0,0-2.25-3v-.06a2.6,2.6,0,0,0,1.82-2.59,3.25,3.25,0,0,0-3.52-3.1c-2.05,0-3.54,1.32-3.53,3.1a2.56,2.56,0,0,0,1.82,2.59V270a2.93,2.93,0,0,0-2.25,3C384.17,274.8,385.79,276.16,388.14,276.16Zm0-1.25c-1.6,0-2.59-.82-2.57-2.07a2.32,2.32,0,0,1,2.57-2.25,2.35,2.35,0,0,1,2.56,2.25C390.69,274.09,389.71,274.91,388.14,274.91Zm0-5.52a2,2,0,0,1-2.16-2,1.93,1.93,0,0,1,2.16-2,2,2,0,0,1,2.15,2A2,2,0,0,1,388.14,269.39Zm9.76,6.77a3.74,3.74,0,0,0,3.84-3.86,3.69,3.69,0,0,0-3.7-3.91,3.36,3.36,0,0,0-2,.66H396l.41-3.44h4.86v-1.25h-6l-.71,5.73,1.32.16a3.67,3.67,0,0,1,2-.59,2.55,2.55,0,0,1,2.57,2.66,2.46,2.46,0,0,1-2.48,2.59,2.14,2.14,0,0,1-2.25-1.82h-1.36A3.37,3.37,0,0,0,397.9,276.16Zm10,0c2.26,0,3.93-1.42,3.93-3.32a2.66,2.66,0,0,0-2.34-2.79V270a2.6,2.6,0,0,0,1.91-2.63A3.19,3.19,0,0,0,408,264.2c-2,0-3.68,1.24-3.75,3.07h1.36a2.15,2.15,0,0,1,2.37-1.84,1.92,1.92,0,0,1,2.11,2,2.08,2.08,0,0,1-2.34,2h-.93v1.25h.93c1.77,0,2.75.9,2.75,2.18s-1.08,2.07-2.57,2.07-2.41-.69-2.5-1.82H404C404.06,274.92,405.68,276.16,407.93,276.16Zm9.9,0a3.74,3.74,0,0,0,3.84-3.86,3.7,3.7,0,0,0-3.71-3.91,3.39,3.39,0,0,0-2,.66h-.07l.41-3.44h4.86v-1.25h-6l-.71,5.73,1.32.16a3.7,3.7,0,0,1,2-.59,2.55,2.55,0,0,1,2.57,2.66,2.46,2.46,0,0,1-2.47,2.59,2.13,2.13,0,0,1-2.25-1.82h-1.37A3.38,3.38,0,0,0,417.83,276.16Z"/><path class="cls-9" d="M639.64,277.45h.93v-1.26c2.39-.17,3.73-1.58,3.73-3.35,0-2.18-2.07-2.89-3.28-3.2l-.45-.13v-4a2.19,2.19,0,0,1,2.2,1.8h1.37c-.06-1.66-1.52-2.92-3.57-3v-1.31h-.93v1.32c-1.95.2-3.41,1.44-3.41,3.22,0,1.57,1.13,2.5,2.95,3l.46.13v4.3a2.24,2.24,0,0,1-2.28-1.91h-1.45c.13,1.79,1.49,3,3.73,3.19Zm.93-2.54v-4h0c1.23.34,2.32.77,2.32,1.93S641.94,274.76,640.57,274.91Zm-.93-5.65c-.87-.24-2-.72-2-1.87,0-1,.8-1.74,2-1.9Zm10.4,6.9a3.74,3.74,0,0,0,3.85-3.86,3.7,3.7,0,0,0-3.71-3.91,3.39,3.39,0,0,0-2,.66h-.07l.41-3.44h4.86v-1.25h-6l-.71,5.73,1.32.16a3.67,3.67,0,0,1,2-.59,2.55,2.55,0,0,1,2.57,2.66,2.46,2.46,0,0,1-2.48,2.59,2.14,2.14,0,0,1-2.25-1.82h-1.36A3.37,3.37,0,0,0,650,276.16Zm9.83,0c2.32,0,3.94-1.36,4-3.25a3,3,0,0,0-2.25-3v-.06a2.6,2.6,0,0,0,1.82-2.59,3.55,3.55,0,0,0-7,0,2.55,2.55,0,0,0,1.81,2.59V270a2.94,2.94,0,0,0-2.25,3C655.9,274.8,657.52,276.16,659.87,276.16Zm0-1.25c-1.6,0-2.58-.82-2.57-2.07a2.59,2.59,0,0,1,5.14,0C662.43,274.09,661.44,274.91,659.87,274.91Zm0-5.52a2,2,0,0,1-2.16-2,1.93,1.93,0,0,1,2.16-2,2,2,0,0,1,2.16,2A2,2,0,0,1,659.87,269.39ZM666,276h7.34v-1.25h-5.41v-.09l2.62-2.8c2-2.14,2.59-3.14,2.59-4.43a3.3,3.3,0,0,0-3.5-3.23,3.39,3.39,0,0,0-3.59,3.44h1.34a2.07,2.07,0,0,1,2.2-2.21,2,2,0,0,1,2.23,2c0,1.08-.63,1.87-2,3.34L666,275Zm13.48.16c2.57,0,4-2.18,4-6s-1.5-6-4-6-4,2.21-4,6S676.92,276.16,679.48,276.16Zm0-1.25c-1.69,0-2.68-1.7-2.68-4.73s1-4.75,2.68-4.75,2.69,1.73,2.69,4.75S681.18,274.91,679.48,274.91Zm10.14,1.25c2.26,0,3.93-1.42,3.93-3.32a2.66,2.66,0,0,0-2.34-2.79V270a2.6,2.6,0,0,0,1.91-2.63,3.19,3.19,0,0,0-3.45-3.12c-2,0-3.69,1.24-3.75,3.07h1.36a2.14,2.14,0,0,1,2.36-1.84,1.92,1.92,0,0,1,2.12,2,2.08,2.08,0,0,1-2.34,2h-.94v1.25h.94c1.76,0,2.75.9,2.75,2.18s-1.08,2.07-2.57,2.07-2.42-.69-2.5-1.82h-1.43C685.75,274.92,687.36,276.16,689.62,276.16Zm10-12a3.75,3.75,0,0,0-3.88,3.89,3.7,3.7,0,0,0,3.65,3.86,3.4,3.4,0,0,0,2.87-1.54h.09c0,2.86-1.11,4.5-2.91,4.5a2.19,2.19,0,0,1-2.23-1.84h-1.38a3.49,3.49,0,0,0,3.61,3.09c2.61,0,4.23-2.32,4.23-6.46S701.49,264.23,699.58,264.2Zm0,1.25a2.58,2.58,0,0,1,2.52,2.62,2.63,2.63,0,0,1-2.56,2.63,2.49,2.49,0,0,1-2.48-2.61A2.56,2.56,0,0,1,699.58,265.45Zm10-1.25a3.75,3.75,0,0,0-3.89,3.89,3.7,3.7,0,0,0,3.66,3.86,3.39,3.39,0,0,0,2.86-1.54h.09c0,2.86-1.11,4.5-2.91,4.5a2.19,2.19,0,0,1-2.22-1.84h-1.39a3.49,3.49,0,0,0,3.61,3.09c2.62,0,4.23-2.32,4.23-6.46S711.47,264.23,709.57,264.2Zm0,1.25a2.58,2.58,0,0,1,2.52,2.62,2.64,2.64,0,0,1-2.57,2.63,2.5,2.5,0,0,1-2.48-2.61A2.56,2.56,0,0,1,709.57,265.45Z"/><path class="cls-9" d="M249.41,290h6.82v-1.25h-5.41V278.36h-1.41Zm9,0h1.34v-8.73h-1.34Zm.68-10.18a.91.91,0,1,0-1-.91A.94.94,0,0,0,259.07,279.82Zm7.07,1.45h-1.86v-2.09h-1.35v2.09h-1.31v1.14h1.31v5.45a2.23,2.23,0,0,0,2.37,2.25,2.74,2.74,0,0,0,1-.16l-.27-1.2a2.85,2.85,0,0,1-.6.07c-.59,0-1.15-.18-1.15-1.32v-5.09h1.86Zm5.74,8.91a3.4,3.4,0,0,0,3.48-2.2l-1.3-.37a2.14,2.14,0,0,1-2.18,1.37,2.65,2.65,0,0,1-2.72-2.89h6.34v-.57c0-3.25-1.94-4.36-3.75-4.36-2.37,0-3.94,1.86-3.94,4.54S269.36,290.18,271.88,290.18Zm-2.72-5.25a2.61,2.61,0,0,1,2.59-2.57,2.36,2.36,0,0,1,2.38,2.57Zm12.08,5.25a3.23,3.23,0,0,0,3.43-2.73h-1.34a2,2,0,0,1-2.09,1.53c-1.59,0-2.61-1.32-2.61-3.34s1-3.28,2.61-3.28a2,2,0,0,1,2.09,1.53h1.34a3.24,3.24,0,0,0-3.45-2.73c-2.37,0-3.93,1.86-3.93,4.52S278.79,290.18,281.24,290.18Zm9.1,0c2.36,0,4-1.79,4-4.5s-1.59-4.52-4-4.52-4,1.79-4,4.52S288,290.18,290.34,290.18Zm0-1.2c-1.8,0-2.61-1.55-2.61-3.3s.81-3.32,2.61-3.32,2.61,1.57,2.61,3.32S292.13,289,290.34,289Zm6.16,1h1.34v-8.73H296.5Zm.68-10.18a.91.91,0,1,0-.95-.91A.94.94,0,0,0,297.18,279.82Zm4.62,4.93a2.16,2.16,0,0,1,2.22-2.39,1.93,1.93,0,0,1,2,2.19V290h1.35v-5.55c0-2.22-1.19-3.29-3-3.29a2.55,2.55,0,0,0-2.54,1.48h-.12v-1.37h-1.29V290h1.34Z"/><path class="cls-8" d="M249.26,266h9.32v-2.54h-6.24v-12h-3.08Zm9-12h4.46v12h3V254h4.46v-2.53H258.24Zm26.1,2.56c-.4-3.36-2.94-5.29-6.31-5.29-3.84,0-6.77,2.71-6.77,7.47s2.88,7.47,6.77,7.47a6,6,0,0,0,6.31-5.16h-3.11a3,3,0,0,1-3.15,2.45c-2.21,0-3.71-1.64-3.71-4.75s1.48-4.75,3.73-4.75a2.94,2.94,0,0,1,3.13,2.57Z"/><path class="cls-14" d="M231.89,271A19.9,19.9,0,1,1,212,251.11,19.89,19.89,0,0,1,231.89,271Z"/><path class="cls-8" d="M211.3,274.35l.89-3.36,2.12-.78.52-2v-.05l-2.08.76,1.49-5.64H210l-2,7.36-1.63.6-.54,2,1.63-.6-1.15,4.34h11.31l.72-2.7Z"/><circle class="cls-15" cx="140" cy="184" r="13.66"/><path d="M144.52,184a4.53,4.53,0,1,1-4.52-4.53,4.55,4.55,0,0,1,4.52,4.53"/><path d="M132.18,174.36a1.81,1.81,0,0,1-1.82,1.83,1.86,1.86,0,0,1-1.83-1.83,1.83,1.83,0,1,1,3.65,0"/><path class="cls-8" d="M180.07,192.28v4.86h5.62v-4.86h1.51v11.61h-1.51v-5.44h-5.62v5.44h-1.5V192.28Z"/><path class="cls-8" d="M190.46,195.56l1.83,4.92c.19.56.39,1.21.53,1.71h0c.15-.5.32-1.14.53-1.74l1.65-4.89h1.61l-2.28,5.94c-1.08,2.86-1.82,4.32-2.86,5.22a4.15,4.15,0,0,1-1.86,1l-.38-1.27a4,4,0,0,0,1.33-.74,4.66,4.66,0,0,0,1.27-1.69,1.13,1.13,0,0,0,.12-.36,1.25,1.25,0,0,0-.1-.4l-3.08-7.68Z"/><path class="cls-8" d="M205.05,191.66v10.08c0,.74,0,1.59.07,2.15h-1.36l-.07-1.44h0a3.09,3.09,0,0,1-2.85,1.63c-2,0-3.56-1.7-3.56-4.23,0-2.78,1.7-4.48,3.74-4.48a2.79,2.79,0,0,1,2.51,1.27h0v-5ZM203.54,199a2.79,2.79,0,0,0-.07-.64,2.23,2.23,0,0,0-2.19-1.75c-1.57,0-2.5,1.37-2.5,3.22,0,1.69.83,3.08,2.47,3.08a2.28,2.28,0,0,0,2.22-1.81,2.64,2.64,0,0,0,.07-.65Z"/><path class="cls-8" d="M207.57,198.16c0-1,0-1.83-.07-2.6h1.33l0,1.63H209a2.49,2.49,0,0,1,2.31-1.82,1.45,1.45,0,0,1,.43,0v1.43a2,2,0,0,0-.52,0,2.12,2.12,0,0,0-2,1.94,3.79,3.79,0,0,0-.07.71v4.44h-1.5Z"/><path class="cls-8" d="M220.58,199.66a4.07,4.07,0,0,1-4.16,4.42,4,4,0,0,1-4-4.29,4.06,4.06,0,0,1,4.13-4.42A4,4,0,0,1,220.58,199.66Zm-6.62.08c0,1.83,1,3.21,2.53,3.21s2.53-1.36,2.53-3.24c0-1.41-.7-3.21-2.49-3.21S214,198.16,214,199.74Z"/><path class="cls-8" d="M229.67,195.56c0,.6-.07,1.27-.07,2.29v4.84c0,1.91-.38,3.08-1.19,3.81a4.46,4.46,0,0,1-3,1,5.44,5.44,0,0,1-2.77-.69l.38-1.16a4.63,4.63,0,0,0,2.44.66c1.55,0,2.69-.81,2.69-2.92v-.93h0a3,3,0,0,1-2.66,1.4c-2.06,0-3.54-1.76-3.54-4.07,0-2.82,1.84-4.42,3.75-4.42a2.76,2.76,0,0,1,2.6,1.44h0l.07-1.25Zm-1.57,3.29a2.11,2.11,0,0,0-.08-.69,2.19,2.19,0,0,0-2.12-1.6c-1.45,0-2.48,1.22-2.48,3.15,0,1.63.83,3,2.46,3a2.21,2.21,0,0,0,2.1-1.55,2.57,2.57,0,0,0,.12-.81Z"/><path class="cls-8" d="M233,200a2.68,2.68,0,0,0,2.86,2.9,5.33,5.33,0,0,0,2.31-.44l.26,1.09a6.75,6.75,0,0,1-2.77.52,3.87,3.87,0,0,1-4.1-4.21c0-2.51,1.48-4.49,3.91-4.49,2.72,0,3.44,2.39,3.44,3.92a5.27,5.27,0,0,1-.05.71Zm4.45-1.08a2.17,2.17,0,0,0-2.1-2.47,2.52,2.52,0,0,0-2.33,2.47Z"/><path class="cls-8" d="M240.75,197.81c0-.86,0-1.56-.07-2.25H242l.08,1.37h0a3,3,0,0,1,2.75-1.56c1.16,0,2.95.69,2.95,3.55v5h-1.52v-4.8c0-1.35-.5-2.47-1.93-2.47a2.21,2.21,0,0,0-2.13,2.26v5h-1.52Z"/><path class="cls-8" d="M256.26,203.58a5.55,5.55,0,0,1-2.4.49,4,4,0,0,1-4.15-4.26,4.24,4.24,0,0,1,4.48-4.43,5,5,0,0,1,2.1.44L256,197a3.5,3.5,0,0,0-1.76-.4,3.14,3.14,0,0,0-.05,6.27,4.31,4.31,0,0,0,1.86-.41Z"/><path class="cls-8" d="M265.47,199.66a4.07,4.07,0,0,1-4.15,4.42,4,4,0,0,1-4-4.29,4.07,4.07,0,0,1,4.14-4.42A4,4,0,0,1,265.47,199.66Zm-6.61.08c0,1.83,1.05,3.21,2.53,3.21s2.53-1.36,2.53-3.24c0-1.41-.7-3.21-2.5-3.21S258.86,198.16,258.86,199.74Z"/><path class="cls-8" d="M269.07,193.21a.89.89,0,0,1-1,.93.9.9,0,0,1-.91-.93.91.91,0,0,1,.94-.94A.89.89,0,0,1,269.07,193.21Zm-1.68,10.68v-8.33h1.51v8.33Z"/><path class="cls-8" d="M271.42,197.81c0-.86,0-1.56-.07-2.25h1.34l.09,1.37h0a3.08,3.08,0,0,1,2.76-1.56c1.15,0,2.94.69,2.94,3.55v5H277v-4.8c0-1.35-.5-2.47-1.93-2.47a2.25,2.25,0,0,0-2.14,2.26v5h-1.51Z"/><rect class="cls-4" x="519.25" y="95.59" width="5.09" height="1.25"/></svg>