<?xml version="1.0" encoding="utf-8"?>
<!-- Generator: Adobe Illustrator 25.0.0, SVG Export Plug-In . SVG Version: 6.00 Build 0)  -->
<svg version="1.1" id="Layer_1" xmlns="http://www.w3.org/2000/svg" xmlns:xlink="http://www.w3.org/1999/xlink" x="0px" y="0px"
	 width="1220px" height="520px" viewBox="0 0 1220 520" style="enable-background:new 0 0 1220 520;" xml:space="preserve">
<style type="text/css">
	.st0{clip-path:url(#SVGID_2_);}
	.st1{fill:#93C4FF;}
	.st2{clip-path:url(#SVGID_4_);}
	.st3{fill:#636363;}
	.st4{fill:#355B7F;}
	.st5{fill:#4970DD;}
	.st6{clip-path:url(#SVGID_6_);}
	.st7{fill:#0B5B66;}
	.st8{fill:#6E6E6E;}
	.st9{fill:#4FB5C1;}
	.st10{fill:#118C8C;}
	.st11{fill:#B7B7B7;}
	.st12{fill:none;stroke:#B7B7B7;stroke-width:2;stroke-miterlimit:10;}
	.st13{fill:none;stroke:#636363;stroke-width:2;stroke-miterlimit:10;}
	.st14{fill:none;stroke:#636363;stroke-width:0.5;stroke-miterlimit:10;}
	.st15{fill:none;stroke:#636363;stroke-width:2;stroke-linejoin:round;}
	.st16{fill:none;stroke:#636363;stroke-miterlimit:10;}
	.st17{fill:#FFC105;}
	.st18{fill:#FFFFFF;}
	.st19{fill:#354454;}
</style>
<g>
	<defs>
		<path id="SVGID_1_" d="M16,0h1188c8.8,0,16,7.2,16,16v488c0,8.8-7.2,16-16,16H16c-8.8,0-16-7.2-16-16V16C0,7.2,7.2,0,16,0z"/>
	</defs>
	<clipPath id="SVGID_2_">
		<use xlink:href="#SVGID_1_"  style="overflow:visible;"/>
	</clipPath>
	<g class="st0">
		<g id="Layer_3">
			<path class="st1" d="M108.6,345.3c-2.2-3.5-4.2-6.9-8.3-6.9s-6.1,3.3-8.3,6.9s-4.5,7.4-9.2,7.4s-6.9-3.8-9.2-7.4
				s-4.2-6.9-8.3-6.9s-6.1,3.3-8.3,6.9s-4.5,7.4-9.2,7.4s-7-3.8-9.2-7.4s-4.2-6.9-8.3-6.9s-6.1,3.3-8.3,6.9s-4.5,7.4-9.2,7.4
				s-6.9-3.8-9.2-7.4c-1-1.9-2.3-3.7-3.9-5.2v72.1c0,8.3,6.7,15,15,15h99.6V352C111.9,350.8,110.2,348,108.6,345.3z"/>
		</g>
	</g>
</g>
<g>
	<defs>
		<path id="SVGID_3_" d="M16,0h1188c8.8,0,16,7.2,16,16v488c0,8.8-7.2,16-16,16H16c-8.8,0-16-7.2-16-16V16C0,7.2,7.2,0,16,0z"/>
	</defs>
	<clipPath id="SVGID_4_">
		<use xlink:href="#SVGID_3_"  style="overflow:visible;"/>
	</clipPath>
	<g class="st2">
		<g id="blades_1">
			<polygon class="st3" points="82.9,263.5 81.3,370.9 89.7,370.9 87.8,263.9 			"/>
			<polygon class="st4" points="77.3,372.6 79.9,367.2 91.4,367.2 94.1,372.1 94.1,392.1 77.3,392.1 			"/>
			<circle class="st5" cx="86" cy="255.8" r="3.9"/>
			<path class="st5" d="M91.7,252.6L125,209l-4.6-0.3l-28.5,29.9l-4.1,11.2l0,0c0.8,0.2,1.6,0.6,2.3,1.1
				C90.7,251.4,91.3,251.9,91.7,252.6z"/>
			<path class="st5" d="M87.2,262.9l20.6,49.9l1.5-6.1l-11.5-37.8l-6.3-8.6l-0.1,0.1C90.4,261.7,88.9,262.6,87.2,262.9z"/>
			<path class="st5" d="M80.1,253.1V253l-53-6.6l4.6,3.5L69,259l10.6-0.6C79.1,256.6,79.2,254.7,80.1,253.1z"/>
			<polygon class="st3" points="38.9,315.6 38,375 42.6,375 41.5,315.8 			"/>
			<polygon class="st4" points="35.7,375.9 37.2,372.9 43.6,372.9 45,375.6 45,386.7 35.7,386.7 			"/>
			<circle class="st5" cx="40.1" cy="309.9" r="2.1"/>
			<path class="st5" d="M43.7,310.4l29.2-8.3l-1.9-1.7l-22.5,3.8l-5.5,3.6l0,0c0.3,0.4,0.5,0.8,0.6,1.3
				C43.7,309.5,43.7,310,43.7,310.4z"/>
			<path class="st5" d="M38.3,313.4l-7.4,28.9l2.7-2.2l7.4-20.5v-5.9h-0.1C40,314,39.1,313.9,38.3,313.4z"/>
			<path class="st5" d="M38.4,306.8L38.4,306.8l-21.3-20.5l0.9,3.1l13.5,16.4l4.9,3.2C36.8,308,37.5,307.2,38.4,306.8z"/>
		</g>
	</g>
</g>
<g>
	<defs>
		<path id="SVGID_5_" d="M16,0h1188c8.8,0,16,5.9,16,13.1v400.9c0,7.3-7.2,13.1-16,13.1H16c-8.8,0-16-5.9-16-13.1V13.1
			C0,5.9,7.2,0,16,0z"/>
	</defs>
	<clipPath id="SVGID_6_">
		<use xlink:href="#SVGID_5_"  style="overflow:visible;"/>
	</clipPath>
	<g class="st6">
		<g id="blades_2">
			<path class="st5" d="M1085.4,239.7V354h-37.7V251.4L1085.4,239.7z M1077.2,346.7h3.6v-3.9h-3.6V346.7z M1077.2,338.5h3.6v-3.9
				h-3.6V338.5z M1077.2,330.4h3.6v-3.9h-3.6V330.4z M1077.2,322.2h3.6v-3.9h-3.6V322.2z M1077.2,314.1h3.6v-3.9h-3.6V314.1z
				 M1077.2,305.9h3.6V302h-3.6V305.9z M1077.2,297.7h3.6v-3.9h-3.6V297.7z M1075.9,282h3.5v-21h-3.5V282z M1070.6,346.7h3.6v-3.9
				h-3.6V346.7z M1070.6,338.5h3.6v-3.9h-3.6V338.5z M1070.6,330.4h3.6v-3.9h-3.6V330.4z M1070.6,322.2h3.6v-3.9h-3.6V322.2z
				 M1070.6,314.1h3.6v-3.9h-3.6V314.1z M1070.6,305.9h3.6V302h-3.6V305.9z M1070.6,297.7h3.6v-3.9h-3.6V297.7z M1068.6,282h3.5v-21
				h-3.5V282z M1061.2,282h3.5v-21h-3.5V282z M1053.8,282h3.5v-21h-3.5V282z"/>
			<path class="st7" d="M1130.1,294.9c-0.9-7.6-7.9-13.5-16.5-13.5s-15.5,5.9-16.5,13.5h-8.5v58.3h50v-58.3H1130.1z M1096.8,342.6
				h-4.4v-8.2h4.4V342.6z M1096.8,329.3h-4.4v-8.2h4.4V329.3z M1096.8,316h-4.4v-8.2h4.4V316z M1109.5,342.6h-4.4v-8.2h4.4V342.6z
				 M1109.5,329.3h-4.4v-8.2h4.4V329.3z M1109.5,316h-4.4v-8.2h4.4V316z M1122.2,342.6h-4.4v-8.2h4.4V342.6z M1122.2,329.3h-4.4
				v-8.2h4.4V329.3z M1122.2,316h-4.4v-8.2h4.4V316z M1134.8,342.6h-4.4v-8.2h4.4V342.6z M1134.8,329.3h-4.4v-8.2h4.4V329.3z
				 M1134.8,316h-4.4v-8.2h4.4V316z"/>
			<polygon class="st7" points="1037.2,222.2 1037.2,221.7 1037.2,221.7 1035.5,221.7 1035.3,222.2 1036.7,222.2 1036.7,232.8 
				1037.2,232.8 			"/>
			<polygon class="st7" points="1020.7,222.2 1020.7,221.7 1020.7,221.7 1019.4,221.7 1019.2,222.2 1020.2,222.2 1020.2,232.8 
				1020.7,232.8 			"/>
			<polygon class="st7" points="1013,223.5 1012,225.9 1015.6,223.5 			"/>
			<polygon class="st7" points="1011.2,226.4 1008.8,226.4 1007.8,228.9 1010.2,228.9 			"/>
			<polygon class="st7" points="1010,229.4 1007.6,229.4 1006.8,231.6 1009.2,231.6 			"/>
			<polygon class="st7" points="1012.4,223.5 1010,223.5 1009,225.9 1011.4,225.9 			"/>
			<polygon class="st7" points="1018.8,221.7 1019.4,221.7 1019.8,220.7 1017.2,220.7 1016.3,223 1018.9,223 1019.2,222.2 
				1018.7,222.2 			"/>
			<polygon class="st7" points="1018.8,221.7 1018.7,222.2 1019.2,222.2 1019.4,221.7 			"/>
			<polygon class="st7" points="1013.5,220.7 1011.1,220.7 1010.2,223 1012.6,223 			"/>
			<polygon class="st7" points="1015.8,223 1016.7,220.7 1014.1,220.7 1013.2,223 			"/>
			<polygon class="st7" points="1009.7,231.6 1012.3,231.6 1013.2,229.4 1010.6,229.4 			"/>
			<polygon class="st7" points="1015.6,223.5 1012,225.9 1014.6,225.9 			"/>
			<polygon class="st7" points="1016.3,229.4 1013.8,229.4 1012.8,231.6 1015.5,231.6 			"/>
			<polygon class="st7" points="1018.7,223.5 1016.1,223.5 1015.1,225.9 1017.7,225.9 			"/>
			<polygon class="st7" points="1010.8,228.9 1013.4,228.9 1014.4,226.4 1011.8,226.4 			"/>
			<polygon class="st7" points="1017.5,226.4 1014.9,226.4 1014,228.9 1016.5,228.9 			"/>
			<polygon class="st7" points="1027.3,226.4 1024.9,226.4 1023.9,228.9 1026.3,228.9 			"/>
			<polygon class="st7" points="1026.1,229.4 1023.7,229.4 1022.8,231.6 1025.2,231.6 			"/>
			<polygon class="st7" points="1028.5,223.5 1026.1,223.5 1025.1,225.9 1027.5,225.9 			"/>
			<polygon class="st7" points="1035.4,221.7 1035.5,221.7 1035.9,220.7 1033.3,220.7 1032.4,223 1035,223 1035.3,222.2 
				1035.2,222.2 			"/>
			<polygon class="st7" points="1035.4,221.7 1035.2,222.2 1035.3,222.2 1035.5,221.7 			"/>
			<polygon class="st7" points="1029.6,220.7 1027.2,220.7 1026.2,223 1028.7,223 			"/>
			<polygon class="st7" points="1031.9,223 1032.8,220.7 1030.2,220.7 1029.3,223 			"/>
			<polygon class="st7" points="1025.8,231.6 1028.4,231.6 1029.3,229.4 1026.7,229.4 			"/>
			<polygon class="st7" points="1031.7,223.5 1029.1,223.5 1028.1,225.9 1030.7,225.9 			"/>
			<polygon class="st7" points="1032.4,229.4 1029.8,229.4 1028.9,231.6 1031.6,231.6 			"/>
			<polygon class="st7" points="1034.8,223.5 1032.2,223.5 1031.2,225.9 1033.8,225.9 			"/>
			<polygon class="st7" points="1026.9,228.9 1029.5,228.9 1030.5,226.4 1027.9,226.4 			"/>
			<polygon class="st7" points="1033.6,226.4 1031,226.4 1030.1,228.9 1032.6,228.9 			"/>
			<path class="st7" d="M1041.2,236.7v-3.9h-4.1v0.4h-0.4v-0.4h-16.1v0.4h-0.5v-0.4h-16.3v3.9h-2.5V359h42.3V236.7H1041.2z
				 M1022.9,304.5h-13.4v-2.9h13.4V304.5z M1022.9,296.8h-13.4v-2.9h13.4V296.8z M1022.9,289h-13.4v-2.9h13.4V289z M1022.9,281.3
				h-13.4v-2.9h13.4V281.3z M1022.9,273.6h-13.4v-2.9h13.4V273.6z M1022.9,265.9h-13.4V263h13.4V265.9z M1022.9,258.2h-13.4v-2.9
				h13.4V258.2z M1022.9,250.5h-13.4v-2.9h13.4V250.5z M1040,304.5h-13.4v-2.9h13.4V304.5z M1040,296.8h-13.4v-2.9h13.4V296.8z
				 M1040,289h-13.4v-2.9h13.4V289z M1040,281.3h-13.4v-2.9h13.4V281.3z M1040,273.6h-13.4v-2.9h13.4V273.6z M1040,265.9h-13.4V263
				h13.4V265.9z M1040,258.2h-13.4v-2.9h13.4V258.2z M1040,250.5h-13.4v-2.9h13.4V250.5z"/>
			<rect x="1036.7" y="232.8" class="st7" width="0.4" height="0.4"/>
			<rect x="1020.2" y="232.8" class="st7" width="0.5" height="0.4"/>
			<polygon class="st8" points="1173.5,324.2 1172.2,320.3 1172.2,316.5 1172.2,313.1 1172.2,309.5 1172.2,306.1 1172.2,302.5 
				1172.2,299.1 1172.2,295.5 1172.2,292.1 1172.2,288.7 1173.5,287.1 1173.5,283 1173.3,283 1167.8,283 1162.5,283 1162.5,287.1 
				1163.8,288.7 1163.8,292.1 1163.8,295.5 1163.8,299.1 1163.8,302.5 1163.8,306.1 1163.8,309.5 1163.8,313.1 1163.8,316.5 
				1163.8,320.3 1162.5,324.2 1162.5,327.9 1160.8,327.9 1159,327.9 1159,324.2 1157.7,320.3 1157.7,316.5 1157.7,313.1 
				1157.7,309.5 1157.7,306.1 1157.7,302.5 1157.7,299.1 1157.7,295.5 1157.7,292.1 1157.7,288.7 1159,287.1 1159,283 1158.8,283 
				1153.3,283 1148,283 1148,287.1 1149.3,288.7 1149.3,292.1 1149.3,295.5 1149.3,299.1 1149.3,302.5 1149.3,306.1 1149.3,309.5 
				1149.3,313.1 1149.3,316.5 1149.3,320.3 1148,324.2 1148,327.9 1145.5,327.9 1145.5,353.6 1160.8,353.6 1176,353.6 1176,327.9 
				1173.5,327.9 			"/>
			<polygon class="st8" points="1188.2,327.9 1179.2,327.9 1179.2,353.6 1188.2,353.6 1197.2,353.6 1197.2,327.9 			"/>
			<path class="st5" d="M966,260.3v89.8h29v-80.6L966,260.3z M972.3,344.4h-2.8v-3.1h2.8V344.4z M972.3,338h-2.8v-3.1h2.8V338z
				 M972.3,331.6h-2.8v-3.1h2.8V331.6z M972.3,325.2h-2.8v-3.1h2.8V325.2z M972.3,318.8h-2.8v-3.1h2.8V318.8z M972.3,312.4h-2.8
				v-3.1h2.8V312.4z M972.3,306h-2.8v-3.1h2.8V306z M973.3,293.6h-2.7v-16.5h2.7V293.6z M977.4,344.4h-2.8v-3.1h2.8V344.4z
				 M977.4,338h-2.8v-3.1h2.8V338z M977.4,331.6h-2.8v-3.1h2.8V331.6z M977.4,325.2h-2.8v-3.1h2.8V325.2z M977.4,318.8h-2.8v-3.1
				h2.8V318.8z M977.4,312.4h-2.8v-3.1h2.8V312.4z M977.4,306h-2.8v-3.1h2.8V306z M979,293.6h-2.7v-16.5h2.7L979,293.6z
				 M984.7,293.6H982v-16.5h2.7L984.7,293.6z M990.4,293.6h-2.7v-16.5h2.7V293.6z"/>
			<rect x="111.9" y="350" class="st9" width="1108.1" height="77.2"/>
			<path class="st9" d="M210.1,327.5c-52.2,0-94.4,13.4-94.4,29.9h188.9C304.6,340.9,262.3,327.5,210.1,327.5z"/>
			<path class="st10" d="M297,363.5c0,23-8.2,27.6-18.4,27.6s-18.4-7.9-18.4-27.6s18.4-64.7,18.4-64.7S297,340.5,297,363.5z"/>
			<rect x="278.6" y="378.8" class="st10" width="3.9" height="33.5"/>
			<path class="st10" d="M473.5,321.6c0,18.5-6.6,22.2-14.8,22.2s-14.8-6.3-14.8-22.2s14.8-52,14.8-52S473.5,303.1,473.5,321.6z"/>
			<rect x="458.7" y="333.9" class="st10" width="3.1" height="26.9"/>
			<rect x="655.4" y="219.3" class="st11" width="40" height="132"/>
			<ellipse class="st11" cx="675.4" cy="219.3" rx="20" ry="12.3"/>
			<path class="st11" d="M679.8,210.6H671c-0.1,0-0.2-0.1-0.2-0.2v-5.1c0-0.1,0.1-0.2,0.2-0.2h8.8c0.1,0,0.2,0.1,0.2,0.2v5.1
				C680,210.5,679.9,210.6,679.8,210.6z"/>
			<rect x="635.2" y="231" class="st11" width="14.4" height="120.3"/>
			<circle class="st11" cx="642.3" cy="231.2" r="7.2"/>
			<path class="st11" d="M643.8,226.2h-2.9c-0.1,0-0.2-0.1-0.2-0.2v-2.9c0-0.1,0.1-0.2,0.2-0.2h2.9c0.1,0,0.2,0.1,0.2,0.2v2.9
				C644,226.1,643.9,226.2,643.8,226.2z"/>
			<rect x="616.2" y="231" class="st11" width="14.4" height="120.3"/>
			<circle class="st11" cx="623.4" cy="231.2" r="7.2"/>
			<path class="st11" d="M624.8,226.2h-2.9c-0.1,0-0.2-0.1-0.2-0.2v-2.9c0-0.1,0.1-0.2,0.2-0.2h2.9c0.1,0,0.2,0.1,0.2,0.2v2.9
				C625,226.1,624.9,226.2,624.8,226.2z"/>
			<rect x="597.2" y="231" class="st11" width="14.4" height="120.3"/>
			<circle class="st11" cx="604.4" cy="231.2" r="7.2"/>
			<path class="st11" d="M605.8,226.2h-2.9c-0.1,0-0.2-0.1-0.2-0.2v-2.9c0-0.1,0.1-0.2,0.2-0.2h2.9c0.1,0,0.2,0.1,0.2,0.2v2.9
				C606,226.1,605.9,226.2,605.8,226.2z"/>
			<circle class="st5" cx="714.3" cy="310" r="21.4"/>
			<path class="st3" d="M722.2,291.2h-15.7c-0.2,0-0.4-0.2-0.4-0.4v-3.6c0-0.2,0.2-0.4,0.4-0.4h15.7c0.2,0,0.4,0.2,0.4,0.4v3.6
				C722.6,291,722.5,291.2,722.2,291.2C722.2,291.2,722.2,291.2,722.2,291.2z"/>
			<path class="st3" d="M716.5,288h-4.2c-0.2,0-0.4-0.2-0.4-0.4V284c0-0.2,0.2-0.4,0.4-0.4h4.2c0.2,0,0.4,0.2,0.4,0.4v3.6
				C716.8,287.8,716.7,288,716.5,288z"/>
			<path class="st3" d="M628.2,351.2h9.1c0.3,0,0.5-0.2,0.5-0.4c0,0,0,0,0-0.1v-52.6c0-0.3-0.2-0.5-0.4-0.5c0,0,0,0-0.1,0h-9.1
				c-0.3,0-0.5,0.2-0.5,0.4c0,0,0,0,0,0.1v52.6C627.7,351,627.9,351.2,628.2,351.2C628.2,351.2,628.2,351.2,628.2,351.2z"/>
			<rect x="629.7" y="294.8" class="st3" width="6" height="4.4"/>
			<path class="st3" d="M637.7,294.8h-10c-0.3,0-0.5-0.2-0.5-0.4c0,0,0,0,0-0.1V293c0-0.3,0.2-0.5,0.4-0.5c0,0,0,0,0.1,0h10
				c0.3,0,0.5,0.2,0.5,0.4c0,0,0,0,0,0.1v1.4C638.2,294.6,637.9,294.8,637.7,294.8z"/>
			<path class="st3" d="M635,295.7h-4.6c-0.1,0-0.2-0.1-0.2-0.2v-4.6c0-0.1,0.1-0.2,0.2-0.2h4.6c0.1,0,0.2,0.1,0.2,0.2v4.6
				C635.2,295.6,635.2,295.7,635,295.7z"/>
			<path class="st3" d="M647.4,351.2h9.1c0.3,0,0.5-0.2,0.5-0.4c0,0,0,0,0-0.1v-52.6c0-0.3-0.2-0.5-0.4-0.5c0,0,0,0-0.1,0h-9.1
				c-0.3,0-0.5,0.2-0.5,0.4c0,0,0,0,0,0.1v52.6C646.9,351,647.1,351.2,647.4,351.2z"/>
			<rect x="649" y="294.8" class="st3" width="6" height="4.4"/>
			<path class="st3" d="M657,294.8h-10c-0.3,0-0.5-0.2-0.5-0.4c0,0,0,0,0-0.1V293c0-0.3,0.2-0.5,0.4-0.5c0,0,0,0,0.1,0h10
				c0.3,0,0.5,0.2,0.5,0.4c0,0,0,0,0,0.1v1.4C657.4,294.6,657.2,294.8,657,294.8z"/>
			<path class="st3" d="M654.3,295.7h-4.6c-0.1,0-0.2-0.1-0.2-0.2v-4.6c0-0.1,0.1-0.2,0.2-0.2h4.6c0.1,0,0.2,0.1,0.2,0.2v4.6
				C654.5,295.6,654.4,295.7,654.3,295.7z"/>
			<rect x="597.2" y="236" class="st3" width="14.4" height="2.4"/>
			<rect x="597.2" y="239.6" class="st3" width="14.4" height="2.4"/>
			<rect x="616.1" y="236" class="st3" width="14.4" height="2.4"/>
			<rect x="616.1" y="239.6" class="st3" width="14.4" height="2.4"/>
			<rect x="635.2" y="236" class="st3" width="14.4" height="2.4"/>
			<rect x="635.2" y="239.6" class="st3" width="14.4" height="2.4"/>
			<path class="st12" d="M604.4,224v-1.5c0-1.8,1.5-3.3,3.3-3.3h12.5c1.8,0,3.3,1.5,3.3,3.3v1.5"/>
			<path class="st12" d="M623.3,224v-1.5c0-1.8,1.5-3.3,3.3-3.3H639c1.8,0,3.3,1.5,3.3,3.3v1.5"/>
			<path class="st12" d="M675.4,205.9v-4.5c0-1.2-1-2.2-2.2-2.2H646c-1.8,0-3.3,1.5-3.3,3.3V224"/>
			<path class="st13" d="M714.3,285.8v-3.4c0-2.4-2-4.4-4.4-4.4h-29.2c-3,0-5.5,2.4-5.5,5.5c0,0,0,0,0,0v67.7"/>
			<line class="st13" x1="714.7" y1="310.7" x2="714.7" y2="351.7"/>
			<polyline class="st13" points="691.1,351.2 691.1,310.7 738.1,310.7 738.1,351.2 			"/>
			<polygon class="st5" points="158.2,329 158.2,316.1 146.6,316.1 144.7,329.1 			"/>
			<polygon class="st5" points="127.2,331.8 120.6,347.2 139.4,347.2 141.7,331.7 			"/>
			<polygon class="st5" points="174.5,329 172.6,316.1 160.8,316.1 160.8,329 			"/>
			<polygon class="st5" points="144.3,331.7 142.1,347.2 158.2,347.2 158.2,331.6 			"/>
			<polygon class="st5" points="190.5,328.9 185.2,316.1 175.2,316.1 177.1,329 			"/>
			<polygon class="st5" points="143.9,316.1 133.9,316.1 128.3,329.1 142.1,329.1 			"/>
			<polygon class="st5" points="179.9,347.2 197.9,347.2 191.5,331.5 177.5,331.6 			"/>
			<polygon class="st5" points="160.8,331.6 160.8,347.2 177.3,347.2 174.9,331.6 			"/>
			<rect x="158.4" y="349.6" class="st3" width="2.6" height="12.4"/>
			<polygon class="st3" points="154.1,358 165.2,358 168.3,363 150.9,363 			"/>
			<polygon class="st5" points="222.2,311.6 222.2,302.2 213.7,302.2 212.3,311.7 			"/>
			<polygon class="st5" points="199.6,313.6 194.8,324.9 208.5,324.9 210.1,313.6 			"/>
			<polygon class="st5" points="234.1,311.6 232.6,302.2 224.1,302.2 224.1,311.6 			"/>
			<polygon class="st5" points="212,313.6 210.4,324.9 222.2,324.9 222.2,313.5 			"/>
			<polygon class="st5" points="245.7,311.6 241.9,302.2 234.5,302.2 236,311.6 			"/>
			<polygon class="st5" points="211.8,302.2 204.5,302.2 200.4,311.7 210.4,311.7 			"/>
			<polygon class="st5" points="238,324.9 251.1,324.9 246.4,313.5 236.2,313.5 			"/>
			<polygon class="st5" points="224.1,313.5 224.1,324.9 236.1,324.9 234.3,313.5 			"/>
			<rect x="222.3" y="326.6" class="st3" width="1.9" height="9"/>
			<polygon class="st3" points="219.1,332.8 227.3,332.8 229.5,336.4 216.9,336.4 			"/>
			<path class="st14" d="M302.8,289.1c0,0,23,13.4,45.1,11.3c28.9-2.8,32.6-13.7,32.6-13.7"/>
			<path class="st14" d="M361.1,289.1c0,0,6.8,6.7,29,6.5c30.2-0.4,34.1-8.9,34.1-8.9"/>
			<path class="st14" d="M294,315.3c0,0,9.4,6.9,39.7,6.5c30.9-0.4,40.4-15.6,40.4-15.6"/>
			<path class="st14" d="M369.8,315.3c0,0,0.9,7.5,31.2,6c23.2-1.1,29.9-15.2,29.9-15.2"/>
			<polygon class="st15" points="313.2,378.4 325.5,276.1 331.4,264.3 338.1,275.7 353.7,378.4 333.4,358.2 			"/>
			<polygon class="st15" points="350.6,358.2 319.5,329.7 342.6,307.2 324.2,290.2 338.4,276.4 325.4,276.8 340,289.8 321.6,307.7 
				346,329.2 315.6,358.2 			"/>
			<polygon class="st15" points="302.8,289.1 325.5,276.1 323.9,289.1 			"/>
			<polygon class="st15" points="361.1,289.1 338.5,276.1 340,289.1 			"/>
			<polygon class="st15" points="369.9,315 341.9,300.5 344,314.5 			"/>
			<polygon class="st15" points="294.3,315 322.3,300.5 320.9,314.5 			"/>
			<polygon class="st15" points="388.3,353.6 397.5,276.9 401.9,268.1 407,276.6 418.6,353.6 403.5,338.5 			"/>
			<polygon class="st15" points="416.4,338.5 393,317.1 410.3,300.3 396.6,287.5 407.2,277.1 397.4,277.4 408.4,287.2 394.6,300.6 
				412.9,316.7 390.1,338.5 			"/>
			<polygon class="st15" points="380.5,286.7 397.5,276.9 396.3,286.7 			"/>
			<polygon class="st15" points="424.2,286.7 407.2,276.9 408.4,286.7 			"/>
			<polygon class="st15" points="430.8,306.1 409.8,295.2 411.4,305.7 			"/>
			<polygon class="st15" points="374.1,306.1 395.1,295.2 394,305.7 			"/>
			<path class="st4" d="M447.3,347.7h-5.8v-4c0-0.4-0.3-0.7-0.7-0.7c0,0,0,0,0,0h-5.1c-0.4,0-0.7,0.3-0.7,0.7c0,0,0,0,0,0v4h-9.2v-4
				c0-0.4-0.3-0.7-0.7-0.7c0,0,0,0,0,0H420c-0.4,0-0.7,0.3-0.7,0.7c0,0,0,0,0,0v4h-5c-0.4,0-0.7,0.3-0.7,0.7c0,0,0,0,0,0v4.7
				c0,0.4,0.3,0.7,0.7,0.7c0,0,0,0,0,0h2.3v22h-5.7v-19.3c0-0.4-0.3-0.7-0.7-0.7c0,0,0,0,0,0h-2.9v-2.5h1.5c0.4,0,0.7-0.3,0.7-0.7
				c0,0,0,0,0,0v-3.9c0-0.4-0.3-0.7-0.7-0.7c0,0,0,0,0,0h-11c-0.4,0-0.7,0.3-0.7,0.7c0,0,0,0,0,0v3.9c0,0.4,0.3,0.7,0.7,0.7
				c0,0,0,0,0,0h1.5v2.5h-2.9c-0.4,0-0.7,0.3-0.7,0.7c0,0,0,0,0,0v19.3H389v-22h3.1c0.4,0,0.7-0.3,0.7-0.7c0,0,0,0,0,0v-4.7
				c0-0.4-0.3-0.7-0.7-0.7c0,0,0,0,0,0h-5.8v-4c0-0.4-0.3-0.7-0.7-0.7c0,0,0,0,0,0h-5.1c-0.4,0-0.7,0.3-0.7,0.7c0,0,0,0,0,0v4h-9.2
				v-4c0-0.4-0.3-0.7-0.7-0.7c0,0,0,0,0,0h-5.1c-0.4,0-0.7,0.3-0.7,0.7c0,0,0,0,0,0v4h-5c-0.4,0-0.7,0.3-0.7,0.7c0,0,0,0,0,0v4.7
				c0,0.4,0.3,0.7,0.7,0.7c0,0,0,0,0,0h2.3v22h-2.3c-0.4,0-0.7,0.3-0.7,0.7c0,0,0,0,0,0v5.6c0,0.4,0.3,0.7,0.7,0.7c0,0,0,0,0,0h2.3
				v3.3h1.4v-3.3h33v8c0,0.4,0.3,0.7,0.7,0.7c0,0,0,0,0,0h13.7c0.4,0,0.7-0.3,0.7-0.7c0,0,0,0,0,0v-8h31.9v3.3h1.4v-32.3h3.1
				c0.4,0,0.7-0.3,0.7-0.7c0,0,0,0,0,0v-4.7C448,348,447.7,347.7,447.3,347.7z M428.5,375.8v-22h3.8v22H428.5z M427.1,353.8v22h-3.8
				v-22H427.1z M377.2,353.8v22h-3.8v-22H377.2z M378.5,375.8v-22h3.8v22H378.5z M371.9,353.8v22h-3.8v-22H371.9z M433.7,375.8v-22
				h3.8v22H433.7z M418,353.8h3.8v22H418L418,353.8z M387.6,375.8h-3.8v-22h3.8V375.8z M362.9,353.8h3.8v22h-3.8V353.8z
				 M442.8,375.8H439v-22h3.8L442.8,375.8z"/>
			<path class="st5" d="M586.1,322.5v12.1c0,0.1-0.1,0.3-0.2,0.3c0,0,0,0-0.1,0h-12.7c-0.1,0-0.3-0.1-0.3-0.2c0,0,0,0,0-0.1v-12.1
				c0-0.1-0.1-0.3-0.2-0.3c0,0,0,0-0.1,0h-38c-0.1,0-0.3,0.1-0.3,0.2c0,0,0,0,0,0.1v32.7c0,0.1,0.1,0.3,0.2,0.3c0,0,0,0,0.1,0h89.9
				c0.1,0,0.3-0.1,0.3-0.2c0,0,0,0,0-0.1v-32.7c0-0.1-0.1-0.3-0.2-0.3c0,0,0,0-0.1,0h-38C586.3,322.2,586.1,322.3,586.1,322.5
				C586.1,322.5,586.1,322.5,586.1,322.5z"/>
			<path class="st16" d="M572.8,335v-18.9"/>
			<path class="st16" d="M586.1,316v18.9"/>
			<path class="st16" d="M534.2,316v39.2c0,0.1,0.1,0.3,0.2,0.3c0,0,0,0,0.1,0h89.9c0.1,0,0.3-0.1,0.3-0.2c0,0,0,0,0-0.1V316"/>
			<rect x="541.3" y="316" class="st3" width="5.4" height="18.9"/>
			<rect x="612.5" y="316" class="st3" width="5.4" height="18.9"/>
			<path class="st3" d="M562.9,310.6v-12.1c0-0.3,0.2-0.5,0.4-0.5c0,0,0,0,0.1,0h32.1c0.3,0,0.5,0.2,0.5,0.4c0,0,0,0,0,0.1v12.1
				c0,0.3-0.2,0.5-0.4,0.5c0,0,0,0-0.1,0h-32.1C563.1,311.1,562.9,310.9,562.9,310.6C562.9,310.6,562.9,310.6,562.9,310.6z"/>
			<path class="st13" d="M544,317.3v-12.4c0-0.1,0.1-0.3,0.2-0.3c0,0,0,0,0.1,0h70.6c0.1,0,0.3,0.1,0.3,0.2c0,0,0,0,0,0.1v12.4"/>
			<polygon class="st17" points="578.9,299.5 581.2,299.6 579.4,303.6 582.1,303.6 576.3,309.6 578.5,305 576.4,305 			"/>
			<path class="st18" d="M568.1,305.2h-2.2V304h2.2v-2.2h1.2v2.2h2.2v1.2h-2.2v2.2h-1.2V305.2z"/>
			<path class="st18" d="M561.5,329.3c0.1,1.2-0.3,2.3-1,3.2c-1.7,1.5-4.3,1.5-6,0c-1.3-1.9-1.3-4.5,0-6.4c1.7-1.5,4.3-1.5,6,0
				C561.2,327,561.6,328.1,561.5,329.3z M555.4,329.3c0,0.7,0.1,1.5,0.5,2.1c0.4,0.5,1,0.8,1.6,0.7c1.4,0,2.1-0.9,2.1-2.8
				s-0.7-2.8-2.1-2.8c-0.6,0-1.2,0.2-1.6,0.7C555.5,327.8,555.4,328.6,555.4,329.3z"/>
			<path class="st18" d="M565.9,337.4h-3.4v-0.7l1.2-1.2c0.3-0.2,0.5-0.5,0.7-0.8c0.1-0.1,0.2-0.2,0.2-0.4c0-0.1,0.1-0.2,0.1-0.4
				s0-0.3-0.2-0.4c-0.1-0.1-0.3-0.1-0.4-0.1c-0.2,0-0.4,0-0.5,0.1c-0.2,0.1-0.4,0.3-0.6,0.4l-0.6-0.7c0.2-0.2,0.4-0.4,0.6-0.4
				s0.3-0.1,0.5-0.2s0.4-0.1,0.6-0.1c0.3,0,0.6,0.1,0.8,0.2c0.2,0.1,0.4,0.3,0.5,0.5c0.1,0.2,0.2,0.5,0.2,0.7c0,0.2,0,0.4-0.1,0.6
				c-0.1,0.2-0.2,0.4-0.4,0.6l-0.9,0.9l-0.6,0.6h2.1L565.9,337.4L565.9,337.4z"/>
			<path class="st18" d="M603.9,333.9h-1.8v-3.6h-3.3v3.6H597v-8.4h1.8v3.3h3.3v-3.3h1.8L603.9,333.9z"/>
			<path class="st18" d="M608.7,337.8h-3.4v-0.7l1.2-1.2c0.3-0.2,0.5-0.5,0.7-0.8c0.1-0.1,0.2-0.2,0.2-0.4c0-0.1,0.1-0.2,0.1-0.4
				s0-0.3-0.2-0.4c-0.1-0.1-0.3-0.1-0.4-0.1c-0.2,0-0.4,0-0.5,0.1c-0.2,0.1-0.4,0.3-0.6,0.4l-0.6-0.7c0.2-0.2,0.4-0.4,0.6-0.4
				s0.3-0.1,0.5-0.2s0.4-0.1,0.6-0.1c0.3,0,0.6,0.1,0.8,0.2c0.2,0.1,0.4,0.3,0.5,0.5c0.1,0.2,0.2,0.5,0.2,0.7c0,0.2,0,0.4-0.1,0.6
				c-0.1,0.2-0.2,0.4-0.4,0.6l-0.9,0.9l-0.6,0.6h2.1L608.7,337.8L608.7,337.8z"/>
			<path class="st18" d="M593.5,305h-4.9v-0.8h4.9V305z"/>
			<path class="st1" d="M617.2,394.8c41.7,0,75.6-12.9,75.6-28.8H541.6C541.6,381.9,575.5,394.8,617.2,394.8z"/>
			<path class="st7" d="M279,363.4c0-14-11.4-25.4-25.4-25.4c-14,0-25.4,11.4-25.4,25.4c0,13.3,10.2,24.3,23.4,25.3v21.6h3.9v-21.6
				C268.7,387.7,279,376.7,279,363.4z"/>
			<path class="st7" d="M502.2,328.3c0-12.2-10-22.1-22.2-22c-12.2,0-22.1,10-22,22.2c0,11.5,8.9,21.1,20.4,22v18.8h3.4v-18.8
				C493.3,349.5,502.2,339.9,502.2,328.3z"/>
			<path class="st10" d="M772.6,355.9c0,17.3-6.2,20.8-13.8,20.8s-13.8-5.9-13.8-20.8s13.8-48.6,13.8-48.6S772.6,338.6,772.6,355.9z
				"/>
			<rect x="758.8" y="367.3" class="st10" width="2.9" height="25.1"/>
			<path class="st10" d="M966.7,329.6c0,12.2-4.4,14.7-9.8,14.7s-9.8-4.2-9.8-14.7s9.8-34.4,9.8-34.4S966.7,317.4,966.7,329.6z"/>
			<rect x="956.9" y="337.7" class="st10" width="2" height="17.8"/>
			<path class="st7" d="M799.5,362.1c0-11.4-9.2-20.7-20.7-20.7c-11.4,0-20.7,9.2-20.7,20.7c0,10.8,8.3,19.8,19.1,20.7v17.6h3.2
				v-17.6C791.2,381.9,799.5,372.9,799.5,362.1z"/>
			<path class="st8" d="M939,347.7l-3-5.7c-0.2-0.4-0.5-1.2-0.7-1.7l-3.3-11.2c-0.2-0.5-0.6-0.9-1.2-0.9h-19.3
				c-0.5,0-0.9,0.4-0.9,0.9c0,0,0,0,0,0v23.7c0,0.6-0.3,1.1-0.6,1.6l-2.9,3.4c-0.3,0.4-0.2,0.7,0.3,0.7h1.4c0.6,0,1.1-0.3,1.5-0.7
				l4.1-5.1c0.4-0.4,0.9-0.7,1.5-0.7h10.5c0.6,0,1.1,0.3,1.4,0.8l3.4,5c0.3,0.5,0.8,0.7,1.4,0.8h2.9c0.6,0,1.1-0.3,1.6-0.6l1.3-1.1
				c0.4-0.4,0.7-0.9,0.7-1.5v-6C939.4,348.9,939.4,348.2,939,347.7z M930.3,339.5h-11.2c-0.5,0-0.9-0.4-0.9-0.9c0,0,0,0,0,0v-6
				c0-0.5,0.4-0.9,0.9-0.9l0,0h8.8c0.5,0,1,0.4,1.2,0.9l1.9,6c0.1,0.4-0.1,0.8-0.5,0.9C930.5,339.5,930.4,339.5,930.3,339.5z"/>
			<path class="st8" d="M851.7,354.5c-5,0-9,4-9,9s4,9,9,9s9-4,9-9S856.7,354.5,851.7,354.5z M851.7,367.4c-2.2,0-3.9-1.8-3.9-3.9
				c0-2.1,1.7-3.9,3.9-3.9c2.2,0,3.9,1.8,3.9,3.9C855.6,365.7,853.8,367.4,851.7,367.4z"/>
			<path class="st8" d="M824.5,354.5c-5,0-9,4-9,9s4,9,9,9s9-4,9-9S829.5,354.5,824.5,354.5z M824.5,367.4c-2.2,0-3.9-1.8-3.9-3.9
				c0-2.1,1.7-3.9,3.9-3.9c2.2,0,3.9,1.8,3.9,3.9C828.4,365.7,826.6,367.4,824.5,367.4z"/>
			<path class="st8" d="M921.4,354.5c-5,0-9,4-9,9s4,9,9,9s9-4,9-9S926.4,354.5,921.4,354.5z M921.4,367.4c-2.2,0-3.9-1.7-3.9-3.9
				s1.7-3.9,3.9-3.9c2.2,0,3.9,1.7,3.9,3.9S923.6,367.4,921.4,367.4L921.4,367.4z"/>
			<path class="st8" d="M902.2,359.7h-17.4c-0.5,0-0.9,0.4-0.9,0.9c0,0,0,0,0,0v2c0,0.5,0.4,0.9,0.9,0.9l0,0h17.4
				c0.5,0,0.9-0.4,0.9-0.9c0,0,0,0,0,0v-2C903.1,360.1,902.7,359.7,902.2,359.7L902.2,359.7z"/>
			<path class="st8" d="M938.5,359.7h-5.3c-0.5,0-0.9,0.4-0.9,0.9c0,0,0,0,0,0v0.9c0,0.5,0.4,0.9,0.9,0.9l0,0h5.3
				c0.5,0,0.9-0.4,0.9-0.9c0,0,0,0,0,0v-0.9C939.5,360.1,939,359.7,938.5,359.7z"/>
			<path class="st8" d="M804.2,350.1h-0.9c-0.5,0-0.9,0.4-0.9,0.9c0,0,0,0,0,0v6.6c0,0.5,0.4,0.9,0.9,0.9l0,0h0.9
				c0.5,0,0.9-0.4,0.9-0.9c0,0,0,0,0,0V351C805.1,350.5,804.7,350.1,804.2,350.1L804.2,350.1z"/>
			<path class="st8" d="M878.4,350.1h-70.3v7.5c0,0.5,0.4,0.9,0.9,0.9l0,0h4c0.6,0,1.1-0.3,1.4-0.7l3.6-5c0.3-0.4,0.9-0.7,1.4-0.7h9
				c0.6,0,1.1,0.3,1.5,0.7l4.4,5.1c0.4,0.4,0.9,0.7,1.5,0.7h4.9c0.6,0,1.1-0.3,1.4-0.7l3.6-5c0.3-0.4,0.9-0.7,1.4-0.7h9
				c0.6,0,1.1,0.3,1.5,0.7l4.4,5.1c0.4,0.4,0.9,0.7,1.5,0.7H903c0.6,0,1.1-0.3,1.5-0.7l3.4-3.7c0.3-0.5,0.6-1,0.6-1.6v-2.5
				L878.4,350.1L878.4,350.1z"/>
			<path class="st5" d="M899.4,348h-91.1c-5,0-9.1-4.1-9.2-9.1v-11.5c0-5.1,4.1-9.1,9.2-9.1c0,0,0,0,0,0h91.1c5,0,9.1,4.1,9.2,9.1
				v11.5C908.5,343.9,904.4,348,899.4,348z"/>
			<path class="st18" d="M814.1,334.4h-1.8v-3.6H809v3.6h-1.8V326h1.8v3.3h3.3V326h1.8V334.4z"/>
			<path class="st18" d="M818.9,338.3h-3.4v-0.7l1.2-1.2c0.3-0.2,0.5-0.5,0.7-0.8c0.1-0.1,0.2-0.2,0.2-0.4c0-0.1,0.1-0.2,0.1-0.4
				s0-0.3-0.2-0.4c-0.1-0.1-0.3-0.1-0.4-0.1c-0.2,0-0.4,0-0.5,0.1c-0.2,0.1-0.4,0.3-0.6,0.4l-0.6-0.7c0.2-0.2,0.4-0.4,0.6-0.4
				s0.3-0.1,0.5-0.2s0.4-0.1,0.6-0.1c0.3,0,0.6,0.1,0.8,0.2c0.2,0.1,0.4,0.3,0.5,0.5c0.1,0.2,0.2,0.5,0.2,0.7c0,0.2,0,0.4-0.1,0.6
				c-0.1,0.2-0.2,0.4-0.4,0.6l-0.9,0.9l-0.6,0.6h2.1L818.9,338.3L818.9,338.3z"/>
			<path class="st19" d="M1112.1,380.8l-3.1-5.9c-0.3-0.6-0.5-1.2-0.7-1.8l-3.4-11.6c-0.2-0.5-0.7-0.9-1.2-0.9h-20.1
				c-0.5,0-0.9,0.4-0.9,0.9c0,0,0,0,0,0.1v24.8c0,0.6-0.3,1.2-0.6,1.7l-3,3.5c-0.3,0.4-0.2,0.7,0.3,0.7h1.4c0.6,0,1.1-0.3,1.5-0.7
				l4.3-5.3c0.4-0.4,0.9-0.7,1.5-0.7h11c0.6,0.1,1.1,0.3,1.5,0.8l3.6,5.2c0.4,0.5,0.9,0.7,1.5,0.8h3.1c0.6,0,1.2-0.3,1.7-0.6
				l1.4-1.1c0.4-0.4,0.7-0.9,0.7-1.5v-6.3C1112.5,382.2,1112.3,381.5,1112.1,380.8z M1103,372.2h-11.7c-0.5,0-0.9-0.4-0.9-0.9
				c0,0,0,0,0-0.1V365c0-0.5,0.4-0.9,0.9-1h9.2c0.6,0,1,0.4,1.2,0.9l2,6.3C1103.8,371.8,1103.5,372.2,1103,372.2L1103,372.2z"/>
			<path class="st19" d="M1080.2,386v-31.2c0-0.5-0.4-0.9-0.9-1h-64.2c-0.6,0-1,0.4-1,1v36.4c0,0.6,0.4,1,1,1h4.2
				c0.6-0.1,1.1-0.3,1.5-0.8l3.8-5.2c0.4-0.5,0.9-0.7,1.5-0.8h9.4c0.6,0,1.2,0.3,1.6,0.7l4.6,5.4c0.4,0.4,1,0.7,1.6,0.7h31.4
				c0.6,0,1.2-0.3,1.6-0.7l3.5-3.9C1080,387.1,1080.1,386.5,1080.2,386z M1077.4,381.9h-60c-0.5,0-1-0.3-1-0.7s0.4-0.7,1-0.7h60
				c0.4-0.1,0.8,0.1,0.9,0.5c0.1,0.4-0.1,0.8-0.5,0.9C1077.6,381.9,1077.5,381.9,1077.4,381.9L1077.4,381.9z"/>
			<path class="st19" d="M1030.8,387.9c-5.2,0-9.5,4.3-9.5,9.5s4.3,9.5,9.5,9.5c5.2,0,9.4-4.1,9.4-9.3c0-0.1,0-0.1,0-0.2
				C1040.2,392.2,1036,387.9,1030.8,387.9z M1030.8,401.4c-2.2,0-4-1.8-4-4s1.8-4,4-4s4,1.8,4,4S1033,401.4,1030.8,401.4z"/>
			<path class="st19" d="M1093.7,387.9c-5.2-0.1-9.5,4.2-9.6,9.4c-0.1,5.2,4.2,9.5,9.4,9.6c5.2,0.1,9.5-4.2,9.6-9.4c0,0,0-0.1,0-0.1
				C1103.1,392.2,1099,388,1093.7,387.9C1093.8,387.9,1093.7,387.9,1093.7,387.9z M1093.7,401.4c-2.2,0-4-1.8-4-4s1.8-4,4-4
				s4,1.8,4,4S1095.9,401.4,1093.7,401.4z"/>
			<path class="st19" d="M1073.6,393.4h-18.1c-0.5,0-0.9,0.4-0.9,0.9c0,0,0,0,0,0.1v2.1c0,0.5,0.4,0.9,0.9,1h18.1
				c0.5,0,0.9-0.4,0.9-0.9c0,0,0,0,0-0.1v-2.1c0.1-0.5-0.3-0.9-0.7-1C1073.7,393.4,1073.7,393.4,1073.6,393.4z"/>
			<path class="st19" d="M1111.6,393.4h-5.5c-0.5,0-0.9,0.4-0.9,0.9c0,0,0,0,0,0.1v1c0,0.5,0.4,0.9,0.9,1h5.5c0.5,0,0.9-0.4,0.9-0.9
				c0,0,0,0,0-0.1v-1C1112.5,393.9,1112.2,393.4,1111.6,393.4C1111.6,393.4,1111.6,393.4,1111.6,393.4z"/>
			<path class="st19" d="M1012.4,383.4h-1c-0.6,0-1,0.4-1,1v6.9c0,0.6,0.4,1,1,1h1c0.6,0,1-0.4,1-1v-6.9
				C1013.4,383.9,1012.9,383.4,1012.4,383.4z"/>
			<path class="st7" d="M993.9,332.1c0-10.2-8.2-18.5-18.5-18.5c-10.2,0-18.5,8.2-18.5,18.5c0,9.7,7.4,17.8,17.1,18.5v15.7h2.8
				v-15.7C986.5,349.9,994,341.8,993.9,332.1z"/>
			<path class="st7" d="M1190.8,350.2c0-7.5-6.1-13.5-13.5-13.5s-13.5,6.1-13.5,13.5c0,7.1,5.5,12.9,12.5,13.4v11.5h2.1v-11.5
				C1185.4,363.1,1190.8,357.2,1190.8,350.2z"/>
		</g>
	</g>
</g>
</svg>
