<svg id="Layer_1" data-name="Layer 1" xmlns="http://www.w3.org/2000/svg" xmlns:xlink="http://www.w3.org/1999/xlink" width="1220" height="520" viewBox="0 0 1220 520"><defs><style>.cls-1,.cls-12,.cls-13,.cls-14,.cls-15,.cls-16{fill:none;}.cls-2{clip-path:url(#clip-path);}.cls-3{fill:#93c4ff;}.cls-4{fill:#636363;}.cls-5{fill:#355b7f;}.cls-6{fill:#4970dd;}.cls-7{fill:#0b5b66;}.cls-8{fill:#6e6e6e;}.cls-9{fill:#4fb5c1;}.cls-10{fill:#118c8c;}.cls-11{fill:#b7b7b7;}.cls-12{stroke:#b7b7b7;}.cls-12,.cls-13,.cls-14,.cls-16{stroke-miterlimit:10;}.cls-12,.cls-13,.cls-15{stroke-width:2px;}.cls-13,.cls-14,.cls-15,.cls-16{stroke:#636363;}.cls-14{stroke-width:0.5px;}.cls-15{stroke-linejoin:round;}.cls-17{fill:#ffc105;}.cls-18{fill:#fff;}.cls-19{fill:#354454;}.cls-20{font-size:18px;font-family:MyriadPro-Regular, Myriad Pro;}.cls-21{letter-spacing:0.02em;}.cls-22{letter-spacing:-0.01em;}.cls-23{letter-spacing:-0.01em;}.cls-24{letter-spacing:-0.01em;}.cls-25{letter-spacing:0.01em;}.cls-26{letter-spacing:-0.05em;}.cls-27{letter-spacing:0em;}.cls-28{letter-spacing:0em;}.cls-29{letter-spacing:-0.01em;}.cls-30{letter-spacing:0em;}.cls-31{letter-spacing:-0.01em;}.cls-32{letter-spacing:-0.01em;}.cls-33{letter-spacing:-0.02em;}.cls-34{letter-spacing:-0.04em;}.cls-35{letter-spacing:0em;}.cls-36{letter-spacing:-0.01em;}.cls-37{letter-spacing:0.02em;}.cls-38{letter-spacing:-0.01em;}.cls-39{letter-spacing:0.01em;}.cls-40{letter-spacing:0.02em;}.cls-41{letter-spacing:-0.01em;}</style><clipPath id="clip-path"><rect class="cls-1" width="1220" height="520" rx="16"/></clipPath></defs><g class="cls-2"><g id="Layer_3" data-name="Layer 3"><path class="cls-3" d="M108.6,345.3c-2.2-3.5-4.2-6.9-8.3-6.9s-6.1,3.3-8.3,6.9-4.5,7.4-9.2,7.4-6.9-3.8-9.2-7.4-4.2-6.9-8.3-6.9-6.1,3.3-8.3,6.9-4.5,7.4-9.2,7.4-7-3.8-9.2-7.4-4.2-6.9-8.3-6.9-6.1,3.3-8.3,6.9-4.5,7.4-9.2,7.4-6.9-3.8-9.2-7.4a21.42,21.42,0,0,0-3.9-5.2v87.1H114.3V352C111.9,350.8,110.2,348,108.6,345.3Z"/></g></g><g class="cls-2"><g id="blades_1" data-name="blades 1"><polygon class="cls-4" points="82.9 263.5 81.3 370.9 89.7 370.9 87.8 263.9 82.9 263.5"/><polygon class="cls-5" points="77.3 372.6 79.9 367.2 91.4 367.2 94.1 372.1 94.1 392.1 77.3 392.1 77.3 372.6"/><circle class="cls-6" cx="86" cy="255.8" r="3.9"/><path class="cls-6" d="M91.7,252.6,125,209l-4.6-.3L91.9,238.6l-4.1,11.2h0a7,7,0,0,1,2.3,1.1A6.37,6.37,0,0,1,91.7,252.6Z"/><path class="cls-6" d="M87.2,262.9l20.6,49.9,1.5-6.1L97.8,268.9l-6.3-8.6-.1.1A6.85,6.85,0,0,1,87.2,262.9Z"/><path class="cls-6" d="M80.1,253.1V253l-53-6.6,4.6,3.5L69,259l10.6-.6A7,7,0,0,1,80.1,253.1Z"/><polygon class="cls-4" points="38.9 315.6 38 375 42.6 375 41.5 315.8 38.9 315.6"/><polygon class="cls-5" points="35.7 375.9 37.2 372.9 43.6 372.9 45 375.6 45 386.7 35.7 386.7 35.7 375.9"/><circle class="cls-6" cx="40.1" cy="309.9" r="2.1"/><path class="cls-6" d="M43.7,310.4l29.2-8.3L71,300.4l-22.5,3.8L43,307.8h0a3.1,3.1,0,0,1,.6,1.3A5.7,5.7,0,0,1,43.7,310.4Z"/><path class="cls-6" d="M38.3,313.4l-7.4,28.9,2.7-2.2L41,319.6v-5.9h-.1A3,3,0,0,1,38.3,313.4Z"/><path class="cls-6" d="M38.4,306.8h0L17.1,286.3l.9,3.1,13.5,16.4,4.9,3.2A4,4,0,0,1,38.4,306.8Z"/></g></g><g class="cls-2"><g id="blades_2" data-name="blades 2"><path class="cls-6" d="M1085.4,239.7V354h-37.7V251.4Zm-8.2,107h3.6v-3.9h-3.6Zm0-8.2h3.6v-3.9h-3.6Zm0-8.1h3.6v-3.9h-3.6Zm0-8.2h3.6v-3.9h-3.6Zm0-8.1h3.6v-3.9h-3.6Zm0-8.2h3.6V302h-3.6Zm0-8.2h3.6v-3.9h-3.6Zm-1.3-15.7h3.5V261h-3.5Zm-5.3,64.7h3.6v-3.9h-3.6Zm0-8.2h3.6v-3.9h-3.6Zm0-8.1h3.6v-3.9h-3.6Zm0-8.2h3.6v-3.9h-3.6Zm0-8.1h3.6v-3.9h-3.6Zm0-8.2h3.6V302h-3.6Zm0-8.2h3.6v-3.9h-3.6Zm-2-15.7h3.5V261h-3.5Zm-7.4,0h3.5V261h-3.5Zm-7.4,0h3.5V261h-3.5Z"/><path class="cls-7" d="M1130.1,294.9c-.9-7.6-7.9-13.5-16.5-13.5s-15.5,5.9-16.5,13.5h-8.5v58.3h50V294.9Zm-33.3,47.7h-4.4v-8.2h4.4Zm0-13.3h-4.4v-8.2h4.4Zm0-13.3h-4.4v-8.2h4.4Zm12.7,26.6h-4.4v-8.2h4.4Zm0-13.3h-4.4v-8.2h4.4Zm0-13.3h-4.4v-8.2h4.4Zm12.7,26.6h-4.4v-8.2h4.4Zm0-13.3h-4.4v-8.2h4.4Zm0-13.3h-4.4v-8.2h4.4Zm12.6,26.6h-4.4v-8.2h4.4Zm0-13.3h-4.4v-8.2h4.4Zm0-13.3h-4.4v-8.2h4.4Z"/><polygon class="cls-7" points="1037.2 222.2 1037.2 221.7 1037.2 221.7 1035.5 221.7 1035.3 222.2 1036.7 222.2 1036.7 232.8 1037.2 232.8 1037.2 222.2"/><polygon class="cls-7" points="1020.7 222.2 1020.7 221.7 1020.7 221.7 1019.4 221.7 1019.2 222.2 1020.2 222.2 1020.2 232.8 1020.7 232.8 1020.7 222.2"/><polygon class="cls-7" points="1013 223.5 1012 225.9 1015.6 223.5 1013 223.5"/><polygon class="cls-7" points="1011.2 226.4 1008.8 226.4 1007.8 228.9 1010.2 228.9 1011.2 226.4"/><polygon class="cls-7" points="1010 229.4 1007.6 229.4 1006.8 231.6 1009.2 231.6 1010 229.4"/><polygon class="cls-7" points="1012.4 223.5 1010 223.5 1009 225.9 1011.4 225.9 1012.4 223.5"/><polygon class="cls-7" points="1018.8 221.7 1019.4 221.7 1019.8 220.7 1017.2 220.7 1016.3 223 1018.9 223 1019.2 222.2 1018.7 222.2 1018.8 221.7"/><polygon class="cls-7" points="1018.8 221.7 1018.7 222.2 1019.2 222.2 1019.4 221.7 1018.8 221.7"/><polygon class="cls-7" points="1013.5 220.7 1011.1 220.7 1010.2 223 1012.6 223 1013.5 220.7"/><polygon class="cls-7" points="1015.8 223 1016.7 220.7 1014.1 220.7 1013.2 223 1015.8 223"/><polygon class="cls-7" points="1009.7 231.6 1012.3 231.6 1013.2 229.4 1010.6 229.4 1009.7 231.6"/><polygon class="cls-7" points="1015.6 223.5 1012 225.9 1014.6 225.9 1015.6 223.5"/><polygon class="cls-7" points="1016.3 229.4 1013.8 229.4 1012.8 231.6 1015.5 231.6 1016.3 229.4"/><polygon class="cls-7" points="1018.7 223.5 1016.1 223.5 1015.1 225.9 1017.7 225.9 1018.7 223.5"/><polygon class="cls-7" points="1010.8 228.9 1013.4 228.9 1014.4 226.4 1011.8 226.4 1010.8 228.9"/><polygon class="cls-7" points="1017.5 226.4 1014.9 226.4 1014 228.9 1016.5 228.9 1017.5 226.4"/><polygon class="cls-7" points="1027.3 226.4 1024.9 226.4 1023.9 228.9 1026.3 228.9 1027.3 226.4"/><polygon class="cls-7" points="1026.1 229.4 1023.7 229.4 1022.8 231.6 1025.2 231.6 1026.1 229.4"/><polygon class="cls-7" points="1028.5 223.5 1026.1 223.5 1025.1 225.9 1027.5 225.9 1028.5 223.5"/><polygon class="cls-7" points="1035.4 221.7 1035.5 221.7 1035.9 220.7 1033.3 220.7 1032.4 223 1035 223 1035.3 222.2 1035.2 222.2 1035.4 221.7"/><polygon class="cls-7" points="1035.4 221.7 1035.2 222.2 1035.3 222.2 1035.5 221.7 1035.4 221.7"/><polygon class="cls-7" points="1029.6 220.7 1027.2 220.7 1026.2 223 1028.7 223 1029.6 220.7"/><polygon class="cls-7" points="1031.9 223 1032.8 220.7 1030.2 220.7 1029.3 223 1031.9 223"/><polygon class="cls-7" points="1025.8 231.6 1028.4 231.6 1029.3 229.4 1026.7 229.4 1025.8 231.6"/><polygon class="cls-7" points="1031.7 223.5 1029.1 223.5 1028.1 225.9 1030.7 225.9 1031.7 223.5"/><polygon class="cls-7" points="1032.4 229.4 1029.8 229.4 1028.9 231.6 1031.6 231.6 1032.4 229.4"/><polygon class="cls-7" points="1034.8 223.5 1032.2 223.5 1031.2 225.9 1033.8 225.9 1034.8 223.5"/><polygon class="cls-7" points="1026.9 228.9 1029.5 228.9 1030.5 226.4 1027.9 226.4 1026.9 228.9"/><polygon class="cls-7" points="1033.6 226.4 1031 226.4 1030.1 228.9 1032.6 228.9 1033.6 226.4"/><path class="cls-7" d="M1041.2,236.7v-3.9h-4.1v.4h-.4v-.4h-16.1v.4h-.5v-.4h-16.3v3.9h-2.5V359h42.3V236.7Zm-18.3,67.8h-13.4v-2.9h13.4Zm0-7.7h-13.4v-2.9h13.4Zm0-7.8h-13.4v-2.9h13.4Zm0-7.7h-13.4v-2.9h13.4Zm0-7.7h-13.4v-2.9h13.4Zm0-7.7h-13.4V263h13.4Zm0-7.7h-13.4v-2.9h13.4Zm0-7.7h-13.4v-2.9h13.4Zm17.1,54h-13.4v-2.9H1040Zm0-7.7h-13.4v-2.9H1040Zm0-7.8h-13.4v-2.9H1040Zm0-7.7h-13.4v-2.9H1040Zm0-7.7h-13.4v-2.9H1040Zm0-7.7h-13.4V263H1040Zm0-7.7h-13.4v-2.9H1040Zm0-7.7h-13.4v-2.9H1040Z"/><rect class="cls-7" x="1036.7" y="232.8" width="0.4" height="0.4"/><rect class="cls-7" x="1020.2" y="232.8" width="0.5" height="0.4"/><polygon class="cls-8" points="1173.5 324.2 1172.2 320.3 1172.2 316.5 1172.2 313.1 1172.2 309.5 1172.2 306.1 1172.2 302.5 1172.2 299.1 1172.2 295.5 1172.2 292.1 1172.2 288.7 1173.5 287.1 1173.5 283 1173.3 283 1167.8 283 1162.5 283 1162.5 287.1 1163.8 288.7 1163.8 292.1 1163.8 295.5 1163.8 299.1 1163.8 302.5 1163.8 306.1 1163.8 309.5 1163.8 313.1 1163.8 316.5 1163.8 320.3 1162.5 324.2 1162.5 327.9 1160.8 327.9 1159 327.9 1159 324.2 1157.7 320.3 1157.7 316.5 1157.7 313.1 1157.7 309.5 1157.7 306.1 1157.7 302.5 1157.7 299.1 1157.7 295.5 1157.7 292.1 1157.7 288.7 1159 287.1 1159 283 1158.8 283 1153.3 283 1148 283 1148 287.1 1149.3 288.7 1149.3 292.1 1149.3 295.5 1149.3 299.1 1149.3 302.5 1149.3 306.1 1149.3 309.5 1149.3 313.1 1149.3 316.5 1149.3 320.3 1148 324.2 1148 327.9 1145.5 327.9 1145.5 353.6 1160.8 353.6 1176 353.6 1176 327.9 1173.5 327.9 1173.5 324.2"/><polygon class="cls-8" points="1188.2 327.9 1179.2 327.9 1179.2 353.6 1188.2 353.6 1197.2 353.6 1197.2 327.9 1188.2 327.9"/><path class="cls-6" d="M966,260.3v89.8h29V269.5Zm6.3,84.1h-2.8v-3.1h2.8Zm0-6.4h-2.8v-3.1h2.8Zm0-6.4h-2.8v-3.1h2.8Zm0-6.4h-2.8v-3.1h2.8Zm0-6.4h-2.8v-3.1h2.8Zm0-6.4h-2.8v-3.1h2.8Zm0-6.4h-2.8v-3.1h2.8Zm1-12.4h-2.7V277.1h2.7Zm4.1,50.8h-2.8v-3.1h2.8Zm0-6.4h-2.8v-3.1h2.8Zm0-6.4h-2.8v-3.1h2.8Zm0-6.4h-2.8v-3.1h2.8Zm0-6.4h-2.8v-3.1h2.8Zm0-6.4h-2.8v-3.1h2.8Zm0-6.4h-2.8v-3.1h2.8Zm1.6-12.4h-2.7V277.1H979Zm5.7,0H982V277.1h2.7Zm5.7,0h-2.7V277.1h2.7Z"/><rect class="cls-9" x="111.9" y="350" width="1108.1" height="77.2"/><path class="cls-9" d="M210.1,327.5c-52.2,0-94.4,13.4-94.4,29.9H304.6C304.6,340.9,262.3,327.5,210.1,327.5Z"/><path class="cls-10" d="M297,363.5c0,23-8.2,27.6-18.4,27.6s-18.4-7.9-18.4-27.6,18.4-64.7,18.4-64.7S297,340.5,297,363.5Z"/><rect class="cls-10" x="278.6" y="378.8" width="3.9" height="33.5"/><path class="cls-10" d="M473.5,321.6c0,18.5-6.6,22.2-14.8,22.2s-14.8-6.3-14.8-22.2,14.8-52,14.8-52S473.5,303.1,473.5,321.6Z"/><rect class="cls-10" x="458.7" y="333.9" width="3.1" height="26.9"/><rect class="cls-11" x="655.4" y="219.3" width="40" height="132"/><ellipse class="cls-11" cx="675.4" cy="219.3" rx="20" ry="12.3"/><path class="cls-11" d="M679.8,210.6H671a.22.22,0,0,1-.2-.2v-5.1a.22.22,0,0,1,.2-.2h8.8a.22.22,0,0,1,.2.2v5.1A.22.22,0,0,1,679.8,210.6Z"/><rect class="cls-11" x="635.2" y="231" width="14.4" height="120.3"/><circle class="cls-11" cx="642.3" cy="231.2" r="7.2"/><path class="cls-11" d="M643.8,226.2h-2.9a.22.22,0,0,1-.2-.2v-2.9a.22.22,0,0,1,.2-.2h2.9a.22.22,0,0,1,.2.2V226A.22.22,0,0,1,643.8,226.2Z"/><rect class="cls-11" x="616.2" y="231" width="14.4" height="120.3"/><circle class="cls-11" cx="623.4" cy="231.2" r="7.2"/><path class="cls-11" d="M624.8,226.2h-2.9a.22.22,0,0,1-.2-.2v-2.9a.22.22,0,0,1,.2-.2h2.9a.22.22,0,0,1,.2.2V226A.22.22,0,0,1,624.8,226.2Z"/><rect class="cls-11" x="597.2" y="231" width="14.4" height="120.3"/><circle class="cls-11" cx="604.4" cy="231.2" r="7.2"/><path class="cls-11" d="M605.8,226.2h-2.9a.22.22,0,0,1-.2-.2v-2.9a.22.22,0,0,1,.2-.2h2.9a.22.22,0,0,1,.2.2V226A.22.22,0,0,1,605.8,226.2Z"/><circle class="cls-6" cx="714.3" cy="310" r="21.4"/><path class="cls-4" d="M722.2,291.2H706.5a.43.43,0,0,1-.4-.4v-3.6a.43.43,0,0,1,.4-.4h15.7a.43.43,0,0,1,.4.4v3.6A.37.37,0,0,1,722.2,291.2Z"/><path class="cls-4" d="M716.5,288h-4.2a.43.43,0,0,1-.4-.4V284a.43.43,0,0,1,.4-.4h4.2a.43.43,0,0,1,.4.4v3.6C716.8,287.8,716.7,288,716.5,288Z"/><path class="cls-4" d="M628.2,351.2h9.1a.47.47,0,0,0,.5-.5V298.1a.47.47,0,0,0-.5-.5h-9.1a.47.47,0,0,0-.5.5v52.6A.47.47,0,0,0,628.2,351.2Z"/><rect class="cls-4" x="629.7" y="294.8" width="6" height="4.4"/><path class="cls-4" d="M637.7,294.8h-10a.47.47,0,0,1-.5-.5V293a.47.47,0,0,1,.5-.5h10a.47.47,0,0,1,.5.5v1.4A.46.46,0,0,1,637.7,294.8Z"/><path class="cls-4" d="M635,295.7h-4.6a.22.22,0,0,1-.2-.2v-4.6a.22.22,0,0,1,.2-.2H635a.22.22,0,0,1,.2.2v4.6C635.2,295.6,635.2,295.7,635,295.7Z"/><path class="cls-4" d="M647.4,351.2h9.1a.47.47,0,0,0,.5-.5V298.1a.47.47,0,0,0-.5-.5h-9.1a.47.47,0,0,0-.5.5v52.6A.54.54,0,0,0,647.4,351.2Z"/><rect class="cls-4" x="649" y="294.8" width="6" height="4.4"/><path class="cls-4" d="M657,294.8H647a.47.47,0,0,1-.5-.5V293a.47.47,0,0,1,.5-.5h10a.47.47,0,0,1,.5.5v1.4A.66.66,0,0,1,657,294.8Z"/><path class="cls-4" d="M654.3,295.7h-4.6a.22.22,0,0,1-.2-.2v-4.6a.22.22,0,0,1,.2-.2h4.6a.22.22,0,0,1,.2.2v4.6A.22.22,0,0,1,654.3,295.7Z"/><rect class="cls-4" x="597.2" y="236" width="14.4" height="2.4"/><rect class="cls-4" x="597.2" y="239.6" width="14.4" height="2.4"/><rect class="cls-4" x="616.1" y="236" width="14.4" height="2.4"/><rect class="cls-4" x="616.1" y="239.6" width="14.4" height="2.4"/><rect class="cls-4" x="635.2" y="236" width="14.4" height="2.4"/><rect class="cls-4" x="635.2" y="239.6" width="14.4" height="2.4"/><path class="cls-12" d="M604.4,224v-1.5a3.33,3.33,0,0,1,3.3-3.3h12.5a3.33,3.33,0,0,1,3.3,3.3V224"/><path class="cls-12" d="M623.3,224v-1.5a3.33,3.33,0,0,1,3.3-3.3H639a3.33,3.33,0,0,1,3.3,3.3V224"/><path class="cls-12" d="M675.4,205.9v-4.5a2.22,2.22,0,0,0-2.2-2.2H646a3.33,3.33,0,0,0-3.3,3.3V224"/><path class="cls-13" d="M714.3,285.8v-3.4a4.44,4.44,0,0,0-4.4-4.4H680.7a5.48,5.48,0,0,0-5.5,5.5v67.7"/><line class="cls-13" x1="714.7" y1="310.7" x2="714.7" y2="351.7"/><polyline class="cls-13" points="691.1 351.2 691.1 310.7 738.1 310.7 738.1 351.2"/><polygon class="cls-6" points="158.2 329 158.2 316.1 146.6 316.1 144.7 329.1 158.2 329"/><polygon class="cls-6" points="127.2 331.8 120.6 347.2 139.4 347.2 141.7 331.7 127.2 331.8"/><polygon class="cls-6" points="174.5 329 172.6 316.1 160.8 316.1 160.8 329 174.5 329"/><polygon class="cls-6" points="144.3 331.7 142.1 347.2 158.2 347.2 158.2 331.6 144.3 331.7"/><polygon class="cls-6" points="190.5 328.9 185.2 316.1 175.2 316.1 177.1 329 190.5 328.9"/><polygon class="cls-6" points="143.9 316.1 133.9 316.1 128.3 329.1 142.1 329.1 143.9 316.1"/><polygon class="cls-6" points="179.9 347.2 197.9 347.2 191.5 331.5 177.5 331.6 179.9 347.2"/><polygon class="cls-6" points="160.8 331.6 160.8 347.2 177.3 347.2 174.9 331.6 160.8 331.6"/><rect class="cls-4" x="158.4" y="349.6" width="2.6" height="12.4"/><polygon class="cls-4" points="154.1 358 165.2 358 168.3 363 150.9 363 154.1 358"/><polygon class="cls-6" points="222.2 311.6 222.2 302.2 213.7 302.2 212.3 311.7 222.2 311.6"/><polygon class="cls-6" points="199.6 313.6 194.8 324.9 208.5 324.9 210.1 313.6 199.6 313.6"/><polygon class="cls-6" points="234.1 311.6 232.6 302.2 224.1 302.2 224.1 311.6 234.1 311.6"/><polygon class="cls-6" points="212 313.6 210.4 324.9 222.2 324.9 222.2 313.5 212 313.6"/><polygon class="cls-6" points="245.7 311.6 241.9 302.2 234.5 302.2 236 311.6 245.7 311.6"/><polygon class="cls-6" points="211.8 302.2 204.5 302.2 200.4 311.7 210.4 311.7 211.8 302.2"/><polygon class="cls-6" points="238 324.9 251.1 324.9 246.4 313.5 236.2 313.5 238 324.9"/><polygon class="cls-6" points="224.1 313.5 224.1 324.9 236.1 324.9 234.3 313.5 224.1 313.5"/><rect class="cls-4" x="222.3" y="326.6" width="1.9" height="9"/><polygon class="cls-4" points="219.1 332.8 227.3 332.8 229.5 336.4 216.9 336.4 219.1 332.8"/><path class="cls-14" d="M302.8,289.1s23,13.4,45.1,11.3c28.9-2.8,32.6-13.7,32.6-13.7"/><path class="cls-14" d="M361.1,289.1s6.8,6.7,29,6.5c30.2-.4,34.1-8.9,34.1-8.9"/><path class="cls-14" d="M294,315.3s9.4,6.9,39.7,6.5c30.9-.4,40.4-15.6,40.4-15.6"/><path class="cls-14" d="M369.8,315.3s.9,7.5,31.2,6c23.2-1.1,29.9-15.2,29.9-15.2"/><polygon class="cls-15" points="313.2 378.4 325.5 276.1 331.4 264.3 338.1 275.7 353.7 378.4 333.4 358.2 313.2 378.4"/><polygon class="cls-15" points="350.6 358.2 319.5 329.7 342.6 307.2 324.2 290.2 338.4 276.4 325.4 276.8 340 289.8 321.6 307.7 346 329.2 315.6 358.2 350.6 358.2"/><polygon class="cls-15" points="302.8 289.1 325.5 276.1 323.9 289.1 302.8 289.1"/><polygon class="cls-15" points="361.1 289.1 338.5 276.1 340 289.1 361.1 289.1"/><polygon class="cls-15" points="369.9 315 341.9 300.5 344 314.5 369.9 315"/><polygon class="cls-15" points="294.3 315 322.3 300.5 320.9 314.5 294.3 315"/><polygon class="cls-15" points="388.3 353.6 397.5 276.9 401.9 268.1 407 276.6 418.6 353.6 403.5 338.5 388.3 353.6"/><polygon class="cls-15" points="416.4 338.5 393 317.1 410.3 300.3 396.6 287.5 407.2 277.1 397.4 277.4 408.4 287.2 394.6 300.6 412.9 316.7 390.1 338.5 416.4 338.5"/><polygon class="cls-15" points="380.5 286.7 397.5 276.9 396.3 286.7 380.5 286.7"/><polygon class="cls-15" points="424.2 286.7 407.2 276.9 408.4 286.7 424.2 286.7"/><polygon class="cls-15" points="430.8 306.1 409.8 295.2 411.4 305.7 430.8 306.1"/><polygon class="cls-15" points="374.1 306.1 395.1 295.2 394 305.7 374.1 306.1"/><path class="cls-5" d="M447.3,347.7h-5.8v-4a.68.68,0,0,0-.7-.7h-5.1a.68.68,0,0,0-.7.7v4h-9.2v-4a.68.68,0,0,0-.7-.7H420a.68.68,0,0,0-.7.7v4h-5a.68.68,0,0,0-.7.7v4.7a.68.68,0,0,0,.7.7h2.3v22h-5.7V356.5a.68.68,0,0,0-.7-.7h-2.9v-2.5h1.5a.68.68,0,0,0,.7-.7v-3.9a.68.68,0,0,0-.7-.7h-11a.68.68,0,0,0-.7.7v3.9a.68.68,0,0,0,.7.7h1.5v2.5h-2.9a.68.68,0,0,0-.7.7v19.3H389v-22h3.1a.68.68,0,0,0,.7-.7v-4.7a.68.68,0,0,0-.7-.7h-5.8v-4a.68.68,0,0,0-.7-.7h-5.1a.68.68,0,0,0-.7.7v4h-9.2v-4a.68.68,0,0,0-.7-.7h-5.1a.68.68,0,0,0-.7.7v4h-5a.68.68,0,0,0-.7.7v4.7a.68.68,0,0,0,.7.7h2.3v22h-2.3a.68.68,0,0,0-.7.7v5.6a.68.68,0,0,0,.7.7h2.3v3.3h1.4v-3.3h33v8a.68.68,0,0,0,.7.7h13.7a.68.68,0,0,0,.7-.7v-8h31.9v3.3h1.4V353.8h3.1a.68.68,0,0,0,.7-.7v-4.7A.75.75,0,0,0,447.3,347.7Zm-18.8,28.1v-22h3.8v22Zm-1.4-22v22h-3.8v-22Zm-49.9,0v22h-3.8v-22Zm1.3,22v-22h3.8v22Zm-6.6-22v22h-3.8v-22Zm61.8,22v-22h3.8v22Zm-15.7-22h3.8v22H418Zm-30.4,22h-3.8v-22h3.8Zm-24.7-22h3.8v22h-3.8Zm79.9,22H439v-22h3.8Z"/><path class="cls-6" d="M586.1,322.5v12.1a.27.27,0,0,1-.3.3H573.1a.27.27,0,0,1-.3-.3V322.5a.27.27,0,0,0-.3-.3h-38a.27.27,0,0,0-.3.3v32.7a.27.27,0,0,0,.3.3h89.9a.27.27,0,0,0,.3-.3V322.5a.27.27,0,0,0-.3-.3h-38A.27.27,0,0,0,586.1,322.5Z"/><path class="cls-16" d="M572.8,335V316.1"/><path class="cls-16" d="M586.1,316v18.9"/><path class="cls-16" d="M534.2,316v39.2a.27.27,0,0,0,.3.3h89.9a.27.27,0,0,0,.3-.3V316"/><rect class="cls-4" x="541.3" y="316" width="5.4" height="18.9"/><rect class="cls-4" x="612.5" y="316" width="5.4" height="18.9"/><path class="cls-4" d="M562.9,310.6V298.5a.47.47,0,0,1,.5-.5h32.1a.47.47,0,0,1,.5.5v12.1a.47.47,0,0,1-.5.5H563.4A.47.47,0,0,1,562.9,310.6Z"/><path class="cls-13" d="M544,317.3V304.9a.27.27,0,0,1,.3-.3h70.6a.27.27,0,0,1,.3.3v12.4"/><polygon class="cls-17" points="578.9 299.5 581.2 299.6 579.4 303.6 582.1 303.6 576.3 309.6 578.5 305 576.4 305 578.9 299.5"/><path class="cls-18" d="M568.1,305.2h-2.2V304h2.2v-2.2h1.2V304h2.2v1.2h-2.2v2.2h-1.2Z"/><path class="cls-18" d="M561.5,329.3a4.4,4.4,0,0,1-1,3.2,4.64,4.64,0,0,1-6,0,5.62,5.62,0,0,1,0-6.4,4.64,4.64,0,0,1,6,0A4.4,4.4,0,0,1,561.5,329.3Zm-6.1,0a4.06,4.06,0,0,0,.5,2.1,1.75,1.75,0,0,0,1.6.7c1.4,0,2.1-.9,2.1-2.8s-.7-2.8-2.1-2.8a1.86,1.86,0,0,0-1.6.7A4.06,4.06,0,0,0,555.4,329.3Z"/><path class="cls-18" d="M565.9,337.4h-3.4v-.7l1.2-1.2a3.78,3.78,0,0,0,.7-.8.76.76,0,0,0,.2-.4c0-.1.1-.2.1-.4s0-.3-.2-.4a.6.6,0,0,0-.4-.1.75.75,0,0,0-.5.1,6.13,6.13,0,0,0-.6.4l-.6-.7c.2-.2.4-.4.6-.4s.3-.1.5-.2.4-.1.6-.1a1.88,1.88,0,0,1,.8.2,1.21,1.21,0,0,1,.5.5,1.45,1.45,0,0,1,.2.7,1.27,1.27,0,0,1-.1.6,2.09,2.09,0,0,1-.4.6l-.9.9-.6.6h2.1l.2.8Z"/><path class="cls-18" d="M603.9,333.9h-1.8v-3.6h-3.3v3.6H597v-8.4h1.8v3.3h3.3v-3.3h1.8Z"/><path class="cls-18" d="M608.7,337.8h-3.4v-.7l1.2-1.2a3.78,3.78,0,0,0,.7-.8.76.76,0,0,0,.2-.4c0-.1.1-.2.1-.4s0-.3-.2-.4a.6.6,0,0,0-.4-.1.75.75,0,0,0-.5.1,6.13,6.13,0,0,0-.6.4l-.6-.7c.2-.2.4-.4.6-.4s.3-.1.5-.2.4-.1.6-.1a1.88,1.88,0,0,1,.8.2,1.21,1.21,0,0,1,.5.5,1.45,1.45,0,0,1,.2.7,1.27,1.27,0,0,1-.1.6,2.09,2.09,0,0,1-.4.6l-.9.9-.6.6h2.1l.2.8Z"/><path class="cls-18" d="M593.5,305h-4.9v-.8h4.9Z"/><path class="cls-3" d="M617.2,394.8c41.7,0,75.6-12.9,75.6-28.8H541.6C541.6,381.9,575.5,394.8,617.2,394.8Z"/><path class="cls-7" d="M279,363.4a25.4,25.4,0,1,0-27.4,25.3v21.6h3.9V388.7A25.42,25.42,0,0,0,279,363.4Z"/><path class="cls-7" d="M502.2,328.3a22.1,22.1,0,1,0-23.8,22.1v18.8h3.4V350.4A22.15,22.15,0,0,0,502.2,328.3Z"/><path class="cls-10" d="M772.6,355.9c0,17.3-6.2,20.8-13.8,20.8S745,370.8,745,355.9s13.8-48.6,13.8-48.6S772.6,338.6,772.6,355.9Z"/><rect class="cls-10" x="758.8" y="367.3" width="2.9" height="25.1"/><path class="cls-10" d="M966.7,329.6c0,12.2-4.4,14.7-9.8,14.7s-9.8-4.2-9.8-14.7,9.8-34.4,9.8-34.4S966.7,317.4,966.7,329.6Z"/><rect class="cls-10" x="956.9" y="337.7" width="2" height="17.8"/><path class="cls-7" d="M799.5,362.1a20.7,20.7,0,1,0-22.3,20.6v17.6h3.2V382.7A20.57,20.57,0,0,0,799.5,362.1Z"/><path class="cls-8" d="M939,347.7l-3-5.7c-.2-.4-.5-1.2-.7-1.7L932,329.1a1.29,1.29,0,0,0-1.2-.9H911.5a.9.9,0,0,0-.9.9v23.7a3.14,3.14,0,0,1-.6,1.6l-2.9,3.4c-.3.4-.2.7.3.7h1.4a2.13,2.13,0,0,0,1.5-.7l4.1-5.1a2.13,2.13,0,0,1,1.5-.7h10.5a1.72,1.72,0,0,1,1.4.8l3.4,5a2,2,0,0,0,1.4.8h2.9a3.14,3.14,0,0,0,1.6-.6l1.3-1.1a2.13,2.13,0,0,0,.7-1.5v-6A1.5,1.5,0,0,0,939,347.7Zm-8.7-8.2H919.1a.9.9,0,0,1-.9-.9v-6a.9.9,0,0,1,.9-.9h8.8a1.4,1.4,0,0,1,1.2.9l1.9,6A.7.7,0,0,1,930.3,339.5Z"/><path class="cls-8" d="M851.7,354.5a9,9,0,1,0,9,9A9,9,0,0,0,851.7,354.5Zm0,12.9a3.9,3.9,0,0,1,0-7.8,3.9,3.9,0,0,1,0,7.8Z"/><path class="cls-8" d="M824.5,354.5a9,9,0,1,0,9,9A9,9,0,0,0,824.5,354.5Zm0,12.9a3.9,3.9,0,0,1,0-7.8,3.9,3.9,0,0,1,0,7.8Z"/><path class="cls-8" d="M921.4,354.5a9,9,0,1,0,9,9A9,9,0,0,0,921.4,354.5Zm0,12.9a3.9,3.9,0,1,1,3.9-3.9A3.9,3.9,0,0,1,921.4,367.4Z"/><path class="cls-8" d="M902.2,359.7H884.8a.9.9,0,0,0-.9.9v2a.9.9,0,0,0,.9.9h17.4a.9.9,0,0,0,.9-.9v-2A.9.9,0,0,0,902.2,359.7Z"/><path class="cls-8" d="M938.5,359.7h-5.3a.9.9,0,0,0-.9.9v.9a.9.9,0,0,0,.9.9h5.3a.9.9,0,0,0,.9-.9v-.9C939.5,360.1,939,359.7,938.5,359.7Z"/><path class="cls-8" d="M804.2,350.1h-.9a.9.9,0,0,0-.9.9v6.6a.9.9,0,0,0,.9.9h.9a.9.9,0,0,0,.9-.9V351A.9.9,0,0,0,804.2,350.1Z"/><path class="cls-8" d="M878.4,350.1H808.1v7.5a.9.9,0,0,0,.9.9h4a1.75,1.75,0,0,0,1.4-.7l3.6-5a1.91,1.91,0,0,1,1.4-.7h9a2.13,2.13,0,0,1,1.5.7l4.4,5.1a2.13,2.13,0,0,0,1.5.7h4.9a1.75,1.75,0,0,0,1.4-.7l3.6-5a1.91,1.91,0,0,1,1.4-.7h9a2.13,2.13,0,0,1,1.5.7L862,358a2.13,2.13,0,0,0,1.5.7H903a2.13,2.13,0,0,0,1.5-.7l3.4-3.7a3.14,3.14,0,0,0,.6-1.6v-2.5l-30.1-.1Z"/><path class="cls-6" d="M899.4,348H808.3a9.22,9.22,0,0,1-9.2-9.1V327.4a9.15,9.15,0,0,1,9.2-9.1h91.1a9.22,9.22,0,0,1,9.2,9.1v11.5A9.29,9.29,0,0,1,899.4,348Z"/><path class="cls-18" d="M814.1,334.4h-1.8v-3.6H809v3.6h-1.8V326H809v3.3h3.3V326h1.8Z"/><path class="cls-18" d="M818.9,338.3h-3.4v-.7l1.2-1.2a3.78,3.78,0,0,0,.7-.8.76.76,0,0,0,.2-.4c0-.1.1-.2.1-.4s0-.3-.2-.4a.6.6,0,0,0-.4-.1.75.75,0,0,0-.5.1,6.13,6.13,0,0,0-.6.4l-.6-.7c.2-.2.4-.4.6-.4s.3-.1.5-.2.4-.1.6-.1a1.88,1.88,0,0,1,.8.2,1.21,1.21,0,0,1,.5.5,1.45,1.45,0,0,1,.2.7,1.27,1.27,0,0,1-.1.6,2.09,2.09,0,0,1-.4.6l-.9.9-.6.6h2.1l.2.8Z"/><path class="cls-19" d="M1112.1,380.8l-3.1-5.9a9.62,9.62,0,0,1-.7-1.8l-3.4-11.6a1.4,1.4,0,0,0-1.2-.9h-20.1a.92.92,0,0,0-.9,1v24.8a3.49,3.49,0,0,1-.6,1.7l-3,3.5c-.3.4-.2.7.3.7h1.4a2.13,2.13,0,0,0,1.5-.7l4.3-5.3a2.13,2.13,0,0,1,1.5-.7h11a2.24,2.24,0,0,1,1.5.8l3.6,5.2a2.24,2.24,0,0,0,1.5.8h3.1a3.49,3.49,0,0,0,1.7-.6l1.4-1.1a2.13,2.13,0,0,0,.7-1.5v-6.3A9.27,9.27,0,0,0,1112.1,380.8Zm-9.1-8.6h-11.7a.92.92,0,0,1-.9-1V365a1,1,0,0,1,.9-1h9.2a1.29,1.29,0,0,1,1.2.9l2,6.3C1103.8,371.8,1103.5,372.2,1103,372.2Z"/><path class="cls-19" d="M1080.2,386V354.8a1,1,0,0,0-.9-1h-64.2a1,1,0,0,0-1,1v36.4a1,1,0,0,0,1,1h4.2a2.24,2.24,0,0,0,1.5-.8l3.8-5.2a2.24,2.24,0,0,1,1.5-.8h9.4a2.57,2.57,0,0,1,1.6.7l4.6,5.4a2.18,2.18,0,0,0,1.6.7h31.4a2.57,2.57,0,0,0,1.6-.7l3.5-3.9A6.22,6.22,0,0,0,1080.2,386Zm-2.8-4.1h-60c-.5,0-1-.3-1-.7s.4-.7,1-.7h60a.72.72,0,1,1,0,1.4Z"/><path class="cls-19" d="M1030.8,387.9a9.5,9.5,0,0,0,0,19,9.35,9.35,0,0,0,9.4-9.5A9.47,9.47,0,0,0,1030.8,387.9Zm0,13.5a4,4,0,1,1,4-4A4,4,0,0,1,1030.8,401.4Z"/><path class="cls-19" d="M1093.7,387.9a9.5,9.5,0,1,0,9.4,9.5A9.41,9.41,0,0,0,1093.7,387.9Zm0,13.5a4,4,0,1,1,4-4A4,4,0,0,1,1093.7,401.4Z"/><path class="cls-19" d="M1073.6,393.4h-18.1a.92.92,0,0,0-.9,1v2.1a1,1,0,0,0,.9,1h18.1a.92.92,0,0,0,.9-1v-2.1A.87.87,0,0,0,1073.6,393.4Z"/><path class="cls-19" d="M1111.6,393.4h-5.5a.92.92,0,0,0-.9,1v1a1,1,0,0,0,.9,1h5.5a.92.92,0,0,0,.9-1v-1A.92.92,0,0,0,1111.6,393.4Z"/><path class="cls-19" d="M1012.4,383.4h-1a1,1,0,0,0-1,1v6.9a1,1,0,0,0,1,1h1a1,1,0,0,0,1-1v-6.9A1.07,1.07,0,0,0,1012.4,383.4Z"/><path class="cls-7" d="M993.9,332.1A18.5,18.5,0,1,0,974,350.5v15.7h2.8V350.5A18.31,18.31,0,0,0,993.9,332.1Z"/><path class="cls-7" d="M1190.8,350.2a13.5,13.5,0,1,0-14.5,13.5v11.5h2.1V363.7A13.59,13.59,0,0,0,1190.8,350.2Z"/></g></g><text class="cls-20" transform="translate(293.92 66.71)">2. <tspan class="cls-21" x="16.78" y="0">I</tspan><tspan x="21.36" y="0">t supplies p</tspan><tspan class="cls-22" x="107.33" y="0">o</tspan><tspan class="cls-23" x="117.09" y="0">w</tspan><tspan x="130.16" y="0">er </tspan><tspan class="cls-24" x="148.88" y="0">t</tspan><tspan x="154.73" y="0">o </tspan><tspan x="0" y="21.6">ele</tspan><tspan class="cls-25" x="22.28" y="21.6">c</tspan><tspan x="30.58" y="21.6">t</tspan><tspan class="cls-23" x="36.54" y="21.6">r</tspan><tspan x="42.25" y="21.6">ol</tspan><tspan class="cls-24" x="56.38" y="21.6">y</tspan><tspan x="64.75" y="21.6">se</tspan><tspan class="cls-26" x="80.89" y="21.6">r</tspan><tspan x="85.82" y="21.6">.</tspan></text><text class="cls-20" transform="translate(45.44 65.44)">1. <tspan class="cls-27" x="16.78" y="0">R</tspan><tspan x="26.53" y="0">ene</tspan><tspan class="cls-28" x="54.56" y="0">w</tspan><tspan x="67.73" y="0">able ene</tspan><tspan class="cls-29" x="131.76" y="0">r</tspan><tspan x="137.5" y="0">gy is </tspan><tspan x="0" y="21.6">gene</tspan><tspan class="cls-30" x="38.09" y="21.6">r</tspan><tspan class="cls-28" x="43.88" y="21.6">a</tspan><tspan class="cls-24" x="52.49" y="21.6">t</tspan><tspan x="58.34" y="21.6">ed f</tspan><tspan class="cls-23" x="86.58" y="21.6">r</tspan><tspan x="92.29" y="21.6">om win</tspan><tspan class="cls-31" x="148.44" y="21.6">d</tspan><tspan x="158.42" y="21.6">, </tspan><tspan x="0" y="43.2">solar or </tspan><tspan class="cls-32" x="59.22" y="43.2">h</tspan><tspan class="cls-31" x="68.97" y="43.2">y</tspan><tspan x="77.27" y="43.2">d</tspan><tspan class="cls-23" x="87.42" y="43.2">r</tspan><tspan class="cls-33" x="93.13" y="43.2">o</tspan><tspan x="102.58" y="43.2">.</tspan></text><text class="cls-20" transform="translate(532.57 65.44)">3.<tspan class="cls-34" x="12.96" y="0"> </tspan><tspan class="cls-22" x="16.04" y="0">T</tspan><tspan class="cls-35" x="24.86" y="0">he ele</tspan><tspan class="cls-25" x="69.97" y="0">c</tspan><tspan x="78.26" y="0">t</tspan><tspan class="cls-31" x="84.22" y="0">r</tspan><tspan x="89.93" y="0">ol</tspan><tspan class="cls-24" x="104.06" y="0">y</tspan><tspan x="112.43" y="0">ser splits </tspan><tspan class="cls-28" x="0" y="21.6">wa</tspan><tspan class="cls-24" x="21.78" y="21.6">t</tspan><tspan x="27.63" y="21.6">er i</tspan><tspan class="cls-28" x="50.56" y="21.6">n</tspan><tspan class="cls-24" x="60.48" y="21.6">t</tspan><tspan x="66.33" y="21.6">o </tspan><tspan class="cls-32" x="80.03" y="21.6">h</tspan><tspan class="cls-31" x="89.78" y="21.6">y</tspan><tspan x="98.08" y="21.6">d</tspan><tspan class="cls-23" x="108.23" y="21.6">r</tspan><tspan x="113.94" y="21.6">ogen and </tspan><tspan class="cls-36" x="0" y="43.2">o</tspan><tspan class="cls-37" x="9.63" y="43.2">x</tspan><tspan class="cls-31" x="18.23" y="43.2">y</tspan><tspan x="26.53" y="43.2">gen.</tspan><tspan class="cls-34" x="59.33" y="43.2"> </tspan><tspan class="cls-38" x="62.41" y="43.2">T</tspan><tspan x="71.23" y="43.2">he </tspan><tspan class="cls-32" x="94.05" y="43.2">h</tspan><tspan class="cls-31" x="103.81" y="43.2">y</tspan><tspan x="112.1" y="43.2">d</tspan><tspan class="cls-31" x="122.26" y="43.2">r</tspan><tspan x="127.96" y="43.2">ogen is </tspan><tspan x="0" y="64.8">s</tspan><tspan class="cls-24" x="7.13" y="64.8">t</tspan><tspan x="12.98" y="64.8">o</tspan><tspan class="cls-31" x="22.86" y="64.8">r</tspan><tspan class="cls-35" x="28.57" y="64.8">e</tspan><tspan class="cls-31" x="37.58" y="64.8">d</tspan><tspan x="47.56" y="64.8">.</tspan></text><text class="cls-20" transform="translate(783.88 65.44)">4. <tspan class="cls-39" x="16.78" y="0">H</tspan><tspan class="cls-31" x="28.67" y="0">y</tspan><tspan x="36.97" y="0">d</tspan><tspan class="cls-23" x="47.12" y="0">r</tspan><tspan x="52.83" y="0">ogen is </tspan><tspan x="0" y="21.6">t</tspan><tspan class="cls-30" x="5.96" y="21.6">r</tspan><tspan x="11.75" y="21.6">anspo</tspan><tspan class="cls-40" x="57.67" y="21.6">r</tspan><tspan class="cls-24" x="63.99" y="21.6">t</tspan><tspan x="69.84" y="21.6">ed a</tspan><tspan class="cls-31" x="101.5" y="21.6">r</tspan><tspan x="107.21" y="21.6">ound the </tspan><tspan class="cls-31" x="0" y="43.2">w</tspan><tspan x="13.07" y="43.2">o</tspan><tspan class="cls-27" x="22.95" y="43.2">r</tspan><tspan x="28.91" y="43.2">l</tspan><tspan class="cls-31" x="33.16" y="43.2">d</tspan><tspan x="43.13" y="43.2">, usually as a p</tspan><tspan class="cls-23" x="149.45" y="43.2">r</tspan><tspan x="155.16" y="43.2">es</tspan><tspan x="171.3" y="43.2">-</tspan><tspan x="0" y="64.8">su</tspan><tspan class="cls-27" x="17.05" y="64.8">r</tspan><tspan x="23" y="64.8">ised gas or as a liqui</tspan><tspan class="cls-31" x="171.43" y="64.8">d</tspan><tspan x="181.4" y="64.8">, </tspan><tspan class="cls-31" x="0" y="86.4">r</tspan><tspan x="5.71" y="86.4">eady </tspan><tspan class="cls-32" x="45.85" y="86.4">f</tspan><tspan x="50.87" y="86.4">or us</tspan><tspan class="cls-41" x="87.5" y="86.4">e</tspan><tspan x="96.3" y="86.4">.</tspan></text><path d="M1008.06,55.07h-4.47l-.45,3a5.74,5.74,0,0,1,1-.08,5,5,0,0,1,2.52.63,3.35,3.35,0,0,1,1.67,3,4.06,4.06,0,0,1-4.35,4,5.74,5.74,0,0,1-2.92-.72l.4-1.21a5.19,5.19,0,0,0,2.5.65,2.58,2.58,0,0,0,2.77-2.54c0-1.51-1-2.59-3.37-2.59a13,13,0,0,0-1.62.12l.76-5.61h5.6Z"/><path d="M1010.43,64.5a1.08,1.08,0,1,1,1.07,1.14A1.06,1.06,0,0,1,1010.43,64.5Z"/><path d="M1020,53.31v7.18c0,2.72,1.21,3.87,2.83,3.87,1.8,0,3-1.19,3-3.87V53.31h1.59v7.07c0,3.73-2,5.26-4.59,5.26s-4.36-1.42-4.36-5.19V53.31Z"/><path d="M1029.67,63.82a4.13,4.13,0,0,0,2.09.63c1.16,0,1.7-.58,1.7-1.3s-.46-1.17-1.63-1.6c-1.56-.56-2.3-1.42-2.3-2.47,0-1.4,1.13-2.55,3-2.55a4.34,4.34,0,0,1,2.14.54l-.4,1.15a3.34,3.34,0,0,0-1.78-.5c-.94,0-1.46.54-1.46,1.18s.52,1.05,1.66,1.48c1.51.58,2.29,1.33,2.29,2.63,0,1.53-1.19,2.61-3.26,2.61a5,5,0,0,1-2.45-.59Z"/><path d="M1037.9,61.37a2.8,2.8,0,0,0,3,3,5.75,5.75,0,0,0,2.41-.45l.27,1.13a7.09,7.09,0,0,1-2.9.54,4,4,0,0,1-4.28-4.39c0-2.63,1.55-4.7,4.09-4.7,2.84,0,3.6,2.5,3.6,4.1a5.31,5.31,0,0,1-.06.74Zm4.65-1.13a2.27,2.27,0,0,0-2.2-2.58,2.63,2.63,0,0,0-2.43,2.58Z"/><path d="M1045.82,63.82a4.13,4.13,0,0,0,2.09.63c1.15,0,1.69-.58,1.69-1.3s-.45-1.17-1.62-1.6c-1.57-.56-2.3-1.42-2.3-2.47,0-1.4,1.13-2.55,3-2.55a4.35,4.35,0,0,1,2.15.54l-.4,1.15a3.34,3.34,0,0,0-1.78-.5c-.94,0-1.46.54-1.46,1.18s.52,1.05,1.65,1.48c1.52.58,2.29,1.33,2.29,2.63,0,1.53-1.19,2.61-3.26,2.61a5,5,0,0,1-2.45-.59Z"/><path d="M1058.75,54.28a1,1,0,0,1-2,0,1,1,0,0,1,1-1A.94.94,0,0,1,1058.75,54.28ZM1057,65.44V56.73h1.58v8.71Z"/><path d="M1061.19,59.08c0-.9,0-1.63-.07-2.35h1.4l.09,1.44h0a3.2,3.2,0,0,1,2.88-1.64c1.21,0,3.08.72,3.08,3.71v5.2H1067v-5c0-1.41-.53-2.58-2-2.58a2.25,2.25,0,0,0-2.13,1.62,2.37,2.37,0,0,0-.1.74v5.24h-1.59Z"/><path d="M1077.39,65.12a5.91,5.91,0,0,1-2.5.5,4.14,4.14,0,0,1-4.34-4.45,4.43,4.43,0,0,1,4.68-4.62,5.23,5.23,0,0,1,2.2.45l-.36,1.22a3.64,3.64,0,0,0-1.84-.41,3.28,3.28,0,0,0,0,6.55,4.45,4.45,0,0,0,1.94-.43Z"/><path d="M1079.25,52.66h1.58V65.44h-1.58Z"/><path d="M1090.79,63.06c0,.9,0,1.7.07,2.38h-1.41l-.09-1.42h0a3.29,3.29,0,0,1-2.88,1.62c-1.37,0-3-.76-3-3.82V56.73H1085v4.82c0,1.66.51,2.77,2,2.77a2.22,2.22,0,0,0,2.23-2.25V56.73h1.59Z"/><path d="M1100.94,52.66V63.19c0,.77,0,1.66.07,2.25h-1.42l-.07-1.51h0a3.23,3.23,0,0,1-3,1.71c-2.11,0-3.73-1.78-3.73-4.43,0-2.9,1.78-4.68,3.91-4.68a2.93,2.93,0,0,1,2.63,1.33h0v-5.2Zm-1.59,7.61a2.52,2.52,0,0,0-.07-.66,2.33,2.33,0,0,0-2.28-1.84c-1.64,0-2.62,1.44-2.62,3.37,0,1.76.87,3.22,2.58,3.22a2.38,2.38,0,0,0,2.32-1.89,2.49,2.49,0,0,0,.07-.68Z"/><path d="M1104.45,61.37a2.79,2.79,0,0,0,3,3,5.8,5.8,0,0,0,2.42-.45l.27,1.13a7.09,7.09,0,0,1-2.9.54,4,4,0,0,1-4.29-4.39c0-2.63,1.55-4.7,4.09-4.7,2.85,0,3.6,2.5,3.6,4.1a5.67,5.67,0,0,1,0,.74Zm4.64-1.13a2.26,2.26,0,0,0-2.2-2.58,2.63,2.63,0,0,0-2.43,2.58Z"/><path d="M1118.31,54.22v2.51h2.27v1.2h-2.27v4.7c0,1.08.3,1.69,1.18,1.69a3.78,3.78,0,0,0,.92-.1l.07,1.18a3.74,3.74,0,0,1-1.4.22,2.17,2.17,0,0,1-1.71-.67,3.2,3.2,0,0,1-.61-2.26V57.93h-1.35v-1.2h1.35V54.64Z"/><path d="M1129.65,63.06c0,.9,0,1.7.07,2.38h-1.4l-.09-1.42h0a3.27,3.27,0,0,1-2.88,1.62c-1.37,0-3-.76-3-3.82V56.73h1.59v4.82c0,1.66.5,2.77,1.94,2.77a2.22,2.22,0,0,0,2.23-2.25V56.73h1.59Z"/><path d="M1132.27,59.45c0-1,0-1.91-.07-2.72h1.39l.05,1.71h.07a2.62,2.62,0,0,1,2.42-1.91,2.06,2.06,0,0,1,.45,0v1.5A2.17,2.17,0,0,0,1136,58a2.23,2.23,0,0,0-2.13,2,5.17,5.17,0,0,0-.07.74v4.64h-1.57Z"/><path d="M1138.23,59.08c0-.9,0-1.63-.07-2.35h1.4l.09,1.44h0a3.2,3.2,0,0,1,2.88-1.64c1.21,0,3.08.72,3.08,3.71v5.2h-1.59v-5c0-1.41-.52-2.58-2-2.58a2.25,2.25,0,0,0-2.13,1.62,2.37,2.37,0,0,0-.1.74v5.24h-1.59Z"/><path d="M1150,54.28a1,1,0,0,1-2,0,1,1,0,0,1,1-1A.94.94,0,0,1,1150,54.28Zm-1.77,11.16V56.73h1.59v8.71Z"/><path d="M1152.43,59.08c0-.9,0-1.63-.07-2.35h1.41l.09,1.44h0a3.2,3.2,0,0,1,2.88-1.64c1.21,0,3.08.72,3.08,3.71v5.2h-1.58v-5c0-1.41-.53-2.58-2-2.58a2.27,2.27,0,0,0-2.13,1.62,2.37,2.37,0,0,0-.1.74v5.24h-1.59Z"/><path d="M1169.93,56.73c0,.63-.07,1.33-.07,2.39v5.06c0,2-.4,3.22-1.24,4a4.63,4.63,0,0,1-3.17,1,5.59,5.59,0,0,1-2.9-.72l.39-1.2a4.94,4.94,0,0,0,2.56.68c1.62,0,2.81-.84,2.81-3V64h0a3.09,3.09,0,0,1-2.77,1.45c-2.16,0-3.71-1.83-3.71-4.24,0-3,1.93-4.63,3.93-4.63a2.9,2.9,0,0,1,2.72,1.51h0l.07-1.31Zm-1.64,3.44a2.32,2.32,0,0,0-2.3-2.4c-1.51,0-2.6,1.28-2.6,3.3,0,1.71.87,3.13,2.58,3.13a2.33,2.33,0,0,0,2.2-1.62,2.77,2.77,0,0,0,.12-.85Z"/><path d="M1001.58,74.26h1.58v5.43h0a2.94,2.94,0,0,1,1.13-1.11,3.28,3.28,0,0,1,1.62-.45c1.17,0,3,.72,3,3.73V87h-1.59V82c0-1.41-.52-2.6-2-2.6a2.28,2.28,0,0,0-2.12,1.59,1.88,1.88,0,0,0-.11.75V87h-1.58Z"/><path d="M1011.91,78.33l1.91,5.15c.2.57.41,1.26.56,1.78h0c.16-.52.34-1.19.56-1.82l1.73-5.11h1.67L1016,84.54c-1.14,3-1.91,4.52-3,5.45a4.25,4.25,0,0,1-2,1l-.39-1.33a4.28,4.28,0,0,0,1.38-.78,4.69,4.69,0,0,0,1.34-1.76.73.73,0,0,0,0-.79l-3.22-8Z"/><path d="M1027.16,74.26V84.79c0,.77,0,1.66.07,2.25h-1.42l-.08-1.51h0a3.23,3.23,0,0,1-3,1.71c-2.11,0-3.73-1.78-3.73-4.43,0-2.9,1.78-4.68,3.91-4.68a2.93,2.93,0,0,1,2.63,1.33h0v-5.2Zm-1.59,7.61a3,3,0,0,0-.07-.66,2.33,2.33,0,0,0-2.29-1.84c-1.63,0-2.61,1.44-2.61,3.37,0,1.76.87,3.22,2.58,3.22a2.38,2.38,0,0,0,2.32-1.89,3,3,0,0,0,.07-.68Z"/><path d="M1029.78,81.05c0-1,0-1.91-.07-2.72h1.39l.05,1.71h.07a2.62,2.62,0,0,1,2.42-1.91,2.06,2.06,0,0,1,.45.05v1.5a2.17,2.17,0,0,0-2.67,2,5.17,5.17,0,0,0-.07.74V87h-1.57Z"/><path d="M1043.38,82.61a4.27,4.27,0,0,1-4.34,4.63,4.14,4.14,0,0,1-4.18-4.48c0-2.92,1.91-4.63,4.32-4.63A4.13,4.13,0,0,1,1043.38,82.61Zm-6.92.09c0,1.91,1.1,3.35,2.65,3.35s2.64-1.42,2.64-3.38c0-1.48-.73-3.35-2.61-3.35S1036.46,81.05,1036.46,82.7Z"/><path d="M1052.88,78.33c0,.63-.07,1.33-.07,2.39v5.06c0,2-.4,3.22-1.25,4a4.61,4.61,0,0,1-3.16,1,5.59,5.59,0,0,1-2.9-.72l.39-1.2a4.94,4.94,0,0,0,2.56.68c1.62,0,2.81-.84,2.81-3v-1h0a3.09,3.09,0,0,1-2.77,1.45c-2.16,0-3.71-1.83-3.71-4.24,0-3,1.93-4.63,3.93-4.63a2.88,2.88,0,0,1,2.71,1.51h0l.07-1.31Zm-1.64,3.44a2.32,2.32,0,0,0-2.3-2.4c-1.52,0-2.6,1.28-2.6,3.3,0,1.71.87,3.13,2.58,3.13a2.31,2.31,0,0,0,2.19-1.62,2.79,2.79,0,0,0,.13-.85Z"/><path d="M1056.31,83a2.8,2.8,0,0,0,3,3,5.8,5.8,0,0,0,2.42-.45l.27,1.13a7.13,7.13,0,0,1-2.9.54,4,4,0,0,1-4.29-4.39c0-2.63,1.55-4.7,4.09-4.7,2.84,0,3.6,2.5,3.6,4.1,0,.33,0,.58,0,.74Zm4.65-1.13a2.26,2.26,0,0,0-2.2-2.58,2.63,2.63,0,0,0-2.43,2.58Z"/><path d="M1064.45,80.69c0-.91,0-1.64-.07-2.36h1.4l.09,1.44h0a3.2,3.2,0,0,1,2.88-1.64c1.21,0,3.08.72,3.08,3.71V87h-1.59V82c0-1.41-.52-2.58-2-2.58a2.25,2.25,0,0,0-2.13,1.62,2.37,2.37,0,0,0-.1.74V87h-1.59Z"/><path d="M1078.18,87c0-.59.08-1.48.08-2.25V74.26h1.56v5.47h0a3.24,3.24,0,0,1,3-1.6c2.16,0,3.69,1.8,3.67,4.45,0,3.11-2,4.66-3.9,4.66a3.11,3.11,0,0,1-2.92-1.64h-.06l-.07,1.44Zm1.64-3.49a3.42,3.42,0,0,0,.07.57,2.46,2.46,0,0,0,2.38,1.86c1.66,0,2.65-1.35,2.65-3.35,0-1.75-.9-3.24-2.59-3.24a2.54,2.54,0,0,0-2.42,1.94,3.64,3.64,0,0,0-.09.65Z"/><path d="M1093.32,87l-.12-1.1h-.06a3.22,3.22,0,0,1-2.66,1.3,2.48,2.48,0,0,1-2.67-2.5c0-2.11,1.88-3.26,5.24-3.24v-.18a1.79,1.79,0,0,0-2-2,4.33,4.33,0,0,0-2.27.65l-.36-1a5.41,5.41,0,0,1,2.87-.77c2.66,0,3.31,1.82,3.31,3.56V85a13.14,13.14,0,0,0,.14,2.09Zm-.23-4.45c-1.73,0-3.69.27-3.69,2a1.4,1.4,0,0,0,1.49,1.51,2.16,2.16,0,0,0,2.11-1.46,1.76,1.76,0,0,0,.09-.5Z"/><path d="M1103.39,86.72a6,6,0,0,1-2.51.5,4.14,4.14,0,0,1-4.34-4.45,4.43,4.43,0,0,1,4.68-4.62,5.23,5.23,0,0,1,2.2.45l-.36,1.22a3.64,3.64,0,0,0-1.84-.41,3.28,3.28,0,0,0,0,6.55,4.5,4.5,0,0,0,1.95-.43Z"/><path d="M1106.8,82.32h0c.22-.3.52-.68.77-1l2.56-3h1.91l-3.37,3.58,3.84,5.13h-1.93l-3-4.18-.81.9V87h-1.56V74.26h1.56Z"/><path d="M1119.26,75.88a1,1,0,0,1-2,0,1,1,0,0,1,1-1A.94.94,0,0,1,1119.26,75.88ZM1117.5,87V78.33h1.58V87Z"/><path d="M1121.71,80.69c0-.91,0-1.64-.08-2.36H1123l.09,1.44h0a3.2,3.2,0,0,1,2.88-1.64c1.2,0,3.07.72,3.07,3.71V87h-1.58V82c0-1.41-.52-2.58-2-2.58a2.25,2.25,0,0,0-2.12,1.62,2.35,2.35,0,0,0-.11.74V87h-1.58Z"/><path d="M1133.53,75.82v2.51h2.27v1.2h-2.27v4.7c0,1.08.31,1.69,1.19,1.69a3.78,3.78,0,0,0,.92-.1l.07,1.18a3.74,3.74,0,0,1-1.4.22,2.17,2.17,0,0,1-1.71-.67,3.2,3.2,0,0,1-.61-2.26V79.53h-1.36v-1.2H1132V76.24Z"/><path d="M1145.36,82.61a4.26,4.26,0,0,1-4.34,4.63,4.14,4.14,0,0,1-4.18-4.48c0-2.92,1.91-4.63,4.33-4.63S1145.36,80,1145.36,82.61Zm-6.91.09c0,1.91,1.1,3.35,2.64,3.35s2.65-1.42,2.65-3.38c0-1.48-.74-3.35-2.61-3.35S1138.45,81.05,1138.45,82.7Z"/><path d="M1152.06,83a2.79,2.79,0,0,0,3,3,5.8,5.8,0,0,0,2.42-.45l.27,1.13a7.13,7.13,0,0,1-2.9.54,4,4,0,0,1-4.29-4.39c0-2.63,1.55-4.7,4.09-4.7,2.84,0,3.6,2.5,3.6,4.1a5.67,5.67,0,0,1,0,.74Zm4.64-1.13a2.26,2.26,0,0,0-2.2-2.58,2.63,2.63,0,0,0-2.43,2.58Z"/><path d="M1160.19,74.26h1.59V87h-1.59Z"/><path d="M1165.32,83a2.8,2.8,0,0,0,3,3,5.75,5.75,0,0,0,2.41-.45l.27,1.13a7.09,7.09,0,0,1-2.9.54,4,4,0,0,1-4.28-4.39c0-2.63,1.55-4.7,4.09-4.7,2.84,0,3.6,2.5,3.6,4.1a5.31,5.31,0,0,1-.06.74Zm4.65-1.13a2.27,2.27,0,0,0-2.2-2.58,2.63,2.63,0,0,0-2.43,2.58Z"/><path d="M1179.67,86.72a6,6,0,0,1-2.5.5,4.14,4.14,0,0,1-4.34-4.45,4.42,4.42,0,0,1,4.68-4.62,5.31,5.31,0,0,1,2.2.45l-.37,1.22a3.6,3.6,0,0,0-1.83-.41,3.28,3.28,0,0,0-.06,6.55,4.5,4.5,0,0,0,2-.43Z"/><path d="M1183.66,75.82v2.51h2.27v1.2h-2.27v4.7c0,1.08.31,1.69,1.19,1.69a3.78,3.78,0,0,0,.92-.1l.07,1.18a3.74,3.74,0,0,1-1.4.22,2.17,2.17,0,0,1-1.71-.67,3.2,3.2,0,0,1-.61-2.26V79.53h-1.36v-1.2h1.36V76.24Z"/><path d="M1187.71,81.05c0-1,0-1.91-.07-2.72H1189l0,1.71h.07a2.62,2.62,0,0,1,2.42-1.91,2.06,2.06,0,0,1,.45.05v1.5a2.17,2.17,0,0,0-2.67,2,5.17,5.17,0,0,0-.07.74V87h-1.57Z"/><path d="M1195.44,75.88a1,1,0,0,1-2,0,1,1,0,0,1,1-1A.94.94,0,0,1,1195.44,75.88ZM1193.67,87V78.33h1.58V87Z"/><path d="M1204.09,86.72a5.91,5.91,0,0,1-2.5.5,4.14,4.14,0,0,1-4.34-4.45,4.43,4.43,0,0,1,4.68-4.62,5.23,5.23,0,0,1,2.2.45l-.36,1.22a3.64,3.64,0,0,0-1.84-.41,3.28,3.28,0,0,0,0,6.55,4.45,4.45,0,0,0,1.94-.43Z"/><path d="M1209.62,81.59v1.17h-4.45V81.59Z"/><path d="M1003.34,97.48a1,1,0,0,1-2,0,1,1,0,0,1,1-1A.94.94,0,0,1,1003.34,97.48Zm-1.76,11.16V99.93h1.58v8.71Z"/><path d="M1007.7,97.42v2.51H1010v1.2h-2.27v4.7c0,1.08.3,1.69,1.19,1.69a3.69,3.69,0,0,0,.91-.1l.08,1.18a3.84,3.84,0,0,1-1.41.22,2.17,2.17,0,0,1-1.71-.67,3.2,3.2,0,0,1-.61-2.26v-4.76h-1.35v-1.2h1.35V97.84Z"/><path d="M1012.48,99.93l1.91,5.15c.2.57.42,1.26.56,1.78h0c.16-.52.34-1.19.56-1.82l1.72-5.11H1019l-2.38,6.21c-1.13,3-1.91,4.52-3,5.45a4.23,4.23,0,0,1-1.94,1l-.4-1.33a4.21,4.21,0,0,0,1.39-.78,4.79,4.79,0,0,0,1.33-1.76,1.21,1.21,0,0,0,.13-.38,1.39,1.39,0,0,0-.11-.41l-3.22-8Z"/><path d="M1027.64,96.15a11.88,11.88,0,0,0-2.27,7.36,12.13,12.13,0,0,0,2.27,7.31h-1.24a11.6,11.6,0,0,1-2.36-7.31,11.83,11.83,0,0,1,2.36-7.36Z"/><path d="M1029.93,99.93l1.71,4.89c.28.8.52,1.52.7,2.24h.05c.2-.72.45-1.44.74-2.24l1.69-4.89h1.66l-3.42,8.71h-1.51l-3.32-8.71Z"/><path d="M1039.74,97.48a1,1,0,0,1-2,0,1,1,0,0,1,1-1A.94.94,0,0,1,1039.74,97.48ZM1038,108.64V99.93h1.59v8.71Z"/><path d="M1047,108.64l-.13-1.1h-.05a3.24,3.24,0,0,1-2.67,1.3,2.48,2.48,0,0,1-2.66-2.5c0-2.11,1.87-3.26,5.24-3.24v-.18a1.8,1.8,0,0,0-2-2,4.31,4.31,0,0,0-2.27.65l-.36-1a5.38,5.38,0,0,1,2.86-.77c2.67,0,3.32,1.82,3.32,3.56v3.26a12.06,12.06,0,0,0,.14,2.09Zm-.23-4.45c-1.73,0-3.7.27-3.7,2a1.41,1.41,0,0,0,1.5,1.51,2.18,2.18,0,0,0,2.11-1.46,1.76,1.76,0,0,0,.09-.5Z"/><path d="M1054.84,108.64v-7.51h-1.23v-1.2h1.23v-.42a4.1,4.1,0,0,1,1-3,3,3,0,0,1,2.12-.81,3.82,3.82,0,0,1,1.35.25l-.22,1.23a2.28,2.28,0,0,0-1-.2c-1.35,0-1.7,1.19-1.7,2.52v.47h2.11v1.2h-2.11v7.51Z"/><path d="M1067.22,106.26c0,.9,0,1.7.08,2.38h-1.41l-.09-1.42h0a3.27,3.27,0,0,1-2.88,1.62c-1.36,0-3-.76-3-3.82V99.93h1.58v4.82c0,1.66.51,2.77,2,2.77a2.29,2.29,0,0,0,2.09-1.44,2.54,2.54,0,0,0,.14-.81V99.93h1.58Z"/><path d="M1070.73,104.57a2.8,2.8,0,0,0,3,3,5.75,5.75,0,0,0,2.41-.45l.27,1.13a7.09,7.09,0,0,1-2.9.54,4,4,0,0,1-4.28-4.39c0-2.63,1.55-4.7,4.09-4.7,2.84,0,3.6,2.5,3.6,4.1a5.31,5.31,0,0,1-.06.74Zm4.65-1.13a2.27,2.27,0,0,0-2.2-2.58,2.63,2.63,0,0,0-2.43,2.58Z"/><path d="M1078.87,95.86h1.58v12.78h-1.58Z"/><path d="M1093.14,108.32a5.91,5.91,0,0,1-2.5.5,4.14,4.14,0,0,1-4.34-4.45,4.43,4.43,0,0,1,4.68-4.62,5.23,5.23,0,0,1,2.2.45l-.36,1.22A3.75,3.75,0,0,0,1091,101a3.28,3.28,0,0,0,0,6.55,4.45,4.45,0,0,0,1.94-.43Z"/><path d="M1095.77,104.57a2.8,2.8,0,0,0,3,3,5.75,5.75,0,0,0,2.41-.45l.27,1.13a7.09,7.09,0,0,1-2.9.54,4,4,0,0,1-4.28-4.39c0-2.63,1.55-4.7,4.08-4.7,2.85,0,3.61,2.5,3.61,4.1a5.31,5.31,0,0,1-.06.74Zm4.65-1.13a2.27,2.27,0,0,0-2.2-2.58,2.63,2.63,0,0,0-2.43,2.58Z"/><path d="M1103.91,95.86h1.58v12.78h-1.58Z"/><path d="M1108.15,95.86h1.59v12.78h-1.59Z"/><path d="M1112.19,107a4.06,4.06,0,0,0,2.08.63c1.16,0,1.7-.58,1.7-1.3s-.45-1.17-1.62-1.6c-1.57-.56-2.31-1.42-2.31-2.46,0-1.41,1.14-2.56,3-2.56a4.31,4.31,0,0,1,2.14.54l-.4,1.15a3.44,3.44,0,0,0-1.78-.5c-.93,0-1.46.54-1.46,1.18s.53,1.05,1.66,1.48c1.51.58,2.29,1.33,2.29,2.63,0,1.53-1.19,2.61-3.26,2.61a5,5,0,0,1-2.45-.59Z"/><path d="M1131.23,104.21a4.26,4.26,0,0,1-4.34,4.63,4.14,4.14,0,0,1-4.18-4.48c0-2.92,1.91-4.63,4.33-4.63S1131.23,101.55,1131.23,104.21Zm-6.91.09c0,1.91,1.1,3.35,2.64,3.35s2.65-1.42,2.65-3.38c0-1.48-.74-3.35-2.61-3.35S1124.32,102.65,1124.32,104.3Z"/><path d="M1133.23,102.65c0-1,0-1.91-.07-2.72h1.38l.06,1.71h.07a2.61,2.61,0,0,1,2.41-1.91,2,2,0,0,1,.45,0v1.5a2.12,2.12,0,0,0-.54-.06,2.21,2.21,0,0,0-2.12,2,4,4,0,0,0-.08.74v4.64h-1.56Z"/><path d="M1144.84,97.42v2.51h2.27v1.2h-2.27v4.7c0,1.08.3,1.69,1.19,1.69a3.69,3.69,0,0,0,.91-.1l.08,1.18a3.84,3.84,0,0,1-1.41.22,2.17,2.17,0,0,1-1.71-.67,3.2,3.2,0,0,1-.61-2.26v-4.76h-1.35v-1.2h1.35V97.84Z"/><path d="M1156.18,106.26c0,.9,0,1.7.07,2.38h-1.4l-.09-1.42h0a3.27,3.27,0,0,1-2.88,1.62c-1.37,0-3-.76-3-3.82V99.93h1.59v4.82c0,1.66.5,2.77,1.94,2.77a2.22,2.22,0,0,0,2.23-2.25V99.93h1.59Z"/><path d="M1158.8,102.65c0-1,0-1.91-.07-2.72h1.39l.05,1.71h.08a2.61,2.61,0,0,1,2.41-1.91,2.06,2.06,0,0,1,.45,0v1.5a2.17,2.17,0,0,0-.54-.06,2.23,2.23,0,0,0-2.13,2,5.17,5.17,0,0,0-.07.74v4.64h-1.57Z"/><path d="M1168.36,103.19v1.17h-4.44v-1.17Z"/><path d="M1001.5,130.24c0-.59.08-1.48.08-2.25V117.46h1.56v5.47h0a3.25,3.25,0,0,1,3-1.6c2.16,0,3.69,1.8,3.67,4.45,0,3.11-2,4.66-3.9,4.66a3.12,3.12,0,0,1-2.92-1.64h0l-.08,1.44Zm1.64-3.49a3.42,3.42,0,0,0,.07.57,2.46,2.46,0,0,0,2.38,1.86c1.66,0,2.65-1.35,2.65-3.35,0-1.75-.9-3.24-2.59-3.24a2.54,2.54,0,0,0-2.42,1.94,3.64,3.64,0,0,0-.09.65Z"/><path d="M1013.58,119.08a.93.93,0,0,1-1,1,.94.94,0,0,1-1-1,1,1,0,0,1,1-1A.93.93,0,0,1,1013.58,119.08Zm-1.76,11.16v-8.71h1.58v8.71Z"/><path d="M1016,123.89c0-.91,0-1.64-.07-2.36h1.4l.09,1.44h0a3.2,3.2,0,0,1,2.88-1.64c1.21,0,3.08.72,3.08,3.71v5.2h-1.59v-5c0-1.41-.52-2.58-2-2.58a2.25,2.25,0,0,0-2.13,1.62,2.37,2.37,0,0,0-.1.74v5.24H1016Z"/><path d="M1026.9,126.17a2.8,2.8,0,0,0,3,3,5.71,5.71,0,0,0,2.41-.45l.27,1.13a7.06,7.06,0,0,1-2.9.54,4,4,0,0,1-4.28-4.39c0-2.63,1.55-4.7,4.09-4.7,2.84,0,3.6,2.5,3.6,4.1a5.31,5.31,0,0,1-.06.74Zm4.65-1.13a2.26,2.26,0,0,0-2.2-2.58,2.63,2.63,0,0,0-2.43,2.58Z"/><path d="M1034.82,128.62a4.13,4.13,0,0,0,2.09.63c1.15,0,1.69-.58,1.69-1.3s-.45-1.17-1.62-1.6c-1.56-.56-2.3-1.42-2.3-2.46,0-1.41,1.13-2.56,3-2.56a4.35,4.35,0,0,1,2.15.54l-.4,1.15a3.44,3.44,0,0,0-1.78-.5c-.94,0-1.46.54-1.46,1.19s.52,1,1.66,1.47c1.51.58,2.28,1.33,2.28,2.63,0,1.53-1.18,2.61-3.25,2.61a5,5,0,0,1-2.45-.59Z"/><path d="M1041.21,132.42a12.16,12.16,0,0,0,2.27-7.36,11.89,11.89,0,0,0-2.27-7.31h1.23a11.46,11.46,0,0,1,2.35,7.32,11.71,11.71,0,0,1-2.35,7.35Z"/><path d="M1046.25,132.46a25.85,25.85,0,0,0,1.08-4.31l1.77-.18a22.75,22.75,0,0,1-1.71,4.38Z"/><path d="M1054.82,117.46h1.58v5.44h0a2.9,2.9,0,0,1,1.13-1.12,3.28,3.28,0,0,1,1.62-.45c1.18,0,3,.72,3,3.73v5.18h-1.59v-5c0-1.41-.52-2.6-2-2.6a2.28,2.28,0,0,0-2.13,1.59,1.88,1.88,0,0,0-.11.75v5.26h-1.58Z"/><path d="M1065.69,126.17a2.8,2.8,0,0,0,3,3,5.75,5.75,0,0,0,2.41-.45l.27,1.13a7.09,7.09,0,0,1-2.9.54,4,4,0,0,1-4.28-4.39c0-2.63,1.55-4.7,4.09-4.7,2.84,0,3.6,2.5,3.6,4.1a5.31,5.31,0,0,1-.06.74Zm4.65-1.13a2.27,2.27,0,0,0-2.2-2.58,2.63,2.63,0,0,0-2.43,2.58Z"/><path d="M1078.65,130.24l-.12-1.1h-.06a3.22,3.22,0,0,1-2.66,1.3,2.48,2.48,0,0,1-2.67-2.5c0-2.11,1.88-3.26,5.24-3.24v-.18a1.8,1.8,0,0,0-2-2,4.33,4.33,0,0,0-2.27.65l-.36-1.05a5.41,5.41,0,0,1,2.87-.77c2.66,0,3.31,1.82,3.31,3.56v3.26a13.14,13.14,0,0,0,.14,2.09Zm-.23-4.45c-1.73,0-3.69.27-3.69,2a1.4,1.4,0,0,0,1.49,1.51,2.16,2.16,0,0,0,2.11-1.46,1.76,1.76,0,0,0,.09-.5Z"/><path d="M1084.34,119v2.51h2.27v1.2h-2.27v4.7c0,1.08.31,1.69,1.19,1.69a3.85,3.85,0,0,0,.92-.1l.07,1.19a4.06,4.06,0,0,1-1.41.21,2.18,2.18,0,0,1-1.71-.67,3.2,3.2,0,0,1-.61-2.26v-4.76h-1.35v-1.2h1.35v-2.09Z"/><path d="M1090.15,119.08a.93.93,0,0,1-1,1,.94.94,0,0,1-1-1,1,1,0,0,1,1-1A.93.93,0,0,1,1090.15,119.08Zm-1.76,11.16v-8.71H1090v8.71Z"/><path d="M1092.6,123.89c0-.91,0-1.64-.07-2.36h1.4L1094,123h0a3.2,3.2,0,0,1,2.88-1.64c1.21,0,3.08.72,3.08,3.71v5.2h-1.59v-5c0-1.41-.52-2.58-2-2.58a2.25,2.25,0,0,0-2.13,1.62,2.37,2.37,0,0,0-.1.74v5.24h-1.59Z"/><path d="M1110.1,121.53c0,.63-.07,1.33-.07,2.39V129c0,2-.4,3.22-1.24,4a4.65,4.65,0,0,1-3.17,1,5.59,5.59,0,0,1-2.9-.72l.39-1.2a4.94,4.94,0,0,0,2.56.68c1.62,0,2.81-.84,2.81-3v-1h0a3.1,3.1,0,0,1-2.77,1.46c-2.16,0-3.71-1.84-3.71-4.25,0-3,1.93-4.63,3.93-4.63a2.88,2.88,0,0,1,2.71,1.51h0l.07-1.31Zm-1.64,3.44a2.32,2.32,0,0,0-2.3-2.4c-1.52,0-2.6,1.28-2.6,3.3,0,1.71.87,3.13,2.58,3.13a2.31,2.31,0,0,0,2.19-1.62,2.79,2.79,0,0,0,.13-.85Z"/><path d="M1111.36,132.46a26.87,26.87,0,0,0,1.08-4.31l1.76-.18a21.51,21.51,0,0,1-1.71,4.38Z"/><path d="M1121.69,119.08a1,1,0,0,1-2,0,1,1,0,0,1,1-1A.94.94,0,0,1,1121.69,119.08Zm-1.77,11.16v-8.71h1.59v8.71Z"/><path d="M1124.14,123.89c0-.91,0-1.64-.08-2.36h1.41l.09,1.44h0a3.23,3.23,0,0,1,2.89-1.64c1.2,0,3.07.72,3.07,3.71v5.2H1130v-5c0-1.41-.52-2.58-2-2.58a2.25,2.25,0,0,0-2.12,1.62,2.35,2.35,0,0,0-.11.74v5.24h-1.58Z"/><path d="M1141.65,117.46V128c0,.77,0,1.66.07,2.25h-1.42l-.07-1.51h0a3.21,3.21,0,0,1-3,1.71c-2.1,0-3.72-1.78-3.72-4.43,0-2.9,1.78-4.68,3.9-4.68a2.9,2.9,0,0,1,2.63,1.33h0v-5.2Zm-1.58,7.61a3,3,0,0,0-.07-.66,2.34,2.34,0,0,0-2.29-1.84c-1.64,0-2.61,1.44-2.61,3.37,0,1.76.86,3.22,2.57,3.22a2.38,2.38,0,0,0,2.33-1.89,3,3,0,0,0,.07-.68Z"/><path d="M1151.57,127.86c0,.9,0,1.7.07,2.38h-1.4l-.09-1.42h0a3.27,3.27,0,0,1-2.88,1.62c-1.37,0-3-.76-3-3.82v-5.09h1.59v4.82c0,1.66.5,2.77,1.94,2.77a2.25,2.25,0,0,0,2.24-2.25v-5.34h1.58Z"/><path d="M1154,128.62a4.13,4.13,0,0,0,2.09.63c1.15,0,1.69-.58,1.69-1.3s-.45-1.17-1.62-1.6c-1.57-.56-2.3-1.42-2.3-2.46,0-1.41,1.13-2.56,3-2.56a4.38,4.38,0,0,1,2.15.54l-.4,1.15a3.44,3.44,0,0,0-1.78-.5c-.94,0-1.46.54-1.46,1.19s.52,1,1.65,1.47c1.52.58,2.29,1.33,2.29,2.63,0,1.53-1.19,2.61-3.26,2.61a5,5,0,0,1-2.45-.59Z"/><path d="M1163.23,119v2.51h2.27v1.2h-2.27v4.7c0,1.08.31,1.69,1.19,1.69a3.85,3.85,0,0,0,.92-.1l.07,1.19a4,4,0,0,1-1.4.21,2.16,2.16,0,0,1-1.71-.67,3.2,3.2,0,0,1-.62-2.26v-4.76h-1.35v-1.2h1.35v-2.09Z"/><path d="M1167.28,124.25c0-1,0-1.91-.07-2.72h1.39l.05,1.71h.07a2.62,2.62,0,0,1,2.41-1.91,1.93,1.93,0,0,1,.45,0v1.5a2.12,2.12,0,0,0-.54-.06,2.23,2.23,0,0,0-2.12,2,4,4,0,0,0-.07.74v4.64h-1.57Z"/><path d="M1175,119.08a.93.93,0,0,1-1,1,.94.94,0,0,1-1-1,1,1,0,0,1,1-1A.93.93,0,0,1,1175,119.08Zm-1.76,11.16v-8.71h1.58v8.71Z"/><path d="M1182.28,130.24l-.13-1.1h-.05a3.25,3.25,0,0,1-2.67,1.3,2.48,2.48,0,0,1-2.66-2.5c0-2.11,1.87-3.26,5.24-3.24v-.18a1.8,1.8,0,0,0-2-2,4.31,4.31,0,0,0-2.27.65l-.36-1.05a5.38,5.38,0,0,1,2.86-.77c2.66,0,3.31,1.82,3.31,3.56v3.26a12,12,0,0,0,.15,2.09Zm-.24-4.45c-1.73,0-3.69.27-3.69,2a1.41,1.41,0,0,0,1.5,1.51,2.16,2.16,0,0,0,2.1-1.46,1.47,1.47,0,0,0,.09-.5Z"/><path d="M1186.13,117.46h1.58v12.78h-1.58Z"/><path d="M1001.58,146c0-1.12,0-2-.08-2.84h1.43l.07,1.49h0a3.41,3.41,0,0,1,3.09-1.69c2.11,0,3.69,1.78,3.69,4.43,0,3.13-1.9,4.68-4,4.68a3.06,3.06,0,0,1-2.68-1.37h0v4.74h-1.56Zm1.56,2.32a4.18,4.18,0,0,0,.07.65,2.46,2.46,0,0,0,2.38,1.86c1.68,0,2.65-1.37,2.65-3.37,0-1.75-.92-3.24-2.59-3.24a2.53,2.53,0,0,0-2.4,2,2.76,2.76,0,0,0-.11.65Z"/><path d="M1011.82,145.85c0-1,0-1.91-.07-2.72h1.38l.06,1.71h.07a2.62,2.62,0,0,1,2.41-1.91,2,2,0,0,1,.45,0v1.5a2.12,2.12,0,0,0-.54-.06,2.21,2.21,0,0,0-2.12,2,4,4,0,0,0-.08.74v4.64h-1.56Z"/><path d="M1025.41,147.41a4.26,4.26,0,0,1-4.34,4.63,4.14,4.14,0,0,1-4.18-4.48c0-2.92,1.91-4.63,4.33-4.63S1025.41,144.75,1025.41,147.41Zm-6.91.09c0,1.91,1.09,3.35,2.64,3.35s2.65-1.42,2.65-3.38c0-1.48-.74-3.35-2.61-3.35S1018.5,145.85,1018.5,147.5Z"/><path d="M1033.62,151.52a6,6,0,0,1-2.5.5,4.14,4.14,0,0,1-4.34-4.45,4.42,4.42,0,0,1,4.68-4.62,5.21,5.21,0,0,1,2.19.45l-.36,1.22a3.6,3.6,0,0,0-1.83-.41,3.28,3.28,0,0,0-.06,6.55,4.5,4.5,0,0,0,1.95-.43Z"/><path d="M1036.25,147.77a2.79,2.79,0,0,0,3,3,5.8,5.8,0,0,0,2.42-.45l.27,1.13a7.13,7.13,0,0,1-2.9.54,4,4,0,0,1-4.29-4.39c0-2.63,1.55-4.7,4.09-4.7,2.84,0,3.6,2.5,3.6,4.1,0,.33,0,.58-.05.74Zm4.64-1.13a2.26,2.26,0,0,0-2.2-2.58,2.63,2.63,0,0,0-2.43,2.58Z"/><path d="M1044.16,150.22a4.13,4.13,0,0,0,2.09.63c1.16,0,1.7-.58,1.7-1.3s-.45-1.17-1.63-1.6c-1.56-.56-2.3-1.42-2.3-2.47,0-1.4,1.13-2.55,3-2.55a4.34,4.34,0,0,1,2.14.54l-.4,1.15a3.34,3.34,0,0,0-1.78-.5c-.94,0-1.46.54-1.46,1.18s.52,1,1.66,1.48c1.51.58,2.29,1.33,2.29,2.63,0,1.53-1.19,2.61-3.26,2.61a5,5,0,0,1-2.45-.59Z"/><path d="M1051.29,150.22a4.13,4.13,0,0,0,2.09.63c1.15,0,1.69-.58,1.69-1.3s-.45-1.17-1.62-1.6c-1.56-.56-2.3-1.42-2.3-2.47,0-1.4,1.13-2.55,3-2.55a4.35,4.35,0,0,1,2.15.54l-.4,1.15a3.34,3.34,0,0,0-1.78-.5c-.94,0-1.46.54-1.46,1.18s.52,1,1.66,1.48c1.51.58,2.28,1.33,2.28,2.63,0,1.53-1.18,2.61-3.26,2.61a4.94,4.94,0,0,1-2.44-.59Z"/><path d="M1059.52,147.77a2.79,2.79,0,0,0,3,3,5.75,5.75,0,0,0,2.41-.45l.27,1.13a7.09,7.09,0,0,1-2.9.54,4,4,0,0,1-4.28-4.39c0-2.63,1.54-4.7,4.08-4.7,2.85,0,3.6,2.5,3.6,4.1a5.67,5.67,0,0,1,0,.74Zm4.64-1.13a2.25,2.25,0,0,0-2.19-2.58,2.62,2.62,0,0,0-2.43,2.58Z"/><path d="M1067.44,150.22a4.1,4.1,0,0,0,2.09.63c1.15,0,1.69-.58,1.69-1.3s-.45-1.17-1.62-1.6c-1.57-.56-2.31-1.42-2.31-2.47,0-1.4,1.14-2.55,3-2.55a4.31,4.31,0,0,1,2.14.54l-.39,1.15a3.34,3.34,0,0,0-1.78-.5c-.94,0-1.46.54-1.46,1.18s.52,1,1.65,1.48c1.52.58,2.29,1.33,2.29,2.63,0,1.53-1.19,2.61-3.26,2.61a5,5,0,0,1-2.45-.59Z"/><path d="M1082,139.35a11.81,11.81,0,0,0-2.27,7.36A12.13,12.13,0,0,0,1082,154h-1.25a11.68,11.68,0,0,1-2.35-7.31,11.84,11.84,0,0,1,2.35-7.36Z"/><path d="M1083.49,150.22a4.13,4.13,0,0,0,2.09.63c1.16,0,1.7-.58,1.7-1.3s-.45-1.17-1.63-1.6c-1.56-.56-2.3-1.42-2.3-2.47,0-1.4,1.13-2.55,3-2.55a4.34,4.34,0,0,1,2.14.54l-.4,1.15a3.34,3.34,0,0,0-1.78-.5c-.94,0-1.46.54-1.46,1.18s.52,1,1.66,1.48c1.51.58,2.29,1.33,2.29,2.63,0,1.53-1.19,2.61-3.26,2.61a5,5,0,0,1-2.45-.59Z"/><path d="M1092.75,140.62v2.51H1095v1.2h-2.27V149c0,1.08.3,1.69,1.18,1.69a3.72,3.72,0,0,0,.92-.1l.07,1.18a3.74,3.74,0,0,1-1.4.22,2.17,2.17,0,0,1-1.71-.67,3.2,3.2,0,0,1-.61-2.26v-4.76h-1.35v-1.2h1.35V141Z"/><path d="M1097.57,147.77a2.8,2.8,0,0,0,3,3,5.75,5.75,0,0,0,2.41-.45l.27,1.13a7.09,7.09,0,0,1-2.9.54,4,4,0,0,1-4.28-4.39c0-2.63,1.55-4.7,4.08-4.7,2.85,0,3.61,2.5,3.61,4.1a5.31,5.31,0,0,1-.06.74Zm4.64-1.13a2.25,2.25,0,0,0-2.19-2.58,2.63,2.63,0,0,0-2.43,2.58Z"/><path d="M1106.59,147.77a2.79,2.79,0,0,0,3,3,5.75,5.75,0,0,0,2.41-.45l.27,1.13a7.09,7.09,0,0,1-2.9.54,4,4,0,0,1-4.28-4.39c0-2.63,1.54-4.7,4.08-4.7,2.85,0,3.6,2.5,3.6,4.1a5.67,5.67,0,0,1,0,.74Zm4.64-1.13a2.25,2.25,0,0,0-2.19-2.58,2.62,2.62,0,0,0-2.43,2.58Z"/><path d="M1114.72,139.06h1.59v12.78h-1.59Z"/><path d="M1117.77,154.06a26.87,26.87,0,0,0,1.08-4.31l1.76-.18a22.11,22.11,0,0,1-1.71,4.38Z"/><path d="M1126.5,151.84v-7.51h-1.23v-1.2h1.23v-.42a4.13,4.13,0,0,1,1-3,3,3,0,0,1,2.13-.81,3.6,3.6,0,0,1,1.35.25l-.22,1.23a2.29,2.29,0,0,0-1-.2c-1.35,0-1.69,1.19-1.69,2.52v.47h2.11v1.2h-2.11v7.51Z"/><path d="M1132.24,147.77a2.79,2.79,0,0,0,3,3,5.78,5.78,0,0,0,2.41-.45l.27,1.13a7.09,7.09,0,0,1-2.9.54,4,4,0,0,1-4.28-4.39c0-2.63,1.54-4.7,4.08-4.7,2.85,0,3.6,2.5,3.6,4.1a5.67,5.67,0,0,1-.05.74Zm4.64-1.13a2.25,2.25,0,0,0-2.19-2.58,2.62,2.62,0,0,0-2.43,2.58Z"/><path d="M1140.37,145.85c0-1,0-1.91-.07-2.72h1.39l0,1.71h.07a2.62,2.62,0,0,1,2.42-1.91,2.06,2.06,0,0,1,.45,0v1.5a2.17,2.17,0,0,0-2.67,2,5.17,5.17,0,0,0-.07.74v4.64h-1.57Z"/><path d="M1148.6,140.62v2.51h2.27v1.2h-2.27V149c0,1.08.31,1.69,1.19,1.69a3.85,3.85,0,0,0,.92-.1l.07,1.18a3.8,3.8,0,0,1-1.41.22,2.18,2.18,0,0,1-1.71-.67,3.2,3.2,0,0,1-.61-2.26v-4.76h-1.35v-1.2h1.35V141Z"/><path d="M1154.41,140.68a.93.93,0,0,1-1,1,.94.94,0,0,1-1-1,1,1,0,0,1,1-1A.93.93,0,0,1,1154.41,140.68Zm-1.76,11.16v-8.71h1.58v8.71Z"/><path d="M1156.86,139.06h1.59v12.78h-1.59Z"/><path d="M1162.87,140.68a.93.93,0,0,1-1,1,.94.94,0,0,1-1-1,1,1,0,0,1,1-1A.93.93,0,0,1,1162.87,140.68Zm-1.76,11.16v-8.71h1.58v8.71Z"/><path d="M1165.11,150.22a4.06,4.06,0,0,0,2.08.63c1.16,0,1.7-.58,1.7-1.3s-.45-1.17-1.62-1.6c-1.57-.56-2.31-1.42-2.31-2.47,0-1.4,1.14-2.55,3-2.55a4.34,4.34,0,0,1,2.14.54l-.4,1.15a3.34,3.34,0,0,0-1.78-.5c-.93,0-1.46.54-1.46,1.18s.53,1,1.66,1.48c1.51.58,2.29,1.33,2.29,2.63,0,1.53-1.19,2.61-3.26,2.61a5,5,0,0,1-2.45-.59Z"/><path d="M1173.33,147.77a2.8,2.8,0,0,0,3,3,5.71,5.71,0,0,0,2.41-.45l.27,1.13a7.06,7.06,0,0,1-2.9.54,4,4,0,0,1-4.28-4.39c0-2.63,1.55-4.7,4.09-4.7,2.84,0,3.6,2.5,3.6,4.1a5.31,5.31,0,0,1-.06.74Zm4.65-1.13a2.26,2.26,0,0,0-2.2-2.58,2.63,2.63,0,0,0-2.43,2.58Z"/><path d="M1181.47,145.85c0-1,0-1.91-.07-2.72h1.38l.06,1.71h.07a2.61,2.61,0,0,1,2.41-1.91,2,2,0,0,1,.45,0v1.5a2.12,2.12,0,0,0-.54-.06,2.21,2.21,0,0,0-2.12,2,4,4,0,0,0-.08.74v4.64h-1.56Z"/><path d="M1186.4,154a12.16,12.16,0,0,0,2.27-7.36,11.89,11.89,0,0,0-2.27-7.31h1.22a11.4,11.4,0,0,1,2.36,7.32,11.65,11.65,0,0,1-2.36,7.35Z"/><path d="M1006.4,173.44l-.12-1.1h-.06a3.22,3.22,0,0,1-2.66,1.3,2.48,2.48,0,0,1-2.67-2.5c0-2.11,1.88-3.26,5.24-3.24v-.18a1.8,1.8,0,0,0-2-2,4.33,4.33,0,0,0-2.27.65l-.36-1a5.41,5.41,0,0,1,2.87-.77c2.66,0,3.31,1.82,3.31,3.56v3.26a12.06,12.06,0,0,0,.14,2.09Zm-.23-4.45c-1.73,0-3.69.27-3.69,2a1.4,1.4,0,0,0,1.49,1.51,2.16,2.16,0,0,0,2.11-1.46,1.76,1.76,0,0,0,.09-.5Z"/><path d="M1010.25,167.08c0-.9,0-1.63-.07-2.35h1.4l.09,1.44h0a3.2,3.2,0,0,1,2.88-1.64c1.21,0,3.08.72,3.08,3.71v5.2h-1.58v-5c0-1.41-.53-2.58-2-2.58a2.24,2.24,0,0,0-2.12,1.62,2.1,2.1,0,0,0-.11.74v5.24h-1.59Z"/><path d="M1027.77,160.66v10.53c0,.77,0,1.66.07,2.25h-1.42l-.07-1.51h0a3.23,3.23,0,0,1-3,1.71c-2.11,0-3.73-1.78-3.73-4.43,0-2.9,1.78-4.68,3.91-4.68a2.93,2.93,0,0,1,2.63,1.33h0v-5.2Zm-1.59,7.61a2.52,2.52,0,0,0-.07-.66,2.33,2.33,0,0,0-2.28-1.84c-1.64,0-2.62,1.44-2.62,3.37,0,1.76.87,3.22,2.58,3.22a2.38,2.38,0,0,0,2.32-1.89,2.49,2.49,0,0,0,.07-.68Z"/><path d="M1034.21,167.57c0-1.12,0-2-.07-2.84h1.42l.07,1.49h0a3.43,3.43,0,0,1,3.1-1.69c2.1,0,3.69,1.78,3.69,4.43,0,3.13-1.91,4.68-4,4.68a3.07,3.07,0,0,1-2.69-1.37h0V177h-1.57Zm1.57,2.32a3.24,3.24,0,0,0,.07.65,2.45,2.45,0,0,0,2.38,1.86c1.67,0,2.64-1.37,2.64-3.37,0-1.75-.92-3.24-2.59-3.24a2.53,2.53,0,0,0-2.4,2,2.76,2.76,0,0,0-.1.65Z"/><path d="M1044.45,167.45c0-1,0-1.91-.07-2.72h1.39l0,1.71h.07a2.62,2.62,0,0,1,2.41-1.91,1.93,1.93,0,0,1,.45.05v1.5a2.12,2.12,0,0,0-.54-.06,2.23,2.23,0,0,0-2.12,2,4,4,0,0,0-.07.74v4.64h-1.57Z"/><path d="M1058,169a4.26,4.26,0,0,1-4.33,4.63,4.14,4.14,0,0,1-4.18-4.48c0-2.92,1.91-4.63,4.32-4.63S1058,166.35,1058,169Zm-6.91.09c0,1.91,1.1,3.35,2.65,3.35s2.64-1.42,2.64-3.38c0-1.48-.73-3.35-2.61-3.35S1051.13,167.45,1051.13,169.1Z"/><path d="M1067.57,160.66v10.53c0,.77,0,1.66.07,2.25h-1.42l-.08-1.51h0a3.23,3.23,0,0,1-3,1.71c-2.11,0-3.73-1.78-3.73-4.43,0-2.9,1.78-4.68,3.91-4.68a2.93,2.93,0,0,1,2.63,1.33h0v-5.2Zm-1.59,7.61a3,3,0,0,0-.07-.66,2.33,2.33,0,0,0-2.29-1.84c-1.64,0-2.61,1.44-2.61,3.37,0,1.76.87,3.22,2.58,3.22a2.38,2.38,0,0,0,2.32-1.89,3,3,0,0,0,.07-.68Z"/><path d="M1077.48,171.06c0,.9,0,1.7.08,2.38h-1.41l-.09-1.42h0a3.31,3.31,0,0,1-2.89,1.62c-1.36,0-3-.76-3-3.82v-5.09h1.58v4.82c0,1.66.51,2.77,2,2.77a2.26,2.26,0,0,0,2.08-1.44,2.09,2.09,0,0,0,.15-.81v-5.34h1.58Z"/><path d="M1086.32,173.12a5.91,5.91,0,0,1-2.5.5,4.14,4.14,0,0,1-4.34-4.45,4.43,4.43,0,0,1,4.68-4.62,5.27,5.27,0,0,1,2.2.45l-.36,1.22a3.64,3.64,0,0,0-1.84-.41,3.28,3.28,0,0,0-.05,6.55,4.45,4.45,0,0,0,1.94-.43Z"/><path d="M1089.94,162.28a1,1,0,0,1-2,0,1,1,0,0,1,1-1A.94.94,0,0,1,1089.94,162.28Zm-1.77,11.16v-8.71h1.59v8.71Z"/><path d="M1092.39,167.08c0-.9,0-1.63-.08-2.35h1.41l.09,1.44h0a3.21,3.21,0,0,1,2.88-1.64c1.21,0,3.08.72,3.08,3.71v5.2h-1.58v-5c0-1.41-.52-2.58-2-2.58a2.25,2.25,0,0,0-2.12,1.62,2.35,2.35,0,0,0-.11.74v5.24h-1.58Z"/><path d="M1109.88,164.73c0,.63-.07,1.33-.07,2.39v5.06c0,2-.39,3.22-1.24,4a4.63,4.63,0,0,1-3.17,1,5.62,5.62,0,0,1-2.9-.72l.4-1.2a4.87,4.87,0,0,0,2.55.68c1.62,0,2.81-.84,2.81-3v-1h0a3.12,3.12,0,0,1-2.78,1.45c-2.16,0-3.7-1.83-3.7-4.24,0-3,1.92-4.63,3.92-4.63a2.9,2.9,0,0,1,2.72,1.51h0l.08-1.31Zm-1.63,3.44a2.32,2.32,0,0,0-2.31-2.4c-1.51,0-2.59,1.28-2.59,3.3,0,1.71.86,3.13,2.57,3.13a2.32,2.32,0,0,0,2.2-1.62,2.79,2.79,0,0,0,.13-.85Z"/><path d="M1116,171.82a4.07,4.07,0,0,0,2.09.63c1.15,0,1.69-.58,1.69-1.3s-.45-1.17-1.62-1.6c-1.57-.56-2.31-1.42-2.31-2.47,0-1.4,1.14-2.55,3-2.55a4.31,4.31,0,0,1,2.14.54l-.39,1.15a3.41,3.41,0,0,0-1.79-.5c-.93,0-1.45.54-1.45,1.18s.52,1,1.65,1.48c1.51.58,2.29,1.33,2.29,2.63,0,1.53-1.19,2.61-3.26,2.61a5,5,0,0,1-2.45-.59Z"/><path d="M1124,164.73l1.91,5.15c.19.57.41,1.26.55,1.78h0c.16-.52.34-1.19.56-1.82l1.73-5.11h1.67l-2.38,6.21c-1.13,3-1.9,4.52-3,5.45a4.25,4.25,0,0,1-2,1l-.4-1.33a4.21,4.21,0,0,0,1.39-.78,4.79,4.79,0,0,0,1.33-1.76,1,1,0,0,0,.13-.38,1.39,1.39,0,0,0-.11-.41l-3.22-8Z"/><path d="M1131.86,167.08c0-.9,0-1.63-.07-2.35h1.4l.09,1.44h0a3.2,3.2,0,0,1,2.88-1.64c1.2,0,3.08.72,3.08,3.71v5.2h-1.59v-5c0-1.41-.52-2.58-2-2.58a2.25,2.25,0,0,0-2.13,1.62,2.35,2.35,0,0,0-.11.74v5.24h-1.58Z"/><path d="M1143.69,162.22v2.51H1146v1.2h-2.26v4.7c0,1.08.3,1.69,1.18,1.69a3.78,3.78,0,0,0,.92-.1l.07,1.18a3.74,3.74,0,0,1-1.4.22,2.17,2.17,0,0,1-1.71-.67,3.2,3.2,0,0,1-.61-2.26v-4.76h-1.35v-1.2h1.35v-2.09Z"/><path d="M1147.73,160.66h1.59v5.43h0a2.87,2.87,0,0,1,1.13-1.11,3.28,3.28,0,0,1,1.62-.45c1.17,0,3,.72,3,3.73v5.18h-1.58v-5c0-1.41-.52-2.6-2-2.6a2.27,2.27,0,0,0-2.12,1.59,1.88,1.88,0,0,0-.11.75v5.26h-1.59Z"/><path d="M1158.61,169.37a2.79,2.79,0,0,0,3,3A5.78,5.78,0,0,0,1164,172l.27,1.13a7.09,7.09,0,0,1-2.9.54,4,4,0,0,1-4.29-4.39c0-2.63,1.55-4.7,4.09-4.7,2.85,0,3.6,2.5,3.6,4.1a5.67,5.67,0,0,1,0,.74Zm4.64-1.13a2.25,2.25,0,0,0-2.19-2.58,2.64,2.64,0,0,0-2.44,2.58Z"/><path d="M1168.65,162.22v2.51h2.27v1.2h-2.27v4.7c0,1.08.31,1.69,1.19,1.69a3.85,3.85,0,0,0,.92-.1l.07,1.18a3.8,3.8,0,0,1-1.41.22,2.18,2.18,0,0,1-1.71-.67,3.2,3.2,0,0,1-.61-2.26v-4.76h-1.35v-1.2h1.35v-2.09Z"/><path d="M1174.46,162.28a.93.93,0,0,1-1,1,.94.94,0,0,1-1-1,1,1,0,0,1,1-1A.93.93,0,0,1,1174.46,162.28Zm-1.76,11.16v-8.71h1.59v8.71Z"/><path d="M1183.12,173.12a5.91,5.91,0,0,1-2.5.5,4.14,4.14,0,0,1-4.34-4.45,4.43,4.43,0,0,1,4.68-4.62,5.23,5.23,0,0,1,2.2.45l-.36,1.22a3.64,3.64,0,0,0-1.84-.41,3.28,3.28,0,0,0,0,6.55,4.45,4.45,0,0,0,1.94-.43Z"/><path d="M1001.74,195v-7.51h-1.23v-1.2h1.23v-.42a4.1,4.1,0,0,1,1-3,3,3,0,0,1,2.12-.81,3.77,3.77,0,0,1,1.35.25l-.21,1.23a2.36,2.36,0,0,0-1-.2c-1.35,0-1.69,1.19-1.69,2.52v.47h2.1v1.2h-2.1V195Z"/><path d="M1014.12,192.66c0,.9,0,1.7.08,2.38h-1.41l-.09-1.42h0a3.3,3.3,0,0,1-2.88,1.62c-1.37,0-3-.76-3-3.82v-5.09h1.58v4.82c0,1.66.51,2.77,1.95,2.77a2.22,2.22,0,0,0,2.23-2.25v-5.34h1.58Z"/><path d="M1017.63,191a2.8,2.8,0,0,0,3,3,5.71,5.71,0,0,0,2.41-.45l.27,1.13a7,7,0,0,1-2.89.54,4,4,0,0,1-4.29-4.39c0-2.63,1.55-4.7,4.09-4.7,2.84,0,3.6,2.5,3.6,4.1a5.31,5.31,0,0,1-.06.74Zm4.65-1.13a2.26,2.26,0,0,0-2.2-2.58,2.63,2.63,0,0,0-2.43,2.58Z"/><path d="M1025.77,182.26h1.58V195h-1.58Z"/><path d="M1029.8,193.42a4.13,4.13,0,0,0,2.09.63c1.15,0,1.69-.58,1.69-1.3s-.45-1.17-1.62-1.6c-1.57-.56-2.3-1.42-2.3-2.46,0-1.41,1.13-2.56,3-2.56a4.35,4.35,0,0,1,2.15.54l-.4,1.15a3.34,3.34,0,0,0-1.78-.5c-.94,0-1.46.54-1.46,1.18s.52,1.05,1.66,1.48c1.51.58,2.28,1.33,2.28,2.63,0,1.53-1.19,2.61-3.26,2.61a5,5,0,0,1-2.45-.59Z"/><path d="M1036.57,194.1a1.06,1.06,0,0,1,1.08-1.13,1.14,1.14,0,0,1,0,2.27A1.06,1.06,0,0,1,1036.57,194.1Z"/></svg>