<?xml version="1.0" encoding="utf-8"?>
<!-- Generator: Adobe Illustrator 25.0.0, SVG Export Plug-In . SVG Version: 6.00 Build 0)  -->
<svg version="1.1" id="Layer_1" xmlns="http://www.w3.org/2000/svg" xmlns:xlink="http://www.w3.org/1999/xlink" x="0px" y="0px"
	 viewBox="0 0 244.9 40" style="enable-background:new 0 0 244.9 40;" xml:space="preserve">
<style type="text/css">
	.st0{clip-path:url(#SVGID_2_);}
	.st1{clip-path:url(#SVGID_4_);fill:none;stroke:#FFFFFF;stroke-width:0.5439;stroke-miterlimit:10;}
	.st2{clip-path:url(#SVGID_4_);fill:#FFFFFF;}
	.st3{fill:#FFFFFF;}
</style>
<g>
	<g>
		<defs>
			<rect id="SVGID_1_" x="-4.6" y="-6" width="49.9" height="52"/>
		</defs>
		<clipPath id="SVGID_2_">
			<use xlink:href="#SVGID_1_"  style="overflow:visible;"/>
		</clipPath>
		<g class="st0">
			<defs>
				<rect id="SVGID_3_" x="-4.6" y="-6" width="49.9" height="52"/>
			</defs>
			<clipPath id="SVGID_4_">
				<use xlink:href="#SVGID_3_"  style="overflow:visible;"/>
			</clipPath>
			<circle class="st1" cx="20.3" cy="20" r="18.7"/>
			<path class="st2" d="M26.5,20c0,3.4-2.8,6.2-6.2,6.2c-3.4,0-6.2-2.8-6.2-6.2c0-3.4,2.8-6.2,6.2-6.2C23.8,13.8,26.5,16.6,26.5,20"
				/>
			<path class="st2" d="M9.6,6.8c0,1.4-1.1,2.5-2.5,2.5S4.6,8.1,4.6,6.8c0-1.4,1.1-2.5,2.5-2.5S9.6,5.4,9.6,6.8"/>
		</g>
	</g>
</g>
<g>
	<path class="st3" d="M51.9,6.3H55v9.3h11.6V6.3h3.1v22.6h-3.1V18.4H55v10.6h-3.1V6.3z"/>
	<path class="st3" d="M84.5,12.5h3.1c-0.4,1.1-1.3,3.5-2.6,7.2c-1,2.8-1.8,5.1-2.5,6.9c-1.6,4.2-2.7,6.8-3.4,7.7
		c-0.7,0.9-1.8,1.4-3.4,1.4c-0.4,0-0.7,0-0.9,0c-0.2,0-0.5-0.1-0.8-0.2v-2.5c0.5,0.1,0.8,0.2,1,0.2c0.2,0,0.4,0,0.6,0
		c0.5,0,0.9-0.1,1.1-0.3c0.2-0.2,0.4-0.4,0.6-0.6c0-0.1,0.2-0.5,0.6-1.3c0.3-0.8,0.5-1.3,0.7-1.7l-6.1-16.9h3.1L80,25.9L84.5,12.5z"
		/>
	<path class="st3" d="M99,13c0.5,0.3,1,0.8,1.7,1.6V6.3h2.7v22.7h-2.5v-2.3c-0.6,1-1.4,1.7-2.3,2.2c-0.9,0.5-1.9,0.7-3,0.7
		c-1.8,0-3.4-0.8-4.7-2.3c-1.3-1.5-2-3.6-2-6.2c0-2.4,0.6-4.5,1.8-6.2c1.2-1.8,3-2.6,5.2-2.6C97,12.2,98.1,12.4,99,13z M92.8,25.3
		c0.7,1.2,1.9,1.8,3.6,1.8c1.3,0,2.3-0.6,3.1-1.7c0.8-1.1,1.2-2.7,1.2-4.7c0-2.1-0.4-3.6-1.3-4.6c-0.8-1-1.9-1.5-3.1-1.5
		c-1.4,0-2.5,0.5-3.4,1.6c-0.9,1.1-1.3,2.6-1.3,4.7C91.7,22.6,92,24.1,92.8,25.3z"/>
	<path class="st3" d="M107.5,12.5h2.6v2.8c0.2-0.6,0.7-1.2,1.6-2c0.8-0.8,1.8-1.2,2.9-1.2c0.1,0,0.1,0,0.3,0c0.1,0,0.3,0,0.6,0.1
		v2.9c-0.2,0-0.3-0.1-0.5-0.1c-0.1,0-0.3,0-0.5,0c-1.4,0-2.5,0.4-3.2,1.3c-0.7,0.9-1.1,1.9-1.1,3.1v9.5h-2.8V12.5z"/>
	<path class="st3" d="M129.8,14.1c1.5,1.4,2.2,3.5,2.2,6.2c0,2.7-0.6,4.8-1.9,6.6c-1.3,1.7-3.3,2.6-6,2.6c-2.2,0-4-0.8-5.4-2.3
		c-1.3-1.5-2-3.6-2-6.2c0-2.8,0.7-5,2.1-6.6c1.4-1.6,3.3-2.5,5.6-2.5C126.6,12,128.4,12.7,129.8,14.1z M128.1,25
		c0.7-1.4,1-2.9,1-4.6c0-1.5-0.2-2.8-0.7-3.7c-0.8-1.5-2.1-2.3-4-2.3c-1.7,0-2.9,0.6-3.6,1.9c-0.8,1.3-1.1,2.8-1.1,4.7
		c0,1.7,0.4,3.2,1.1,4.4c0.8,1.2,2,1.7,3.6,1.7C126.2,27.1,127.4,26.4,128.1,25z"/>
	<path class="st3" d="M144.6,13.1c0.5,0.4,1.1,0.9,1.6,1.6v-2.1h2.6v15c0,2.1-0.3,3.7-0.9,5c-1.1,2.2-3.3,3.4-6.5,3.4
		c-1.8,0-3.3-0.4-4.5-1.2c-1.2-0.8-1.9-2-2-3.7h2.8c0.1,0.7,0.4,1.3,0.8,1.7c0.6,0.6,1.6,0.9,2.9,0.9c2.1,0,3.5-0.7,4.1-2.2
		c0.4-0.9,0.6-2.5,0.5-4.7c-0.6,0.8-1.2,1.5-2,1.9s-1.8,0.6-3.1,0.6c-1.8,0-3.3-0.6-4.7-1.9c-1.3-1.3-2-3.4-2-6.3
		c0-2.8,0.7-4.9,2-6.5c1.3-1.5,3-2.3,4.9-2.3C142.5,12.2,143.6,12.5,144.6,13.1z M144.9,16.1c-0.8-1-1.9-1.5-3.2-1.5
		c-1.9,0-3.3,0.9-4,2.7c-0.4,1-0.6,2.2-0.6,3.8c0,1.9,0.4,3.3,1.1,4.2c0.7,1,1.8,1.5,3,1.5c2,0,3.4-0.9,4.2-2.7
		c0.4-1,0.7-2.2,0.7-3.6C146.2,18.6,145.7,17.1,144.9,16.1z"/>
	<path class="st3" d="M163.1,12.9c1.1,0.5,1.9,1.3,2.5,2.1c0.6,0.8,0.9,1.8,1.1,2.9c0.2,0.8,0.2,2,0.2,3.6h-12c0.1,1.7,0.4,3,1.2,4
		c0.7,1,1.9,1.5,3.4,1.5c1.4,0,2.6-0.5,3.4-1.4c0.5-0.6,0.8-1.2,1-1.9h2.7c-0.1,0.6-0.3,1.3-0.7,2c-0.4,0.7-0.9,1.4-1.4,1.8
		c-0.8,0.8-1.9,1.4-3.1,1.7c-0.7,0.2-1.4,0.2-2.2,0.2c-2,0-3.8-0.7-5.2-2.2c-1.4-1.5-2.1-3.6-2.1-6.3c0-2.6,0.7-4.8,2.1-6.4
		c1.4-1.7,3.3-2.5,5.6-2.5C160.9,12.1,162,12.4,163.1,12.9z M164.1,19.4c-0.1-1.2-0.4-2.2-0.8-2.9c-0.8-1.3-2-2-3.8-2
		c-1.3,0-2.3,0.5-3.2,1.4c-0.9,0.9-1.3,2.1-1.4,3.5H164.1z"/>
	<path class="st3" d="M170.4,12.5h2.6v2.3c0.8-1,1.6-1.7,2.5-2.1c0.9-0.4,1.8-0.6,2.9-0.6c2.3,0,3.9,0.8,4.7,2.4
		c0.5,0.9,0.7,2.2,0.7,3.8v10.6H181V18.5c0-1-0.1-1.8-0.4-2.4c-0.5-1-1.4-1.5-2.7-1.5c-0.7,0-1.2,0.1-1.6,0.2
		c-0.8,0.2-1.4,0.7-2,1.4c-0.5,0.5-0.8,1.1-0.9,1.7c-0.1,0.6-0.2,1.4-0.2,2.5v8.6h-2.8V12.5z"/>
	<path class="st3" d="M198.8,13.3c1.2,0.9,1.9,2.5,2.1,4.7h-2.7c-0.2-1-0.5-1.9-1.1-2.5c-0.6-0.7-1.5-1-2.8-1c-1.8,0-3,0.9-3.8,2.6
		c-0.5,1.1-0.7,2.5-0.7,4.1c0,1.6,0.3,3,1,4.2c0.7,1.1,1.8,1.7,3.3,1.7c1.1,0,2.1-0.3,2.7-1c0.7-0.7,1.1-1.7,1.4-2.9h2.7
		c-0.3,2.2-1.1,3.8-2.3,4.8c-1.2,1-2.8,1.5-4.7,1.5c-2.2,0-3.9-0.8-5.2-2.4s-1.9-3.5-1.9-5.9c0-2.9,0.7-5.1,2.1-6.7s3.2-2.4,5.4-2.4
		C196.1,12,197.7,12.4,198.8,13.3z"/>
	<path class="st3" d="M215.6,14.1c1.5,1.4,2.2,3.5,2.2,6.2c0,2.7-0.6,4.8-1.9,6.6c-1.3,1.7-3.3,2.6-6,2.6c-2.2,0-4-0.8-5.4-2.3
		c-1.3-1.5-2-3.6-2-6.2c0-2.8,0.7-5,2.1-6.6c1.4-1.6,3.3-2.5,5.6-2.5C212.4,12,214.2,12.7,215.6,14.1z M213.9,25
		c0.7-1.4,1-2.9,1-4.6c0-1.5-0.2-2.8-0.7-3.7c-0.8-1.5-2.1-2.3-4-2.3c-1.7,0-2.9,0.6-3.6,1.9s-1.1,2.8-1.1,4.7
		c0,1.7,0.4,3.2,1.1,4.4c0.8,1.2,2,1.7,3.6,1.7C212,27.1,213.2,26.4,213.9,25z"/>
	<path class="st3" d="M221.2,6.3h2.8v3.1h-2.8V6.3z M221.2,12.5h2.8v16.4h-2.8V12.5z"/>
	<path class="st3" d="M228.2,12.5h2.6v2.3c0.8-1,1.6-1.7,2.5-2.1c0.9-0.4,1.8-0.6,2.9-0.6c2.3,0,3.9,0.8,4.7,2.4
		c0.5,0.9,0.7,2.2,0.7,3.8v10.6h-2.8V18.5c0-1-0.1-1.8-0.4-2.4c-0.5-1-1.4-1.5-2.7-1.5c-0.7,0-1.2,0.1-1.6,0.2
		c-0.8,0.2-1.4,0.7-2,1.4c-0.5,0.5-0.8,1.1-0.9,1.7c-0.1,0.6-0.2,1.4-0.2,2.5v8.6h-2.8V12.5z"/>
</g>
</svg>
